<?xml version="1.0" encoding="UTF-8" standalone="no"?>
<svg
   width="200"
   height="200"
   xml:space="preserve"
   overflow="hidden"
   version="1.1"
   id="svg4"
   sodipodi:docname="benchmark.svg"
   inkscape:version="1.3.2 (091e20e, 2023-11-25, custom)"
   xmlns:inkscape="http://www.inkscape.org/namespaces/inkscape"
   xmlns:sodipodi="http://sodipodi.sourceforge.net/DTD/sodipodi-0.dtd"
   xmlns="http://www.w3.org/2000/svg"
   xmlns:svg="http://www.w3.org/2000/svg"><defs
     id="defs4" /><sodipodi:namedview
     id="namedview4"
     pagecolor="#ffffff"
     bordercolor="#666666"
     borderopacity="1.0"
     inkscape:showpageshadow="2"
     inkscape:pageopacity="0.0"
     inkscape:pagecheckerboard="true"
     inkscape:deskcolor="#d1d1d1"
     showguides="true"
     inkscape:zoom="4"
     inkscape:cx="106.5"
     inkscape:cy="88.5"
     inkscape:window-width="1892"
     inkscape:window-height="2009"
     inkscape:window-x="1919"
     inkscape:window-y="16"
     inkscape:window-maximized="0"
     inkscape:current-layer="svg4"><sodipodi:guide
       position="0,175"
       orientation="0,1"
       id="guide4"
       inkscape:locked="false"
       inkscape:label=""
       inkscape:color="rgb(0,134,229)" /><sodipodi:guide
       position="0,25"
       orientation="0,1"
       id="guide5"
       inkscape:locked="true"
       inkscape:label=""
       inkscape:color="rgb(0,134,229)" /><sodipodi:guide
       position="25,200"
       orientation="-1,0"
       id="guide6"
       inkscape:locked="true"
       inkscape:label=""
       inkscape:color="rgb(0,134,229)" /><sodipodi:guide
       position="175,200"
       orientation="-1,0"
       id="guide7"
       inkscape:locked="true"
       inkscape:label=""
       inkscape:color="rgb(0,134,229)" /></sodipodi:namedview><g
     transform="matrix(1.5270953,0,0,1.5130575,-1437.115,-283.6043)"
     id="g4"><path
       d="m 975.337,260.166 c 0.431,-0.022 0.864,-0.006 1.295,0 0.046,2.623 0.002,5.256 0.001,7.879 l -0.001,28.755 c 0,2.156 0.054,4.322 0,6.477 h -17.612 -1.55 l -10e-4,-29.619 c 10e-4,-4.494 0.074,-8.999 10e-4,-13.492 z"
       fill="#e76f51"
       id="path1" /><path
       d="m 1000.99,242.26 c 0.6,-0.044 1.18,-0.026 1.78,0 v 61.017 h -16.966 c -0.667,0.015 -1.329,0.015 -1.996,0 v -54.522 c 0,-2.152 0.109,-4.351 0,-6.495 z"
       fill="#2a9d8f"
       id="path2" /><path
       d="m 1010.14,222.128 13.19,0.001 c 1.95,-0.001 3.92,-0.06 5.87,-0.001 v 72.514 c 0,2.867 0.12,5.772 0,8.635 h -19.06 z"
       fill="#f4a261"
       id="path3" /><path
       d="m 1036.46,204.006 c 2.09,0.061 4.21,0.001 6.3,0 h 12.77 v 99.271 h -19.07 z"
       fill="#5776a3"
       id="path4" /></g></svg>
