<?xml version="1.0" encoding="UTF-8" standalone="no"?>
<svg
   width="200"
   height="200"
   xml:space="preserve"
   overflow="hidden"
   version="1.1"
   id="svg4"
   sodipodi:docname="collaborate.svg"
   inkscape:version="1.3.2 (091e20e, 2023-11-25, custom)"
   xmlns:inkscape="http://www.inkscape.org/namespaces/inkscape"
   xmlns:sodipodi="http://sodipodi.sourceforge.net/DTD/sodipodi-0.dtd"
   xmlns="http://www.w3.org/2000/svg"
   xmlns:svg="http://www.w3.org/2000/svg"><defs
     id="defs4" /><sodipodi:namedview
     id="namedview4"
     pagecolor="#ffffff"
     bordercolor="#666666"
     borderopacity="1.0"
     inkscape:showpageshadow="2"
     inkscape:pageopacity="0.0"
     inkscape:pagecheckerboard="true"
     inkscape:deskcolor="#d1d1d1"
     showguides="true"
     inkscape:zoom="11.313709"
     inkscape:cx="100.05561"
     inkscape:cy="97.271376"
     inkscape:window-width="3840"
     inkscape:window-height="2054"
     inkscape:window-x="3829"
     inkscape:window-y="-11"
     inkscape:window-maximized="1"
     inkscape:current-layer="g7"><sodipodi:guide
       position="0,175"
       orientation="0,1"
       id="guide4"
       inkscape:locked="false"
       inkscape:label=""
       inkscape:color="rgb(0,134,229)" /><sodipodi:guide
       position="0,25"
       orientation="0,1"
       id="guide5"
       inkscape:locked="false"
       inkscape:label=""
       inkscape:color="rgb(0,134,229)" /><sodipodi:guide
       position="25,200"
       orientation="-1,0"
       id="guide6"
       inkscape:locked="false"
       inkscape:label=""
       inkscape:color="rgb(0,134,229)" /><sodipodi:guide
       position="175,200"
       orientation="-1,0"
       id="guide7"
       inkscape:locked="false"
       inkscape:label=""
       inkscape:color="rgb(0,134,229)" /></sodipodi:namedview><g
     id="g16"
     style="overflow:hidden;fill:#2a9d8f;fill-opacity:1"
     transform="matrix(1.3798863,0,0,1.3798863,-294.08437,-8.3892474)"
     inkscape:label="g16"><g
       transform="matrix(0.96354026,0,0,0.96195824,185.80374,-169.13)"
       id="g4"
       style="overflow:hidden;fill:#2a9d8f;fill-opacity:1"><g
         transform="matrix(0.74713243,0,0,0.74836115,-549.77722,195.66694)"
         id="g7"><path
           d="m 891.74277,53.932087 39.16286,-0.0047 c 8.22695,-0.0058 16.59843,1.811607 18.60322,11.430588 0.61133,2.932639 0.43327,6.230706 0.43157,9.219567 l -0.004,50.985568 c -0.008,5.09038 -0.5206,8.34397 -4.32672,12.10606 -1.97425,1.95216 -4.04138,2.26347 -5.83421,3.76964 -5.6282,4.72746 -12.29036,11.27032 -17.09697,16.65188 -3.99138,-5.77635 -7.13655,-8.81639 -12.04065,-13.46876 -1.24723,-1.18312 -2.47665,-2.61043 -3.85359,-3.63119 -8.63433,-0.11706 -17.29029,-0.0118 -25.9263,-0.002 l -6.33319,0.0105 c -7.49733,0.0101 -14.16628,-1.75875 -16.17449,-10.32215 -0.72577,-3.09459 -0.40824,-7.37816 -0.40952,-10.61792 l 0.003,-15.77626 c 0.004,-1.37444 0.20222,-4.417426 0,-5.561531 v 0 l 13.60795,0.0042 c 3.1363,0 6.94877,0.310048 9.98118,-0.412414 11.61291,-2.765242 10.21264,-13.42302 10.2097,-22.294786 V 53.932056 Z"
           fill="#f4a261"
           id="path1"
           style="stroke-width:0.421737" /><path
           d="m 857.94352,98.72136 c -3.01038,0.207257 -6.06993,0.0017 -9.08666,8.33e-4 l -30.64175,0.003 c -8.3804,0.0017 -16.79377,-1.371921 -18.86971,-11.433943 -0.55336,-2.68259 -0.34144,-5.582506 -0.33872,-8.312506 l -0.0152,-55.594765 c -0.0645,-10.25774 5.69763,-16.2557247 16.19244,-16.2944485 l 54.6985,0.00684 c 9.25794,0.00166 18.76684,0.4889396 21.41814,11.8143865 0.78473,3.353451 0.44303,9.553531 0.44303,13.215348 v 21.80601 0 22.086268 c 0.003,8.871763 1.40321,19.529543 -10.2097,22.294783 -3.0324,0.722462 -6.84488,0.412415 -9.98117,0.412415 l -13.60796,-0.0042 z"
           fill="#2a9d8f"
           id="path2"
           style="stroke-width:0.421737" /><path
           d="m 857.97063,98.72136 c -0.14913,-5.83885 0,-11.725111 0,-17.568996 l -0.006,-7.046309 c -0.007,-9.091185 1.91742,-16.956035 11.77998,-19.616389 2.78458,-0.75141 5.84143,-0.559258 8.69998,-0.55632 l 8.71955,-0.005 c 1.52402,0.0021 3.05803,0.06838 4.58047,0.0038 v 22.086268 c 0.003,8.871764 1.32331,19.529543 -9.62831,22.294783 -2.85973,0.722464 -6.4551,0.412417 -9.4128,0.412417 l -12.83305,-0.0042 c -0.62648,-0.04069 -1.27174,-0.0047 -1.90062,0 z"
           fill="#5776a3"
           id="path3"
           style="stroke-width:0.409553" /></g></g></g></svg>
