<svg width="1445" height="1868" xmlns="http://www.w3.org/2000/svg" xmlns:xlink="http://www.w3.org/1999/xlink" xml:space="preserve" overflow="hidden"><defs><clipPath id="clip0"><rect x="1375" y="299" width="1445" height="1868"/></clipPath></defs><g clip-path="url(#clip0)" transform="translate(-1375 -299)"><path d="M2295.44 299.083C2300.44 299.252 2304.52 299.702 2306.8 300.598 2320.47 317.29 2337.11 331.5 2352.45 346.607L2783.61 777.701C2789.31 783.29 2795.82 788.824 2802.09 794.567L2819 812.586 2819 2008.3 2816.75 2031.27C2815.45 2039.22 2813.55 2047.05 2810.81 2054.69 2773.96 2157.14 2705.08 2166.45 2614.92 2166.35L1615.08 2166.32C1571.84 2166.33 1523.82 2171.04 1482.57 2155.5 1368.77 2112.64 1376.41 2017.44 1376.41 1920.17L1376.4 546.13C1376.38 498.239 1369.36 437.081 1386.95 391.636 1423.63 296.91 1509.23 300.053 1590.82 300.49L2248.29 300.586C2257.01 300.582 2280.42 298.574 2295.44 299.083Z" fill="#F4A261" fill-rule="evenodd"/><path d="M2306.19 299.042C2319.87 315.728 2336.53 329.933 2351.89 345.035L2783.59 775.988C2795.01 787.161 2809.67 798.118 2819.12 810.959 2818.5 810.983 2817.89 810.988 2817.27 810.993L2482.08 811.041C2407.93 811.114 2330.06 797.876 2310.73 709.568 2305.28 684.664 2306.18 658.227 2306.17 632.845L2306.19 299.042Z" fill="#5776A3" fill-rule="evenodd"/><path d="M1589 1053.5C1589 1023.4 1613.4 999 1643.5 999L2550.5 999C2580.6 999 2605 1023.4 2605 1053.5L2605 1053.5C2605 1083.6 2580.6 1108 2550.5 1108L1643.5 1108C1613.4 1108 1589 1083.6 1589 1053.5Z" fill="#2A9D8F" fill-rule="evenodd"/><path d="M1734.98 1089.01C1698.08 870.056 2028.02 878.916 1980.38 1089.01 1941.24 1187.14 1817.22 1214.6 1758.37 1128.55 1750 1116.31 1743.9 1102.59 1735.77 1090.18L1734.98 1089.01Z" fill="#E76F51" fill-rule="evenodd"/><path d="M1589 1422.5C1589 1392.4 1613.4 1368 1643.5 1368L2550.5 1368C2580.6 1368 2605 1392.4 2605 1422.5L2605 1422.5C2605 1452.6 2580.6 1477 2550.5 1477L1643.5 1477C1613.4 1477 1589 1452.6 1589 1422.5Z" fill="#2A9D8F" fill-rule="evenodd"/><path d="M2193.98 1451.37C2157.08 1233.29 2487.02 1242.11 2439.38 1451.37 2400.24 1549.11 2276.22 1576.46 2217.37 1490.75 2209 1478.56 2202.9 1464.9 2194.77 1452.54L2193.98 1451.37Z" fill="#5776A3" fill-rule="evenodd"/><path d="M1589 1790.5C1589 1760.4 1613.4 1736 1643.5 1736L2550.5 1736C2580.6 1736 2605 1760.4 2605 1790.5L2605 1790.5C2605 1820.6 2580.6 1845 2550.5 1845L1643.5 1845C1613.4 1845 1589 1820.6 1589 1790.5Z" fill="#2A9D8F" fill-rule="evenodd"/><path d="M1891.98 1812.01C1855.08 1593.06 2185.02 1601.92 2137.38 1812.01 2098.24 1910.14 1974.22 1937.6 1915.37 1851.55 1907 1839.31 1900.9 1825.59 1892.76 1813.18L1891.98 1812.01Z" fill="#5776A3" fill-rule="evenodd"/></g></svg>