<?xml version="1.0" encoding="UTF-8" standalone="no"?>
<svg
   width="200"
   height="200"
   xml:space="preserve"
   overflow="hidden"
   version="1.1"
   id="svg4"
   sodipodi:docname="contribute.svg"
   inkscape:version="1.3.2 (091e20e, 2023-11-25, custom)"
   xmlns:inkscape="http://www.inkscape.org/namespaces/inkscape"
   xmlns:sodipodi="http://sodipodi.sourceforge.net/DTD/sodipodi-0.dtd"
   xmlns="http://www.w3.org/2000/svg"
   xmlns:svg="http://www.w3.org/2000/svg"><defs
     id="defs4" /><sodipodi:namedview
     id="namedview4"
     pagecolor="#ffffff"
     bordercolor="#666666"
     borderopacity="1.0"
     inkscape:showpageshadow="2"
     inkscape:pageopacity="0.0"
     inkscape:pagecheckerboard="true"
     inkscape:deskcolor="#d1d1d1"
     showguides="true"
     inkscape:zoom="4"
     inkscape:cx="101.75"
     inkscape:cy="85.875"
     inkscape:window-width="3840"
     inkscape:window-height="2054"
     inkscape:window-x="3829"
     inkscape:window-y="-11"
     inkscape:window-maximized="1"
     inkscape:current-layer="g7"><sodipodi:guide
       position="0,175"
       orientation="0,1"
       id="guide4"
       inkscape:locked="false"
       inkscape:label=""
       inkscape:color="rgb(0,134,229)" /><sodipodi:guide
       position="0,25"
       orientation="0,1"
       id="guide5"
       inkscape:locked="false"
       inkscape:label=""
       inkscape:color="rgb(0,134,229)" /><sodipodi:guide
       position="25,200"
       orientation="-1,0"
       id="guide6"
       inkscape:locked="false"
       inkscape:label=""
       inkscape:color="rgb(0,134,229)" /><sodipodi:guide
       position="175,200"
       orientation="-1,0"
       id="guide7"
       inkscape:locked="false"
       inkscape:label=""
       inkscape:color="rgb(0,134,229)" /></sodipodi:namedview><g
     id="g16"
     style="overflow:hidden;fill:#2a9d8f;fill-opacity:1"
     transform="matrix(1.3798863,0,0,1.3798863,-294.08437,-8.3892474)"
     inkscape:label="g16"><g
       transform="matrix(0.96354026,0,0,0.96195824,185.80374,-169.13)"
       id="g4"
       style="overflow:hidden;fill:#2a9d8f;fill-opacity:1"><g
         transform="matrix(0.74713243,0,0,0.74836115,-549.77722,195.66694)"
         id="g7"><g
           transform="matrix(0.99332895,0,0,0.99990796,602.27364,-193.90061)"
           id="g5"><path
             d="m 284.333,300.16 c 2.946,-0.839 5.226,2.383 5.631,5.009 0.43,2.787 -1.834,4.752 -3.544,6.555 l -5.276,5.465 c -1.342,1.37 -2.817,2.702 -3.925,4.277 1.513,1.004 9.854,9.788 11.287,11.786 3.114,4.338 -0.771,9.772 -6.306,8.614 -2.089,-0.833 -3.41,-2.7 -4.908,-4.298 l -5.064,-5.405 c -2.155,-2.343 -4.46,-4.563 -6.585,-6.927 -4.008,-4.457 0.288,-7.956 3.305,-11.016 l 6.37,-6.518 c 2.234,-2.319 6.042,-7.741 9.015,-7.542 z"
             fill="#f4a261"
             fill-rule="evenodd"
             id="path1" /><path
             d="m 327.706,301.04 c 1.868,-0.102 3.291,0.247 4.697,1.572 4.115,3.881 8.116,7.941 12.088,11.961 7.008,7.094 7.888,6.779 -0.409,14.895 -4.131,4.041 -8.374,7.968 -12.5,12.016 -5.622,2.304 -10.51,-3.251 -7.677,-7.499 0.874,-1.31 2.384,-2.403 3.525,-3.507 l 9.11,-8.777 c -2.195,-2.744 -6.698,-6.768 -9.324,-9.29 -1.047,-1.005 -2.243,-1.975 -3.134,-3.117 -2.564,-3.288 -0.104,-7.426 3.624,-8.254 z"
             fill="#e76f51"
             fill-rule="evenodd"
             id="path2" /><path
             d="m 314.548,294.029 c 3.592,-0.128 7.356,2.191 6.291,6.125 -0.309,1.142 -0.798,2.289 -1.193,3.41 l -14.402,40.43 c -1.16,3.323 -1.593,6.743 -5.597,7.895 -3.01,0.837 -7.248,-2.375 -6.547,-5.498 0.724,-3.228 2.192,-6.38 3.302,-9.506 l 12.291,-34.509 c 1.234,-3.409 1.672,-7.28 5.855,-8.347 z"
             fill="#5776a3"
             fill-rule="evenodd"
             id="path3" /><path
             d="m 242.874,201.022 c 35.278,-0.913 40.54,45.121 10.72,54.482 -2.033,0.638 -4.175,0.932 -6.254,1.392 -23.744,2.132 -39.677,-26.27 -24.186,-45.7 5.108,-6.405 11.762,-9.274 19.72,-10.174 z"
             fill="#f4a261"
             fill-rule="evenodd"
             id="path4" /><path
             d="m 231.903,258.029 21.685,0.002 c 12.721,-0.001 23.194,-0.44 32.006,11.181 5.283,6.966 6.129,13.938 4.953,22.326 -9.497,-4.417 -12.291,0.779 -18.16,6.727 l -11.614,11.761 c -3.128,3.207 -7.418,5.763 -7.496,10.663 0.025,1.611 0.513,2.814 1.161,4.266 -3.957,0.144 -7.967,0.001 -11.931,0 l -23.553,0.005 c -4.745,-0.003 -8.524,0.033 -12.683,-2.635 -8.406,-5.393 -8.266,-11.877 -8.258,-20.478 l -0.001,-12.782 c 0.018,-16.429 10.766,-29.533 27.659,-30.921 2.069,-0.17 4.156,-0.118 6.232,-0.115 z"
             fill="#2a9d8f"
             fill-rule="evenodd"
             id="path5" /></g></g></g></g></svg>
