<svg width="837" height="831" xmlns="http://www.w3.org/2000/svg" xmlns:xlink="http://www.w3.org/1999/xlink" xml:space="preserve" overflow="hidden"><g transform="translate(-3168 -1201)"><path d="M3643.83 1746.86C3660.03 1742.33 3672.58 1759.75 3674.8 1773.94 3677.17 1789 3664.72 1799.62 3655.31 1809.36L3626.29 1838.9C3618.91 1846.31 3610.8 1853.51 3604.71 1862.02 3613.03 1867.45 3658.9 1914.92 3666.78 1925.72 3683.91 1949.17 3662.54 1978.54 3632.1 1972.28 3620.61 1967.77 3613.34 1957.68 3605.11 1949.04L3577.25 1919.83C3565.4 1907.17 3552.72 1895.17 3541.04 1882.4 3518.99 1858.3 3542.62 1839.39 3559.21 1822.86L3594.25 1787.63C3606.54 1775.1 3627.48 1745.79 3643.83 1746.86Z" fill="#F4A261" fill-rule="evenodd"/><path d="M3882.62 1747.22C3892.79 1746.66 3900.54 1748.59 3908.2 1755.97 3930.6 1777.54 3952.38 1800.12 3974.01 1822.48 4012.16 1861.93 4016.95 1860.18 3971.78 1905.31 3949.29 1927.78 3926.19 1949.62 3903.72 1972.13 3873.11 1984.94 3846.5 1954.05 3861.93 1930.43 3866.69 1923.15 3874.91 1917.06 3881.12 1910.93L3930.72 1862.12C3918.77 1846.86 3894.25 1824.48 3879.95 1810.46 3874.25 1804.87 3867.74 1799.47 3862.89 1793.12 3848.93 1774.84 3862.32 1751.83 3882.62 1747.22Z" fill="#E76F51" fill-rule="evenodd"/><path d="M3807.43 1708.16C3826.68 1707.45 3846.84 1720.36 3841.14 1742.27 3839.48 1748.63 3836.86 1755.02 3834.74 1761.26L3757.6 1986.41C3751.38 2004.92 3749.06 2023.97 3727.61 2030.38 3711.48 2035.04 3688.78 2017.15 3692.53 1999.76 3696.41 1981.79 3704.28 1964.24 3710.23 1946.82L3776.07 1754.65C3782.68 1735.66 3785.03 1714.1 3807.43 1708.16Z" fill="#5776A3" fill-rule="evenodd"/><path d="M3414.84 1201.12C3608.24 1196.1 3637.09 1449.29 3473.61 1500.77 3462.47 1504.28 3450.73 1505.9 3439.33 1508.43 3309.16 1520.15 3221.81 1363.94 3306.74 1257.08 3334.74 1221.85 3371.22 1206.07 3414.84 1201.12Z" fill="#F4A261" fill-rule="evenodd"/><path d="M3354.28 1512.16 3473.44 1512.17C3543.33 1512.17 3600.88 1509.75 3649.3 1573.75 3678.32 1612.12 3682.97 1650.51 3676.51 1696.71 3624.33 1672.39 3608.98 1701 3576.73 1733.76L3512.91 1798.53C3495.73 1816.19 3472.16 1830.27 3471.73 1857.26 3471.87 1866.13 3474.55 1872.76 3478.1 1880.75 3456.36 1881.54 3434.33 1880.76 3412.55 1880.75L3283.13 1880.78C3257.06 1880.77 3236.3 1880.96 3213.45 1866.27 3167.26 1836.57 3168.03 1800.86 3168.07 1753.49L3168.07 1683.09C3168.17 1592.61 3227.22 1520.44 3320.04 1512.79 3331.41 1511.86 3342.88 1512.14 3354.28 1512.16Z" fill="#2A9D8F" fill-rule="evenodd"/></g></svg>
