<svg width="512" height="579" xmlns="http://www.w3.org/2000/svg" xmlns:xlink="http://www.w3.org/1999/xlink" xml:space="preserve" overflow="hidden"><g transform="translate(-3701 -619)"><path d="M4148.33 1014.67 4148.35 1132.59C4148.36 1142.46 4149.16 1152.89 4145.76 1162.34 4134.35 1194.04 4113.02 1196.92 4085.1 1196.89L3775.45 1196.88C3762.05 1196.89 3747.18 1198.34 3734.41 1193.53 3699.16 1180.27 3701.53 1150.82 3701.53 1120.72L3701.53 695.56C3701.52 680.741 3699.35 661.817 3704.79 647.756 3716.15 618.445 3742.66 619.418 3767.93 619.553L3971.55 619.583C3975.15 619.581 3986.84 618.477 3989.67 619.587 3993.9 624.751 3999.06 629.148 4003.81 633.823L4137.34 767.213C4140.87 770.672 4145.41 774.062 4148.33 778.037 4148.87 810.096 4148.32 842.257 4148.32 874.331L4148.35 907.286C4148.37 912.313 4148.83 917.794 4148.33 922.777L4186.02 922.759C4216.68 922.69 4211.81 925.091 4211.81 952.819L4211.76 1001.92C4211.59 1018.42 4196 1014.69 4184.36 1014.69L4148.33 1014.67Z" fill="#F4A261" fill-rule="evenodd"/><path d="M3990.14 620.042C3994.35 625.191 3999.49 629.574 4004.22 634.235L4137.18 767.224C4140.69 770.672 4145.21 774.053 4148.12 778.016 4147.93 778.023 4147.74 778.025 4147.55 778.026L4044.31 778.041C4021.48 778.064 3997.49 773.979 3991.54 746.727 3989.86 739.042 3990.14 730.884 3990.13 723.051L3990.14 620.042Z" fill="#5776A3" fill-rule="evenodd"/><path d="M4040.99 1014.98 4041 1061.82C4041 1072.52 4045.98 1093.35 4031.32 1095.09 4025.5 1095.78 4010.87 1078.25 4007.01 1074.31L3933.62 1001.12C3897.24 965.261 3898.32 976.523 3936.81 938.182L4007.47 867.568C4013.13 861.856 4022.04 849.219 4030.96 849.108 4044.42 848.942 4041 870.635 4041 878.851L4040.99 923.148 4112.36 923.162C4124.37 923.159 4136.43 922.867 4148.43 923.148L4186.07 923.13C4216.7 923.062 4211.83 925.461 4211.83 953.169L4211.79 1002.24C4211.61 1018.72 4196.04 1015 4184.42 1015L4148.43 1014.98 4040.99 1014.98Z" fill="#2A9D8F" fill-rule="evenodd"/></g></svg>