<svg width="1812" height="1868" xmlns="http://www.w3.org/2000/svg" xmlns:xlink="http://www.w3.org/1999/xlink" xml:space="preserve" overflow="hidden"><g transform="translate(-1374 -298)"><path d="M2819.08 1575.85 2819.15 1956.75C2819.18 1988.63 2821.78 2022.32 2810.79 2052.84 2773.92 2155.24 2704.99 2164.54 2614.78 2164.44L1614.32 2164.41C1571.05 2164.43 1523 2169.13 1481.73 2153.6 1367.86 2110.76 1375.51 2015.62 1375.5 1918.4L1375.49 545.09C1375.47 497.225 1368.45 436.099 1386.05 390.678 1422.75 296.003 1508.4 299.144 1590.05 299.581L2247.92 299.677C2259.55 299.671 2297.32 296.105 2306.47 299.689 2320.14 316.372 2336.79 330.574 2352.15 345.673L2783.57 776.537C2794.98 787.709 2809.63 798.663 2819.08 811.501 2820.84 915.056 2819.05 1018.94 2819.06 1122.54L2819.16 1228.99C2819.19 1245.22 2820.71 1262.93 2819.08 1279.02L2940.84 1278.97C3039.92 1278.74 3024.17 1286.5 3024.18 1376.07L3024.03 1534.68C3023.46 1587.97 2973.08 1575.93 2935.49 1575.92L2819.08 1575.85Z" fill="#F4A261" fill-rule="evenodd"/><path d="M2306.19 299.042C2319.87 315.728 2336.53 329.933 2351.89 345.035L2783.59 775.988C2795.01 787.161 2809.67 798.118 2819.12 810.959 2818.5 810.983 2817.89 810.988 2817.27 810.993L2482.08 811.041C2407.93 811.114 2330.06 797.876 2310.73 709.568 2305.28 684.664 2306.18 658.227 2306.17 632.845L2306.19 299.042Z" fill="#5776A3" fill-rule="evenodd"/><path d="M2753.09 1293.85 2753.08 1142.46C2753.06 1107.9 2736.98 1040.57 2784.38 1034.96 2803.17 1032.73 2850.47 1089.38 2862.96 1102.1L3100.2 1338.62C3217.81 1454.52 3214.32 1418.12 3089.88 1542.03L2861.45 1770.23C2843.18 1788.69 2814.36 1829.53 2785.53 1829.89 2742.03 1830.43 2753.06 1760.32 2753.08 1733.77L2753.09 1590.61 2522.38 1590.57C2483.56 1590.58 2444.56 1591.52 2405.76 1590.61L2284.08 1590.67C2185.06 1590.89 2200.8 1583.14 2200.8 1493.59L2200.95 1335.01C2201.52 1281.74 2251.86 1293.78 2289.43 1293.78L2405.76 1293.85 2753.09 1293.85Z" fill="#2A9D8F" fill-rule="evenodd"/></g></svg>