<?xml version="1.0" encoding="UTF-8" standalone="no"?>
<svg
   width="200"
   height="200"
   xml:space="preserve"
   overflow="hidden"
   version="1.1"
   id="svg4"
   sodipodi:docname="explore.svg"
   inkscape:version="1.3.2 (091e20e, 2023-11-25, custom)"
   xmlns:inkscape="http://www.inkscape.org/namespaces/inkscape"
   xmlns:sodipodi="http://sodipodi.sourceforge.net/DTD/sodipodi-0.dtd"
   xmlns="http://www.w3.org/2000/svg"
   xmlns:svg="http://www.w3.org/2000/svg"><defs
     id="defs4" /><sodipodi:namedview
     id="namedview4"
     pagecolor="#ffffff"
     bordercolor="#666666"
     borderopacity="1.0"
     inkscape:showpageshadow="2"
     inkscape:pageopacity="0.0"
     inkscape:pagecheckerboard="true"
     inkscape:deskcolor="#d1d1d1"
     showguides="true"
     inkscape:zoom="5.6568542"
     inkscape:cx="67.351921"
     inkscape:cy="126.57211"
     inkscape:window-width="1892"
     inkscape:window-height="2009"
     inkscape:window-x="1919"
     inkscape:window-y="16"
     inkscape:window-maximized="0"
     inkscape:current-layer="svg4"><sodipodi:guide
       position="0,175"
       orientation="0,1"
       id="guide4"
       inkscape:locked="false"
       inkscape:label=""
       inkscape:color="rgb(0,134,229)" /><sodipodi:guide
       position="0,25"
       orientation="0,1"
       id="guide5"
       inkscape:locked="false"
       inkscape:label=""
       inkscape:color="rgb(0,134,229)" /><sodipodi:guide
       position="25,200"
       orientation="-1,0"
       id="guide6"
       inkscape:locked="false"
       inkscape:label=""
       inkscape:color="rgb(0,134,229)" /><sodipodi:guide
       position="175,200"
       orientation="-1,0"
       id="guide7"
       inkscape:locked="false"
       inkscape:label=""
       inkscape:color="rgb(0,134,229)" /></sodipodi:namedview><g
     style="overflow:hidden"
     id="g7"
     transform="matrix(1.2577952,0,0,1.2577952,4.9169099,4.9344034)"><g
       transform="translate(-765,-188)"
       id="g5"><path
         d="m 840.669,203.994 c 0.931,-0.075 1.897,-0.031 2.829,0.005 32.469,1.243 57.986,29.565 56.677,61.872 -0.974,24.026 -16.523,45.719 -39.191,53.944 -6.315,2.292 -13.601,3.81 -20.315,3.515 -15.624,0.538 -31.47,-6.771 -42.379,-17.713 -22.823,-22.893 -23.297,-61.175 -0.217,-84.088 11.398,-11.314 26.519,-17.6 42.596,-17.535 z"
         fill="#f4a261"
         id="path1" /><path
         d="m 815.082,284.337 c -9.827,-12.056 -10.049,-30.082 0.175,-41.964 10.444,-12.137 28.169,-15.023 42.026,-7.208 1.406,0.793 2.864,1.658 4.089,2.714 -3.62,2.03 -7.154,4.294 -10.682,6.483 l -11.664,7.206 c -1.234,0.774 -5.141,2.91 -5.935,3.738 -1.037,1.041 -3.151,4.978 -4.094,6.477 l -8.755,14.158 c -1.722,2.803 -3.485,5.562 -5.16,8.396 z"
         fill="#2a9d8f"
         id="path2" /><path
         d="m 861.372,237.879 c 0.643,-0.105 10.707,-6.295 11.662,-7.046 -1.159,2.765 -3.838,7.116 -5.415,9.742 -0.477,0.794 -1.174,1.583 -1.534,2.431 11.373,14.19 9.371,34.556 -4.907,45.983 -11.289,9.034 -30.182,10.001 -41.212,0.123 -4.025,2.3 -8.83,5.302 -12.596,7.909 1.23,-3.054 5.852,-9.888 7.712,-12.684 1.675,-2.834 3.438,-5.593 5.16,-8.396 l 8.755,-14.158 c 0.943,-1.499 3.057,-5.436 4.094,-6.477 0.794,-0.828 4.701,-2.964 5.935,-3.738 l 11.664,-7.206 c 3.528,-2.189 7.062,-4.453 10.682,-6.483 z"
         fill="#5776a3"
         id="path3" /><path
         d="m 861.372,237.879 c 0.643,-0.105 10.707,-6.295 11.662,-7.046 -1.159,2.765 -3.838,7.116 -5.415,9.742 -0.477,0.794 -1.174,1.583 -1.534,2.431 -2.988,5.606 -6.633,10.875 -9.921,16.308 l -5.178,8.515 c -0.789,1.284 -1.544,2.826 -2.535,3.952 -3.512,-4.66 -9.069,-9.825 -13.103,-14.184 -0.727,-0.786 -1.577,-1.465 -2.257,-2.291 0.794,-0.828 4.701,-2.964 5.935,-3.738 l 11.664,-7.206 c 3.528,-2.189 7.062,-4.453 10.682,-6.483 z"
         fill="#e76f51"
         id="path4" /><path
         d="m 815.082,284.337 c 1.675,-2.834 3.438,-5.593 5.16,-8.396 l 8.755,-14.158 c 0.943,-1.499 3.057,-5.436 4.094,-6.477 0.68,0.826 1.53,1.505 2.257,2.291 4.034,4.359 9.591,9.524 13.103,14.184 -6.598,3.837 -13.06,7.925 -19.571,11.908 l -5.771,3.473 c -1.037,0.621 -2.183,1.216 -3.143,1.95 -4.025,2.3 -8.83,5.302 -12.596,7.909 1.23,-3.054 5.852,-9.888 7.712,-12.684 z"
         fill="#6dbf98"
         id="path5" /></g></g></svg>
