<?xml version="1.0" encoding="UTF-8" standalone="no"?>
<svg
   width="200"
   height="200"
   xml:space="preserve"
   overflow="hidden"
   version="1.1"
   id="svg4"
   sodipodi:docname="find.svg"
   inkscape:version="1.3.2 (091e20e, 2023-11-25, custom)"
   xmlns:inkscape="http://www.inkscape.org/namespaces/inkscape"
   xmlns:sodipodi="http://sodipodi.sourceforge.net/DTD/sodipodi-0.dtd"
   xmlns="http://www.w3.org/2000/svg"
   xmlns:svg="http://www.w3.org/2000/svg"><defs
     id="defs4" /><sodipodi:namedview
     id="namedview4"
     pagecolor="#ffffff"
     bordercolor="#666666"
     borderopacity="1.0"
     inkscape:showpageshadow="2"
     inkscape:pageopacity="0.0"
     inkscape:pagecheckerboard="true"
     inkscape:deskcolor="#d1d1d1"
     showguides="true"
     inkscape:zoom="5.6568542"
     inkscape:cx="67.351921"
     inkscape:cy="126.57211"
     inkscape:window-width="1892"
     inkscape:window-height="2009"
     inkscape:window-x="1919"
     inkscape:window-y="16"
     inkscape:window-maximized="0"
     inkscape:current-layer="svg4"><sodipodi:guide
       position="0,175"
       orientation="0,1"
       id="guide4"
       inkscape:locked="false"
       inkscape:label=""
       inkscape:color="rgb(0,134,229)" /><sodipodi:guide
       position="0,25"
       orientation="0,1"
       id="guide5"
       inkscape:locked="false"
       inkscape:label=""
       inkscape:color="rgb(0,134,229)" /><sodipodi:guide
       position="25,200"
       orientation="-1,0"
       id="guide6"
       inkscape:locked="false"
       inkscape:label=""
       inkscape:color="rgb(0,134,229)" /><sodipodi:guide
       position="175,200"
       orientation="-1,0"
       id="guide7"
       inkscape:locked="false"
       inkscape:label=""
       inkscape:color="rgb(0,134,229)" /></sodipodi:namedview><g
     style="overflow:hidden"
     id="g7"
     transform="matrix(1.283795,0,0,1.2799966,2.9471043,3.5063581)"><g
       transform="translate(-1123,-18)"
       id="g3"><path
         d="m 1221.25,104.558 c 1.05,0.659 2.26,2.104 3.16,3.007 l 28.33,28.413 c 1.7,1.715 3.5,3.34 4.06,5.794 1.66,7.23 -6.46,12.948 -12.8,8.821 -1.54,-1.004 -2.84,-2.583 -4.15,-3.869 -10.24,-10.06 -20.18,-20.431 -30.43,-30.478 4.75,-3.138 8.56,-7.046 11.83,-11.688 z"
         fill="#5776a3"
         id="path1" /><path
         d="m 1209.42,116.246 c -14.71,9.333 -32.98,10.271 -48.16,1.084 -33.09,-20.0299 -26.06,-71.9283 12.91,-81.3714 10.97,-2.6572 23.41,-0.7091 33,5.1683 18.04,11.0572 26.9,33.8281 19.02,53.9167 -1.32,3.3819 -3.05,6.4244 -4.94,9.5144 -3.27,4.642 -7.08,8.55 -11.83,11.688 z"
         fill="#f4a261"
         id="path2" /><path
         d="m 1183.21,48.187 c 1.56,-0.0941 3.11,0.0481 4.67,0.2339 15.83,1.8887 27.29,14.6626 27.71,30.6418 0.43,16.4687 -13.25,31.1423 -29.78,31.5663 -19.08,0.678 -34.36,-15.2191 -32.36,-34.2985 1.68,-15.9606 14.06,-27.0794 29.76,-28.1435 z"
         fill="#2a9d8f"
         id="path3" /></g></g></svg>
