<svg width="607" height="609" xmlns="http://www.w3.org/2000/svg" xmlns:xlink="http://www.w3.org/1999/xlink" xml:space="preserve" overflow="hidden"><g transform="translate(-1526 -164)"><path d="M1816.84 164.206C1953.08 160.628 2074.04 241.967 2117.24 373.187 2129.8 411.333 2134.26 453.533 2131.13 493.661 2120.12 634.589 2005.16 756.939 1863.41 770.104 1855.69 770.821 1847.86 770.812 1840.19 772.047 1677.47 774.79 1539.39 654.857 1526.98 490.946 1515.41 338.075 1618.28 201.224 1767.93 170.318 1784.06 166.985 1800.44 165.456 1816.84 164.206Z" fill="#F4A261" fill-rule="evenodd"/><path d="M2013.82 299.06 2035.62 301.819C2039.42 302.308 2043.39 302.604 2047.14 303.423L1982.08 367.06C1977.75 359.294 1972.53 352.257 1966.13 346.072L2000.48 312.332C2004.97 307.964 2009.2 303.289 2013.82 299.06Z" fill="#E76F51" fill-rule="evenodd"/><path d="M1954.92 334.096C1970.81 318.537 1986.23 302.281 2002.22 286.624 2007.5 281.453 2012.38 275.79 2018.09 271.09 2016.62 280.307 2016.12 290.063 2013.83 299.089 2009.21 303.326 2004.97 308.009 2000.47 312.385L1966.08 346.182C1972.48 352.378 1977.71 359.427 1982.05 367.207 1997.29 387.941 2006.79 418.589 2010.14 443.923 2024.67 553.783 1938.3 650.113 1828.66 650.091 1738.95 650.073 1660.2 582.996 1648.71 493.222 1628.85 338.197 1796.4 231.986 1924.87 311.608 1935.71 318.332 1944.89 326.283 1954.92 334.096Z" fill="#5776A3" fill-rule="evenodd"/><path d="M1719.81 550.086C1680.73 501.737 1684.16 428.551 1722.57 380.904 1763.49 330.131 1840.44 315.708 1896.73 349.089 1905.42 354.247 1913.25 360.52 1921.09 366.864 1908.62 377.768 1897.13 390.27 1885.38 401.971 1853.13 370.378 1796.81 375.227 1766.35 406.651 1738.17 435.706 1733.8 482.001 1757.04 515.251 1744.44 526.526 1731.89 538.249 1719.81 550.086Z" fill="#E9C46A" fill-rule="evenodd"/><path d="M1896.95 414.113C1902.12 406.47 1924.61 385.946 1932.25 378.098 1937.65 383.97 1942.02 390.631 1946 397.521 2000.78 492.192 1930.98 608.833 1822.12 603.95 1785.19 602.294 1741.4 581.315 1720.1 550.333 1732.15 538.496 1744.67 526.773 1757.25 515.498 1772.79 535.626 1793.7 550.159 1819.81 551.868 1867.61 554.996 1912.8 523.389 1915.44 473.861 1916.55 453.034 1911.15 429.89 1896.95 414.113Z" fill="#F4A261" fill-rule="evenodd"/><path d="M1954.85 334.049C1970.76 318.499 1986.21 302.252 2002.21 286.603 2007.5 281.436 2012.38 275.775 2018.11 271.078 2016.63 280.29 2016.13 290.041 2013.84 299.062 2009.21 303.296 2004.96 307.976 2000.46 312.35L1966.03 346.129C1954.08 355.261 1944.93 368.899 1932.33 378.125 1924.67 385.971 1902.15 406.493 1896.97 414.134 1911.2 429.908 1916.6 453.048 1915.49 473.872 1912.84 523.391 1867.59 554.993 1819.72 551.866 1793.57 550.157 1772.62 535.626 1757.06 515.502 1733.83 482.258 1738.21 435.971 1766.37 406.922 1796.83 375.503 1853.13 370.656 1885.37 402.243 1897.12 390.544 1908.61 378.044 1921.07 367.142 1931.94 358.479 1943.85 343.966 1954.85 334.049Z" fill="#5776A3" fill-rule="evenodd"/><path d="M1813.03 484.927C1804.97 479.667 1811.47 463.981 1813.39 455.42 1815.69 445.163 1823.77 444.315 1828.27 453.24L1828.27 459.483C1826.53 462.981 1826.1 465.775 1825.83 469.615 1830.52 469.998 1835.35 469.86 1840.05 469.615 1849.72 471.466 1847.66 480.945 1844.28 483.763 1842.07 485.608 1817.51 485.026 1813.03 484.927Z" fill="#E76F51" fill-rule="evenodd"/><path d="M1954.94 334.069C1970.83 318.512 1986.26 302.257 2002.24 286.601 2007.52 281.431 2012.4 275.768 2018.11 271.069 2016.64 280.285 2016.14 290.04 2013.85 299.066 2009.23 303.301 2004.99 307.984 2000.5 312.36L1966.11 346.154C1954.17 355.291 1945.03 368.935 1932.45 378.166 1924.8 386.015 1902.31 406.547 1897.14 414.192 1881.19 428.97 1854.02 453.227 1840.28 469.83 1835.6 470.076 1830.79 470.214 1826.11 469.83 1826.38 465.979 1826.82 463.177 1828.55 459.669 1832.7 453.452 1839.05 448.088 1844.33 442.809 1857.91 429.226 1872.39 416.244 1885.55 402.295 1897.28 390.59 1908.76 378.085 1921.2 367.178 1932.06 358.51 1943.96 343.99 1954.94 334.069Z" fill="#2A9D8F" fill-rule="evenodd"/></g></svg>