<svg width="258" height="287" xmlns="http://www.w3.org/2000/svg" xmlns:xlink="http://www.w3.org/1999/xlink" xml:space="preserve" overflow="hidden"><g transform="translate(-2558 -1680)"><path d="M2663.32 1680.36 2777.89 1680.34C2794.93 1680.34 2814.63 1680.6 2814.99 1704.49 2815.24 1721.68 2814.95 1738.92 2814.95 1756.11L2814.97 1919.21C2815 1969.43 2811.62 1966.06 2767.23 1966.04L2708.9 1966.05 2591.74 1966.08C2566.46 1966.08 2558.47 1961.68 2558.27 1934.46L2558.27 1726.87C2558.25 1710.96 2555.08 1685.75 2576.54 1680.99 2583.55 1679.44 2597.37 1680.37 2605.03 1680.37L2663.32 1680.36Z" fill="#5776A3" fill-rule="evenodd"/><path d="M2677.1 1873.11 2723.1 1873.11 2723.1 1940.94C2722.29 1941.33 2681.51 1940.94 2677.1 1940.94L2677.1 1873.11Z" fill="#F4A261" fill-rule="evenodd"/><path d="M2616.3 1836.11C2630.87 1836.33 2645.5 1836.11 2660.08 1836.11L2660.08 1941.11C2650.69 1940.09 2625.89 1940.51 2616.3 1941.11L2616.3 1871.93C2616.3 1860.05 2615.81 1847.97 2616.3 1836.11Z" fill="#2A9D8F" fill-rule="evenodd"/><path d="M2736.11 1807.11 2782.11 1807.11 2782.11 1940.92C2766.83 1941.33 2751.41 1940.93 2736.11 1940.92L2736.11 1807.11Z" fill="#E76F51" fill-rule="evenodd"/><path d="M2587.09 1706.24 2719.71 1706.24C2741.82 1706.24 2763.99 1705.86 2786.09 1706.24L2786.09 1778.07 2587.09 1778.07 2587.09 1706.24Z" fill="#E9C46A" fill-rule="evenodd"/></g></svg>