<svg width="274" height="257" xmlns="http://www.w3.org/2000/svg" xmlns:xlink="http://www.w3.org/1999/xlink" xml:space="preserve" overflow="hidden"><g transform="translate(-2064 -1768)"><path d="M2224.13 1768.04 2304.91 1768.04C2314.04 1785.19 2326.94 1803.15 2337.13 1820.04 2326.02 1819.77 2314.82 1820.04 2303.7 1820.04L2232.4 1820.04 2232.4 1820.04C2231.97 1815.93 2231.03 1811.76 2230.36 1807.67L2226.73 1785.04C2225.81 1779.41 2224.72 1773.71 2224.13 1768.04Z" fill="#E76F51" fill-rule="evenodd"/><path d="M2095.46 1768.04 2177.05 1768.04C2176.31 1777.06 2173.97 1787.19 2172.4 1796.15 2171.02 1804.06 2170.13 1812.25 2168.16 1820.04L2168.16 1820.04 2074.79 1820.04C2071.25 1820.04 2067.56 1819.75 2064.05 1820.04 2065.08 1816.24 2068.84 1811.26 2070.92 1807.82L2091.48 1774.07C2092.67 1772.17 2093.87 1769.6 2095.46 1768.04Z" fill="#E76F51" fill-rule="evenodd"/><path d="M2177.42 1768.18 2218.67 1768.16C2220.46 1768.14 2222.35 1768 2224.13 1768.18 2224.71 1773.92 2225.8 1779.69 2226.72 1785.39L2230.35 1808.3C2231.02 1812.43 2231.95 1816.65 2232.38 1820.81L2232.38 1820.81 2303.6 1820.81C2314.7 1820.81 2325.88 1820.54 2336.98 1820.81 2337.23 1823.79 2336.99 1826.93 2336.99 1829.94L2336.99 2000.81C2337 2024.41 2335.88 2023.94 2310.35 2023.92L2088.2 2023.92C2079.85 2023.92 2064.93 2026.22 2064.27 2013.95 2063.9 2006.88 2064.23 1999.62 2064.23 1992.53L2064.23 1820.81C2067.74 1820.51 2071.44 1820.8 2074.98 1820.81L2168.51 1820.81 2168.51 1820.81C2170.49 1812.93 2171.38 1804.64 2172.77 1796.62 2174.34 1787.56 2176.68 1777.31 2177.42 1768.18Z" fill="#F4A261" fill-rule="evenodd"/><path d="M2154.25 1908.11C2159.56 1913.41 2164.7 1919.28 2170.07 1924.41 2163.05 1932.14 2158.38 1941.61 2159.25 1952.11 2151.86 1952.02 2144.47 1952.1 2137.08 1952.11 2136.85 1936.4 2142.13 1919.12 2154.25 1908.11Z" fill="#A2BC82" fill-rule="evenodd"/><path d="M2154.08 1908.3C2165 1897.23 2179.51 1890.44 2194.92 1889.29 2196.08 1889.2 2197.94 1888.91 2199.05 1889.29L2198.76 1889.42C2198.7 1891.08 2199.07 1892.76 2199.08 1894.43L2199.05 1912.57C2187.87 1912.1 2177.6 1917.36 2169.69 1925.1 2164.39 1919.81 2159.32 1913.77 2154.08 1908.3Z" fill="#E76F51" fill-rule="evenodd"/><path d="M2198.86 1912.14C2209.14 1912.27 2219 1916.01 2227.09 1922.41 2219.68 1928.4 2209.29 1936.39 2201.38 1941.61 2196.37 1944.92 2190.79 1942.75 2190.05 1953.01 2186.72 1953.23 2183.26 1953.02 2179.92 1953.02L2159.19 1953.01C2158.34 1942.25 2162.9 1932.54 2169.77 1924.61 2177.6 1916.91 2187.78 1911.67 2198.86 1912.14Z" fill="#E2E0DD" fill-rule="evenodd"/><path d="M2198.91 1912.18 2198.94 1894.21C2198.93 1892.55 2198.56 1890.88 2198.62 1889.24L2198.91 1889.11C2236.35 1888.96 2262.57 1915.91 2265.11 1952.87L2241.71 1952.87C2231.19 1952.87 2220.59 1953.15 2210.07 1952.87 2206.13 1966.59 2191.59 1963.7 2190.1 1952.87 2190.85 1942.65 2196.42 1944.82 2201.43 1941.53 2209.33 1936.32 2219.72 1928.37 2227.12 1922.41 2219.03 1916.03 2209.18 1912.31 2198.91 1912.18Z" fill="#5776A3" fill-rule="evenodd"/><path d="M2227.39 1922.38 2236.44 1915.45C2238.27 1914.02 2240.08 1912.23 2242.09 1911.11 2239.69 1915.27 2234.17 1921.67 2230.99 1925.56 2237.63 1932.81 2242.29 1942.85 2242.09 1952.87 2231.49 1952.87 2220.81 1953.15 2210.21 1952.87 2206.24 1966.6 2191.6 1963.71 2190.1 1952.87 2190.85 1942.64 2196.47 1944.81 2201.51 1941.51 2209.47 1936.31 2219.93 1928.35 2227.39 1922.38Z" fill="#E76F51" fill-rule="evenodd"/><path d="M2210.11 1952.99C2211.77 1949.32 2227.11 1929.54 2230.95 1925.12 2237.61 1932.52 2242.29 1942.76 2242.1 1952.99 2231.46 1952.99 2220.74 1953.28 2210.11 1952.99Z" fill="#E2E0DD" fill-rule="evenodd"/><path d="M2177.02 1768.14 2218.35 1768.12C2220.14 1768.1 2222.04 1767.97 2223.82 1768.14 2224.41 1773.86 2225.5 1779.6 2226.42 1785.28L2230.06 1808.08C2230.73 1812.2 2231.66 1816.4 2232.09 1820.54L2232.09 1820.54 2232.09 1866.05 2168.09 1866.05 2168.09 1820.54 2168.09 1820.54C2170.07 1812.69 2170.96 1804.44 2172.35 1796.46 2173.93 1787.44 2176.27 1777.23 2177.02 1768.14Z" fill="#2A9D8F" fill-rule="evenodd"/></g></svg>