<?xml version="1.0" encoding="UTF-8" standalone="no"?>
<svg
   width="200"
   height="200"
   xml:space="preserve"
   overflow="hidden"
   version="1.1"
   id="svg4"
   sodipodi:docname="module-construction-icon.svg"
   inkscape:version="1.3.2 (091e20e, 2023-11-25, custom)"
   xmlns:inkscape="http://www.inkscape.org/namespaces/inkscape"
   xmlns:sodipodi="http://sodipodi.sourceforge.net/DTD/sodipodi-0.dtd"
   xmlns="http://www.w3.org/2000/svg"
   xmlns:svg="http://www.w3.org/2000/svg"><defs
     id="defs4" /><sodipodi:namedview
     id="namedview4"
     pagecolor="#ffffff"
     bordercolor="#666666"
     borderopacity="1.0"
     inkscape:showpageshadow="2"
     inkscape:pageopacity="0.0"
     inkscape:pagecheckerboard="true"
     inkscape:deskcolor="#d1d1d1"
     showguides="true"
     inkscape:zoom="5.6568542"
     inkscape:cx="67.351921"
     inkscape:cy="126.57211"
     inkscape:window-width="1892"
     inkscape:window-height="2009"
     inkscape:window-x="1919"
     inkscape:window-y="16"
     inkscape:window-maximized="0"
     inkscape:current-layer="svg4"><sodipodi:guide
       position="0,175"
       orientation="0,1"
       id="guide4"
       inkscape:locked="false"
       inkscape:label=""
       inkscape:color="rgb(0,134,229)" /><sodipodi:guide
       position="0,25"
       orientation="0,1"
       id="guide5"
       inkscape:locked="false"
       inkscape:label=""
       inkscape:color="rgb(0,134,229)" /><sodipodi:guide
       position="25,200"
       orientation="-1,0"
       id="guide6"
       inkscape:locked="false"
       inkscape:label=""
       inkscape:color="rgb(0,134,229)" /><sodipodi:guide
       position="175,200"
       orientation="-1,0"
       id="guide7"
       inkscape:locked="false"
       inkscape:label=""
       inkscape:color="rgb(0,134,229)" /></sodipodi:namedview><g
     id="g4"
     style="display:inline"
     transform="matrix(2.2206964,0,0,2.2207002,-168.95838,-238.54142)"><g
       transform="matrix(0.6386123,0,0,0.6386123,-134.04098,93.106108)"
       id="g10"
       style="display:inline"><path
         d="m 408.692,43.213 h 31.237 c 3.533,6.7309 8.518,13.7828 12.46,20.412 -4.298,-0.1062 -8.627,0.0012 -12.927,0.0015 L 411.89,63.625 v 0 c -0.166,-1.6135 -0.528,-3.2489 -0.787,-4.8538 l -1.405,-8.884 c -0.356,-2.2101 -0.779,-4.4488 -1.006,-6.6742 z"
         fill="#e76f51"
         id="path1"
         inkscape:export-filename="module-construction-icon.svg"
         inkscape:export-xdpi="254.105"
         inkscape:export-ydpi="254.105" /><path
         d="m 358.963,43.213 h 31.647 c -0.289,3.5386 -1.194,7.5168 -1.803,11.0314 -0.538,3.1073 -0.881,6.3232 -1.647,9.3806 v 0 l -36.215,-0.0015 c -1.371,-0.0014 -2.802,-0.1147 -4.163,0.0015 0.398,-1.4935 1.857,-3.4485 2.661,-4.7999 l 7.978,-13.2465 c 0.461,-0.745 0.927,-1.7547 1.542,-2.3656 z"
         fill="#e76f51"
         id="path2" /><path
         d="m 390.61,43.213 15.97,-0.0096 c 0.692,-0.0058 1.424,-0.0595 2.112,0.0096 0.227,2.2254 0.65,4.4641 1.006,6.6742 l 1.405,8.884 c 0.259,1.6049 0.621,3.2403 0.787,4.8538 v 0 l 27.572,0.0015 c 4.3,-3e-4 8.629,-0.1077 12.927,-0.0015 0.095,1.1573 0.003,2.375 10e-4,3.5399 l 0.001,66.2701 c 0.004,9.156 -0.428,8.972 -10.315,8.964 l -86.013,0.001 c -3.233,0 -9.009,0.893 -9.263,-3.866 -0.147,-2.742 -0.018,-5.56 -0.018,-8.31 V 63.625 c 1.361,-0.1162 2.792,-0.0029 4.163,-0.0015 l 36.215,0.0015 v 0 c 0.766,-3.0574 1.109,-6.2733 1.647,-9.3806 0.609,-3.5146 1.514,-7.4928 1.803,-11.0314 z"
         fill="#f4a261"
         id="path3" /><path
         d="m 390.61,43.213 15.97,-0.0096 c 0.692,-0.0058 1.424,-0.0595 2.112,0.0096 0.227,2.2254 0.65,4.4641 1.006,6.6742 l 1.405,8.884 c 0.259,1.6049 0.621,3.2403 0.787,4.8538 v 0 17.7304 h -24.73 v -17.7304 0 c 0.766,-3.0574 1.109,-6.2733 1.647,-9.3806 0.609,-3.5146 1.514,-7.4928 1.803,-11.0314 z"
         fill="#2a9d8f"
         id="path10" /></g><path
       fill="#27272d"
       d="m 139.13481,143.57832 0.48631,-0.27018 c 1.13326,-0.61611 2.27883,-1.26392 3.40594,-1.89223 l 4.52907,-2.51621 0.55252,-0.30696 c 0.51459,-0.32273 1.62841,-0.90636 2.20504,-1.22597 l 3.4835,7.83797 c -0.69207,0.38465 -2.35711,1.35563 -2.96288,1.64666 -0.31185,0.15644 -1.31814,0.73518 -1.66842,0.92864 l -3.74495,2.08115 c -0.30611,0.17207 -1.38752,0.82847 -1.59221,0.88229 v 0 l -5.87304,3.26374 c -0.95024,0.52807 -2.16494,1.23931 -3.10783,1.72575 -0.12737,0.0909 -1.02775,0.576 -1.24646,0.69674 l -13.37379,7.42581 c -0.65581,0.40877 -2.15032,1.19409 -2.89902,1.61004 l -6.27714,3.48795 c 0.023,-0.33275 0.804,-2.3797 0.96117,-2.82809 l 2.45522,-7.00744 c 0.25224,-0.73208 0.62511,-1.59924 0.83082,-2.29713 0.99583,-0.4958 2.88644,-1.60725 3.94439,-2.19441 l 3.46344,-1.92039 c 0.52842,-0.29297 1.27559,-0.68973 1.78222,-0.99089 0.35929,-0.27965 2.88305,-1.60081 3.47797,-1.93119 z"
       id="path6-6"
       style="fill:#4d4d4d;fill-opacity:1;stroke-width:0.163164"
       sodipodi:nodetypes="ccccccccccsccccccccccccccc" /><path
       fill="#27272d"
       d="m 148.10865,138.59274 c 0.51459,-0.32273 1.62841,-0.90636 2.20504,-1.22597 l 4.54273,-2.49716 -8.5e-4,10.17356 c -0.69207,0.38464 -3.41545,1.51726 -4.02121,1.80829 -0.31186,0.15645 -1.31814,0.73519 -1.66842,0.92865 l -3.74495,2.08114 c -0.30611,0.17207 -1.38752,0.82847 -1.59222,0.8823 0.74004,-2.89442 2.40729,-6.53181 3.41505,-9.52373 0.24232,-0.71975 0.76485,-1.98293 0.86483,-2.62708 z"
       id="path7-0"
       style="fill:#4d4d4d;fill-opacity:1;stroke-width:0.163164"
       sodipodi:nodetypes="cccccccccc" /><path
       fill="#fcdd4c"
       d="m 115.29871,156.82091 c 0.99583,-0.4958 2.88644,-1.60725 3.94439,-2.1944 l 3.46343,-1.92039 c 0.52843,-0.29298 1.2756,-0.68973 1.78222,-0.99089 -0.0462,0.46695 -0.77086,2.28883 -0.97928,2.85104 l -2.3063,6.33169 c -0.2367,0.67281 -0.86146,2.35614 -0.97551,2.95763 -0.65581,0.40876 -2.15032,1.19408 -2.89902,1.61003 l -6.27714,3.48796 c 0.023,-0.33275 0.804,-2.3797 0.96117,-2.8281 l 2.45522,-7.00743 c 0.25224,-0.73208 0.62511,-1.59924 0.83082,-2.29714 z"
       id="path8-5"
       style="fill:#e9c46a;fill-opacity:1;stroke-width:0.163164" /><path
       fill="#fcdd4c"
       d="m 139.13481,143.57832 0.48631,-0.27018 c 1.13326,-0.61611 2.27883,-1.26392 3.40594,-1.89223 l 4.52907,-2.51621 0.55252,-0.30696 c -0.1,0.64415 -0.62251,1.90733 -0.86483,2.62708 -1.00776,2.99192 -2.67501,6.62931 -3.41505,9.52373 v 0 l -5.87303,3.26374 c -0.95024,0.52807 -2.16494,1.2393 -3.10783,1.72575 0.12001,-0.53281 0.37424,-1.2234 0.56501,-1.77398 l 2.6702,-7.47097 c 0.35382,-0.9971 0.63996,-1.9043 1.05169,-2.90977 z"
       id="path9-3"
       style="fill:#e9c46a;fill-opacity:1;stroke-width:0.163164" /><path
       fill="#27272d"
       d="m 97.163993,166.896 c 0.409224,-0.1978 1.017669,-0.5566 1.427223,-0.78747 l 2.256204,-1.25893 c 0.43877,-0.27651 1.56585,-0.87068 2.08086,-1.15666 l 9.6859,-5.38073 c 0.78518,-0.43696 1.90711,-1.09939 2.68454,-1.49129 -0.20572,0.69789 -0.57859,1.56505 -0.83082,2.29713 l -2.45523,7.00744 c -0.15716,0.44839 -0.93821,2.49534 -0.96116,2.82809 -0.26927,0.18537 -1.57201,0.87508 -1.9694,1.09529 l -4.53811,2.52008 -7.218446,4.01034 c -0.238019,0.12419 -0.516598,0.28586 -0.753966,0.41888 l -6.04017,3.35589 c -0.917362,0.50994 -2.089272,1.19711 -2.992363,1.66231 l 2.244655,-11.02011 c 0.591581,-0.32926 1.390186,-0.79781 1.977648,-1.09872 0.08097,-0.0715 1.005616,-0.56172 1.176702,-0.65374 1.3707,-0.76197 2.85131,-1.61229 4.225938,-2.3478 z"
       id="path13"
       style="fill:#4d4d4d;fill-opacity:1;stroke-width:0.163164"
       sodipodi:nodetypes="scccccccccccccccccss" /><path
       fill="#fcdd4c"
       d="m 97.163993,166.896 c 0.409224,-0.1978 1.017669,-0.5566 1.427223,-0.78747 l 2.256204,-1.25893 c -0.940771,3.77949 -3.027947,8.23453 -4.275836,12.14857 l -6.040171,3.35588 c -0.917361,0.50994 -2.089272,1.19712 -2.992363,1.66231 -0.112204,-0.0511 0.705186,-9.11164 0.292972,-9.66133 l 1.951684,-1.35878 c 0.59158,-0.32926 1.390186,-0.79781 1.977647,-1.09871 0.08098,-0.0715 1.005617,-0.56172 1.176702,-0.65374 1.370701,-0.76198 2.851311,-1.6123 4.225938,-2.3478 z"
       id="path14"
       style="fill:#e9c46a;fill-opacity:1;stroke-width:0.163164"
       sodipodi:nodetypes="ccccccccccc" /><path
       fill="#27272d"
       d="m 89.783706,170.99625 c 0.59158,-0.32926 1.390186,-0.79781 1.977647,-1.09871 -0.268908,0.95871 -0.741901,2.08462 -1.085947,3.06583 l -2.284283,6.6002 c -0.273406,0.80538 -0.608316,1.65479 -0.852073,2.45279 -0.112204,-0.0511 -0.149234,-8.32055 -0.193163,-9.67521 z"
       id="path15"
       style="fill:#4d4d4d;fill-opacity:1;stroke-width:0.163164"
       sodipodi:nodetypes="ccccccc" /><path
       fill="#27272d"
       d="m 138.99175,173.19086 0.48637,0.26935 c 1.1334,0.61422 2.27911,1.26005 3.40635,1.88642 l 4.52963,2.50849 0.55259,0.30602 c 0.51465,0.32173 1.62861,0.90358 2.20531,1.22221 l 3.48392,-7.81392 c -0.69215,-0.38346 -2.3574,-1.35146 -2.96324,-1.6416 -0.31189,-0.15597 -1.3183,-0.73293 -1.66862,-0.9258 l -3.74541,-2.07476 c -0.30614,-0.17154 -1.38769,-0.82592 -1.59241,-0.87958 v 0 l -5.87376,-3.25372 c -0.95035,-0.52646 -2.1652,-1.23551 -3.1082,-1.72046 -0.12739,-0.0907 -1.02788,-0.57423 -1.24662,-0.6946 l -13.37542,-7.40302 c -0.6559,-0.40751 -2.15059,-1.19042 -2.89938,-1.6051 l -6.27791,-3.47725 c 0.023,0.33173 0.8041,2.3724 0.96129,2.81942 l 2.45552,6.98593 c 0.25227,0.72983 0.62518,1.59433 0.83092,2.29008 0.99595,0.49428 2.88679,1.60232 3.94487,2.18768 l 3.46386,1.91449 c 0.5285,0.29208 1.27576,0.68761 1.78244,0.98785 0.35934,0.27879 2.88341,1.5959 3.4784,1.92527 z"
       id="path6-6-2"
       style="fill:#4d4d4d;fill-opacity:1;stroke-width:0.162924"
       sodipodi:nodetypes="ccccccccccsccccccccccccccc" /><path
       fill="#27272d"
       d="m 147.96669,178.16114 c 0.51465,0.32173 1.62861,0.90358 2.20531,1.22221 l 4.65904,2.29932 0.0405,-9.57236 c -0.69215,-0.38346 -3.57296,-1.89241 -4.1788,-2.18255 -0.31189,-0.15596 -1.3183,-0.73293 -1.66863,-0.92579 l -3.7454,-2.07476 c -0.30615,-0.17154 -1.38769,-0.82593 -1.59241,-0.87959 0.74013,2.88554 2.40758,6.51176 3.41546,9.4945 0.24235,0.71754 0.76495,1.97685 0.86494,2.61902 z"
       id="path7-0-3"
       style="fill:#4d4d4d;fill-opacity:1;stroke-width:0.162924"
       sodipodi:nodetypes="cccccccccc" /><path
       fill="#fcdd4c"
       d="m 115.15273,159.98891 c 0.99595,0.49428 2.88679,1.60232 3.94487,2.18767 l 3.46386,1.91449 c 0.5285,0.29208 1.27575,0.68762 1.78244,0.98785 -0.0462,-0.46552 -0.77096,-2.28181 -0.97941,-2.84229 l -2.30658,-6.31225 c -0.23673,-0.67075 -0.86156,-2.34891 -0.97562,-2.94856 -0.6559,-0.40751 -2.15059,-1.19041 -2.89938,-1.60509 l -6.27791,-3.47725 c 0.023,0.33173 0.8041,2.3724 0.96129,2.81942 l 2.45552,6.98593 c 0.25227,0.72983 0.62518,1.59432 0.83092,2.29008 z"
       id="path8-5-8"
       style="fill:#e9c46a;fill-opacity:1;stroke-width:0.162924" /><path
       fill="#fcdd4c"
       d="m 138.99175,173.19086 0.48637,0.26935 c 1.1334,0.61422 2.27911,1.26005 3.40635,1.88642 l 4.52963,2.50849 0.55259,0.30602 c -0.1,-0.64217 -0.62259,-1.90148 -0.86494,-2.61902 -1.00788,-2.98274 -2.67533,-6.60896 -3.41546,-9.4945 v 0 l -5.87376,-3.25372 c -0.95035,-0.52645 -2.1652,-1.2355 -3.1082,-1.72045 0.12002,0.53116 0.37428,1.21963 0.56507,1.76853 l 2.67053,7.44804 c 0.35387,0.99404 0.64004,1.89845 1.05182,2.90084 z"
       id="path9-3-1"
       style="fill:#e9c46a;fill-opacity:1;stroke-width:0.162924" /><path
       fill="#27272d"
       d="m 97.015792,149.94474 c 0.409274,0.19719 1.017794,0.55489 1.427398,0.78505 l 2.25648,1.25507 c 0.43883,0.27566 1.56604,0.86801 2.08111,1.15311 l 9.68709,5.36421 c 0.78528,0.43563 1.90734,1.09603 2.68487,1.48672 -0.20574,-0.69575 -0.57866,-1.56025 -0.83093,-2.29008 l -2.45552,-6.98593 c -0.15718,-0.44702 -0.93833,-2.48769 -0.96128,-2.81942 -0.26931,-0.1848 -1.5722,-0.87239 -1.96964,-1.09192 l -4.53867,-2.51235 -7.219327,-3.99803 c -0.238049,-0.12381 -0.516661,-0.28499 -0.754058,-0.4176 l -6.040911,-3.34558 c -0.917473,-0.50838 -2.089528,-1.19344 -2.992729,-1.65721 l 2.24493,10.98628 c 0.591653,0.32826 1.390357,0.79537 1.97789,1.09535 0.08098,0.0713 1.00574,0.56 1.176846,0.65173 1.370868,0.75964 2.85166,1.60735 4.226456,2.3406 z"
       id="path13-8"
       style="fill:#4d4d4d;fill-opacity:1;stroke-width:0.162924"
       sodipodi:nodetypes="scccccccccccccccccss" /><path
       fill="#fcdd4c"
       d="m 97.015792,149.94474 c 0.409274,0.19719 1.017794,0.55489 1.427398,0.78505 l 2.25648,1.25507 c -0.940886,-3.76789 -3.028318,-8.20926 -4.27636,-12.11128 l -6.04091,-3.34559 c -0.917474,-0.50837 -2.089528,-1.19344 -2.99273,-1.65721 -0.112217,0.0509 0.705273,9.08369 0.293009,9.63168 l 1.951922,1.35461 c 0.591653,0.32826 1.390356,0.79536 1.97789,1.09535 0.08098,0.0713 1.00574,0.55999 1.176846,0.65173 1.370868,0.75964 2.851659,1.60735 4.226455,2.34059 z"
       id="path14-1"
       style="fill:#e9c46a;fill-opacity:1;stroke-width:0.162924"
       sodipodi:nodetypes="ccccccccccc" /><path
       fill="#27272d"
       d="m 89.634601,145.85707 c 0.591653,0.32826 1.390356,0.79536 1.97789,1.09535 -0.268942,-0.95577 -0.741993,-2.07823 -1.08608,-3.05642 l -2.284564,-6.57995 c -0.273439,-0.80291 -0.60839,-1.64971 -0.852177,-2.44527 -0.112217,0.0509 0.0078,8.30329 -0.0072,9.65379 z"
       id="path15-7"
       style="fill:#4d4d4d;fill-opacity:1;stroke-width:0.162924"
       sodipodi:nodetypes="ccccccc" /></g></svg>
