<?xml version="1.0" encoding="UTF-8" standalone="no"?>
<svg
   width="200"
   height="200"
   xml:space="preserve"
   overflow="hidden"
   version="1.1"
   id="svg4"
   sodipodi:docname="module.svg"
   inkscape:version="1.3.2 (091e20e, 2023-11-25, custom)"
   xmlns:inkscape="http://www.inkscape.org/namespaces/inkscape"
   xmlns:sodipodi="http://sodipodi.sourceforge.net/DTD/sodipodi-0.dtd"
   xmlns="http://www.w3.org/2000/svg"
   xmlns:svg="http://www.w3.org/2000/svg"><defs
     id="defs4" /><sodipodi:namedview
     id="namedview4"
     pagecolor="#ffffff"
     bordercolor="#666666"
     borderopacity="1.0"
     inkscape:showpageshadow="2"
     inkscape:pageopacity="0.0"
     inkscape:pagecheckerboard="true"
     inkscape:deskcolor="#d1d1d1"
     showguides="true"
     inkscape:zoom="5.6568542"
     inkscape:cx="67.351921"
     inkscape:cy="126.57211"
     inkscape:window-width="1892"
     inkscape:window-height="2009"
     inkscape:window-x="1919"
     inkscape:window-y="16"
     inkscape:window-maximized="0"
     inkscape:current-layer="svg4"><sodipodi:guide
       position="0,175"
       orientation="0,1"
       id="guide4"
       inkscape:locked="false"
       inkscape:label=""
       inkscape:color="rgb(0,134,229)" /><sodipodi:guide
       position="0,25"
       orientation="0,1"
       id="guide5"
       inkscape:locked="false"
       inkscape:label=""
       inkscape:color="rgb(0,134,229)" /><sodipodi:guide
       position="25,200"
       orientation="-1,0"
       id="guide6"
       inkscape:locked="false"
       inkscape:label=""
       inkscape:color="rgb(0,134,229)" /><sodipodi:guide
       position="175,200"
       orientation="-1,0"
       id="guide7"
       inkscape:locked="false"
       inkscape:label=""
       inkscape:color="rgb(0,134,229)" /></sodipodi:namedview><g
     style="overflow:hidden"
     id="g7"
     transform="matrix(1.41908,0,0,1.41908,-7.2551914,-6.178794)"><g
       transform="translate(-324,-18)"
       id="g10"><path
         d="m 408.692,43.213 h 31.237 c 3.533,6.7309 8.518,13.7828 12.46,20.412 -4.298,-0.1062 -8.627,0.0012 -12.927,0.0015 L 411.89,63.625 v 0 c -0.166,-1.6135 -0.528,-3.2489 -0.787,-4.8538 l -1.405,-8.884 c -0.356,-2.2101 -0.779,-4.4488 -1.006,-6.6742 z"
         fill="#e76f51"
         id="path1" /><path
         d="m 358.963,43.213 h 31.647 c -0.289,3.5386 -1.194,7.5168 -1.803,11.0314 -0.538,3.1073 -0.881,6.3232 -1.647,9.3806 v 0 l -36.215,-0.0015 c -1.371,-0.0014 -2.802,-0.1147 -4.163,0.0015 0.398,-1.4935 1.857,-3.4485 2.661,-4.7999 l 7.978,-13.2465 c 0.461,-0.745 0.927,-1.7547 1.542,-2.3656 z"
         fill="#e76f51"
         id="path2" /><path
         d="m 390.61,43.213 15.97,-0.0096 c 0.692,-0.0058 1.424,-0.0595 2.112,0.0096 0.227,2.2254 0.65,4.4641 1.006,6.6742 l 1.405,8.884 c 0.259,1.6049 0.621,3.2403 0.787,4.8538 v 0 l 27.572,0.0015 c 4.3,-3e-4 8.629,-0.1077 12.927,-0.0015 0.095,1.1573 0.003,2.375 10e-4,3.5399 l 0.001,66.2701 c 0.004,9.156 -0.428,8.972 -10.315,8.964 l -86.013,0.001 c -3.233,0 -9.009,0.893 -9.263,-3.866 -0.147,-2.742 -0.018,-5.56 -0.018,-8.31 V 63.625 c 1.361,-0.1162 2.792,-0.0029 4.163,-0.0015 l 36.215,0.0015 v 0 c 0.766,-3.0574 1.109,-6.2733 1.647,-9.3806 0.609,-3.5146 1.514,-7.4928 1.803,-11.0314 z"
         fill="#f4a261"
         id="path3" /><path
         d="m 381.696,97.5522 c 2.017,2.0754 3.966,4.3688 6.004,6.3758 -2.666,3.024 -4.438,6.727 -4.106,10.831 -2.803,-0.034 -5.609,-0.003 -8.412,0 -0.087,-6.142 1.917,-12.899 6.514,-17.2068 z"
         fill="#a2bc82"
         id="path4" /><path
         d="m 381.696,97.5522 c 4.199,-4.1997 9.78,-6.7761 15.705,-7.2138 0.449,-0.033 1.161,-0.1459 1.591,-9e-4 l -0.115,0.0496 c -0.021,0.6302 0.122,1.2679 0.125,1.9031 l -0.01,6.8826 c -4.302,-0.1787 -8.252,1.8192 -11.292,4.7552 -2.038,-2.007 -3.987,-4.3004 -6.004,-6.3758 z"
         fill="#e76f51"
         id="path5" /><path
         d="m 398.992,99.1728 c 3.99,0.0507 7.817,1.4762 10.957,3.9182 -2.875,2.283 -6.908,5.33 -9.978,7.322 -1.946,1.262 -4.112,0.433 -4.401,4.346 -1.29,0.083 -2.635,0.005 -3.932,0.004 l -8.044,-0.004 c -0.332,-4.104 1.44,-7.807 4.106,-10.831 3.04,-2.936 6.99,-4.9339 11.292,-4.7552 z"
         fill="#e2e0dd"
         id="path6" /><path
         d="m 398.992,99.1728 0.01,-6.8826 c -0.003,-0.6352 -0.146,-1.2729 -0.125,-1.9031 l 0.115,-0.0496 c 14.542,-0.0548 24.731,10.2645 25.715,24.4215 h -9.087 c -4.09,0 -8.207,0.107 -12.293,0 -1.531,5.252 -7.179,4.146 -7.757,0 0.289,-3.913 2.455,-3.084 4.401,-4.346 3.07,-1.992 7.103,-5.039 9.978,-7.322 -3.14,-2.442 -6.967,-3.8675 -10.957,-3.9182 z"
         fill="#5776a3"
         id="path7" /><path
         d="m 409.949,103.091 3.491,-2.653 c 0.706,-0.5465 1.403,-1.2292 2.18,-1.6589 -0.929,1.5909 -3.058,4.0399 -4.283,5.5279 2.56,2.776 4.358,6.616 4.283,10.452 -4.09,0 -8.207,0.107 -12.293,0 -1.531,5.252 -7.179,4.146 -7.757,0 0.289,-3.913 2.455,-3.084 4.401,-4.346 3.07,-1.992 7.103,-5.039 9.978,-7.322 z"
         fill="#e76f51"
         id="path8" /><path
         d="m 403.327,114.759 c 0.638,-1.376 6.532,-8.792 8.01,-10.452 2.56,2.776 4.358,6.616 4.283,10.452 -4.09,0 -8.207,0.107 -12.293,0 z"
         fill="#e2e0dd"
         id="path9" /><path
         d="m 390.61,43.213 15.97,-0.0096 c 0.692,-0.0058 1.424,-0.0595 2.112,0.0096 0.227,2.2254 0.65,4.4641 1.006,6.6742 l 1.405,8.884 c 0.259,1.6049 0.621,3.2403 0.787,4.8538 v 0 17.7304 h -24.73 v -17.7304 0 c 0.766,-3.0574 1.109,-6.2733 1.647,-9.3806 0.609,-3.5146 1.514,-7.4928 1.803,-11.0314 z"
         fill="#2a9d8f"
         id="path10" /></g></g></svg>
