<svg width="365" height="337" xmlns="http://www.w3.org/2000/svg" xmlns:xlink="http://www.w3.org/1999/xlink" xml:space="preserve" overflow="hidden"><g transform="translate(-254 -1854)"><path d="M447.443 1913.11C461.679 1912.1 475.859 1922.89 476.977 1937.65 478.145 1953.07 467.937 1967.64 452.062 1968.91 415.121 1972.17 410.827 1916.42 447.443 1913.11Z" fill="#F4A261" fill-rule="evenodd"/><path d="M551.444 1884.2C586.643 1880.79 595.167 1932.24 557.668 1938.86 521.906 1942.4 514.605 1890.35 551.444 1884.2Z" fill="#E76F51" fill-rule="evenodd"/><path d="M391.251 1992.19C425.693 1989.14 434.04 2042.68 396.16 2048.06 355.416 2048.83 358.267 1993.22 391.251 1992.19Z" fill="#F4A261" fill-rule="evenodd"/><path d="M516.77 1976.09C553.437 1974.76 557.037 2028.37 520.018 2031.91L519.644 2031.95C483.487 2034.94 478.161 1978.27 516.77 1976.09Z" fill="#5776A3" fill-rule="evenodd"/><path d="M339.423 2076.29C346.278 2075.35 353.787 2077.83 359.199 2082.02 379.57 2097.8 369.245 2130.02 344.671 2132.92 306.972 2136.56 302.73 2079.65 339.423 2076.29Z" fill="#2A9D8F" fill-rule="evenodd"/><path d="M254.064 1854.07C258.372 1854.39 262.986 1854.08 267.321 1854.07L267.321 2177.31 606.18 2177.31C610.033 2177.32 614.045 2177.6 617.874 2177.31 617.873 2179.28 618.301 2189.05 617.874 2190.07L254.064 2190.07C254.359 2183.58 254.066 2176.98 254.065 2170.48L254.063 1870.71C254.065 1865.19 254.386 1859.56 254.064 1854.07Z" fill="#5776A3" fill-rule="evenodd"/></g></svg>