<?xml version="1.0" encoding="UTF-8" standalone="no"?>
<svg
   width="200"
   height="200"
   xml:space="preserve"
   overflow="hidden"
   version="1.1"
   id="svg4"
   sodipodi:docname="user.svg"
   inkscape:version="1.3.2 (091e20e, 2023-11-25, custom)"
   xmlns:inkscape="http://www.inkscape.org/namespaces/inkscape"
   xmlns:sodipodi="http://sodipodi.sourceforge.net/DTD/sodipodi-0.dtd"
   xmlns="http://www.w3.org/2000/svg"
   xmlns:svg="http://www.w3.org/2000/svg"><defs
     id="defs4" /><sodipodi:namedview
     id="namedview4"
     pagecolor="#ffffff"
     bordercolor="#666666"
     borderopacity="1.0"
     inkscape:showpageshadow="2"
     inkscape:pageopacity="0.0"
     inkscape:pagecheckerboard="true"
     inkscape:deskcolor="#d1d1d1"
     showguides="true"
     inkscape:zoom="0.99999999"
     inkscape:cx="-170.5"
     inkscape:cy="-12.5"
     inkscape:window-width="3840"
     inkscape:window-height="2054"
     inkscape:window-x="3829"
     inkscape:window-y="-11"
     inkscape:window-maximized="1"
     inkscape:current-layer="g3"><sodipodi:guide
       position="0,175"
       orientation="0,1"
       id="guide4"
       inkscape:locked="false"
       inkscape:label=""
       inkscape:color="rgb(0,134,229)" /><sodipodi:guide
       position="0,25"
       orientation="0,1"
       id="guide5"
       inkscape:locked="false"
       inkscape:label=""
       inkscape:color="rgb(0,134,229)" /><sodipodi:guide
       position="25,200"
       orientation="-1,0"
       id="guide6"
       inkscape:locked="false"
       inkscape:label=""
       inkscape:color="rgb(0,134,229)" /><sodipodi:guide
       position="175,200"
       orientation="-1,0"
       id="guide7"
       inkscape:locked="false"
       inkscape:label=""
       inkscape:color="rgb(0,134,229)" /></sodipodi:namedview><g
     style="overflow:hidden"
     id="g7"
     transform="matrix(1.5055322,0,0,1.3873851,-13.553902,-3.6771596)"><g
       transform="translate(-923,-18)"
       id="g3"><path
         d="m 996.476,91.8814 c 0.674,-9e-4 1.348,-0.0077 2.022,0 l 0.002,48.9126 c 10e-4,1.978 0.109,4.022 -0.002,5.993 h -49.887 c -0.003,-3.131 -0.039,-6.235 0.261,-9.357 1.877,-19.519 15.372,-36.433 33.891,-42.8345 5.068,-1.7518 8.61,-2.0904 13.713,-2.7141 z"
         fill="#2a9d8f"
         id="path1" /><path
         d="m 998.498,91.8814 h 2.612 c 1.37,0.1904 2.75,0.2969 4.12,0.4797 25.03,3.3335 43.52,25.4129 43,50.5229 -0.03,1.322 -0.17,2.585 0.01,3.903 h -49.742 c 0.111,-1.971 0.003,-4.015 0.002,-5.993 z"
         fill="#2a9d8f"
         id="path2" /><path
         d="M 996.40457,91.881549 C 982.0992,89.750943 972.13439,77.029108 974.17048,61.321563 c 1.83803,-14.187739 14.34703,-24.415768 27.49462,-22.397262 21.3326,3.275309 29.1068,33.413993 11.7167,47.403733 -4.7107,3.78931 -7.3021,4.428412 -12.6885,5.553515 h -2.41737 c -0.62379,-0.0077 -1.24757,-9e-4 -1.87136,0 z"
         fill="#f4a261"
         id="path3"
         style="stroke-width:0.962028" /></g></g></svg>
