<svg width="504" height="548" xmlns="http://www.w3.org/2000/svg" xmlns:xlink="http://www.w3.org/1999/xlink" xml:space="preserve" overflow="hidden"><defs><clipPath id="clip0"><rect x="2547" y="336" width="504" height="548"/></clipPath></defs><g clip-path="url(#clip0)" transform="translate(-2547 -336)"><path d="M2789.53 606 2798.97 606 2799.77 606 2812.19 606C2819.13 606.964 2826.13 607.504 2833.08 608.429 2959.9 625.307 3053.59 737.101 3050.95 864.237 3050.81 870.932 3050.1 877.326 3051 884L2799.77 884 2798.97 884 2547.02 884C2547 868.146 2546.82 852.429 2548.34 836.624 2557.85 737.793 2626.22 652.154 2720.05 619.742 2745.72 610.873 2763.67 609.158 2789.53 606Z" fill="#2A9D8F" fill-rule="evenodd"/><path d="M2789.51 606.058C2711.04 595.248 2656.37 530.696 2667.54 450.994 2677.63 379.004 2746.25 327.106 2818.37 337.348 2935.4 353.968 2978.05 506.894 2882.63 577.879 2856.79 597.107 2842.58 600.35 2813.02 606.058L2799.78 606.058C2796.36 606.019 2792.93 606.054 2789.51 606.058Z" fill="#F4A261" fill-rule="evenodd"/></g></svg>