<svg width="936" height="937" xmlns="http://www.w3.org/2000/svg" xmlns:xlink="http://www.w3.org/1999/xlink" xml:space="preserve" overflow="hidden"><g transform="translate(-2581 -121)"><path d="M3112.5 1052.99C3075.27 1059.41 3018.84 1057.64 2981.06 1052.16 2834.12 1030.83 2704.48 939.822 2634.74 809.177 2541.8 635.065 2572.18 414.777 2706.02 270.632 2875.92 87.66 3165.22 69.3346 3353.65 233.705 3466.68 332.302 3534.48 498.812 3511.7 648.719 3490.86 858.638 3319.59 1024.21 3112.5 1052.99Z" fill="#F4A261" fill-rule="evenodd"/><path d="M2813.54 504.07C2813.52 480.787 2812.57 457.122 2813.51 433.88 2815.48 385.25 2869.58 394.826 2902.98 394.849L3213.9 394.84C3240.29 394.778 3258.62 391.569 3278.32 413.38 3287.19 428.983 3286.08 441.441 3286.02 458.859L3285.97 504.07C3247.58 504.059 2814.11 503.719 2813.54 504.07Z" fill="#5776A3" fill-rule="evenodd"/><path d="M3162.22 433.089C3175.65 432.453 3180.08 447.438 3168.27 451.966 3154.23 453.43 3150.2 438.95 3162.22 433.089Z" fill="#E9C46A" fill-rule="evenodd"/><path d="M3195.76 433.129C3210.71 432.027 3214 446.33 3201.07 451.898 3187.11 453.813 3185.43 439.112 3195.76 433.129Z" fill="#F4A261" fill-rule="evenodd"/><path d="M3230.84 433.075C3243.45 432.739 3248.3 447.835 3235.95 451.955 3219.6 453.677 3217.56 435.474 3230.84 433.075Z" fill="#E76F51" fill-rule="evenodd"/><path d="M2863.08 433.07 3137.09 433.07 3137.09 452.069 2863.08 452.069 2863.08 433.07Z" fill="#A1BFDB" fill-rule="evenodd"/><path d="M2814.11 504.261C2814.69 503.907 3247.58 504.249 3285.91 504.261L3285.93 721.427C3285.93 730.793 3286.67 741.177 3285 750.398 3277.95 789.324 3236.47 784.199 3208.36 784.194L2954.61 784.173C2917.05 784.173 2876.26 788.298 2840.26 779.154 2812.52 761.122 2814.12 744.69 2814.11 715.169L2814.11 504.261Z" fill="#2A9D8F" fill-rule="evenodd"/><path d="M2865.09 540.46C2878.32 539.664 2892.03 540.437 2905.31 540.449L3236.09 540.46 3236.09 745.825C3234.69 746.448 2899.49 745.821 2865.09 745.825L2865.09 540.46Z" fill="#E9C46A" fill-rule="evenodd"/><path d="M3042.25 578.328C3060.08 577.809 3078.08 578.309 3095.92 578.311L3201.1 578.328 3201.1 595.836C3200.28 596.415 3055.77 595.831 3042.25 595.836 3042.03 589.971 3042.08 584.188 3042.25 578.328Z" fill="#E76F51" fill-rule="evenodd"/><path d="M3050.57 626.102 3201.1 626.102 3201.1 644.102 3193.71 644.102 3042.1 644.102 3042.1 626.102 3050.57 626.102Z" fill="#E76F51" fill-rule="evenodd"/><path d="M3042.32 675.106 3200.91 675.106C3201.15 681.167 3201.19 687.05 3200.91 693.107L3042.32 693.107C3042.04 687.061 3042.02 681.151 3042.32 675.106Z" fill="#E76F51" fill-rule="evenodd"/><path d="M2899.08 577.1 3010.08 577.1 3010.08 695.854C2973.11 696.41 2936.06 695.849 2899.08 695.854L2899.08 577.1Z" fill="#46A8D7" fill-rule="evenodd"/><path d="M3277.99 413.115C3285.44 414.777 3291.31 424.273 3296.48 429.531L3492.53 627.683C3498.07 633.366 3509.44 641.226 3512.11 648.588 3491.26 858.637 3319.91 1024.31 3112.72 1053.11 3107.33 1045.93 3097.81 1037.91 3091.24 1031.36L2886.37 825.735C2873.91 813.041 2847.66 791.31 2840.11 778.669 2876.11 787.8 2916.88 783.681 2954.43 783.681L3208.1 783.701C3236.2 783.706 3277.67 788.824 3284.72 749.955 3286.39 740.748 3285.65 730.378 3285.65 721.026L3285.63 504.179 3285.67 458.781C3285.74 441.292 3286.85 428.782 3277.99 413.115Z" fill="#E76F51" fill-rule="evenodd"/></g></svg>