<?xml version="1.0" encoding="UTF-8" standalone="no"?>
<svg
   width="200"
   height="200"
   xml:space="preserve"
   overflow="hidden"
   version="1.1"
   id="svg4"
   sodipodi:docname="workflow-run-validated.svg"
   inkscape:version="1.3.2 (091e20e, 2023-11-25, custom)"
   xmlns:inkscape="http://www.inkscape.org/namespaces/inkscape"
   xmlns:sodipodi="http://sodipodi.sourceforge.net/DTD/sodipodi-0.dtd"
   xmlns="http://www.w3.org/2000/svg"
   xmlns:svg="http://www.w3.org/2000/svg"><defs
     id="defs4" /><sodipodi:namedview
     id="namedview4"
     pagecolor="#ffffff"
     bordercolor="#666666"
     borderopacity="1.0"
     inkscape:showpageshadow="2"
     inkscape:pageopacity="0.0"
     inkscape:pagecheckerboard="true"
     inkscape:deskcolor="#d1d1d1"
     showguides="true"
     inkscape:zoom="2.8284271"
     inkscape:cx="97.580735"
     inkscape:cy="85.02959"
     inkscape:window-width="3840"
     inkscape:window-height="2054"
     inkscape:window-x="3829"
     inkscape:window-y="-11"
     inkscape:window-maximized="1"
     inkscape:current-layer="g7"><sodipodi:guide
       position="0,175"
       orientation="0,1"
       id="guide4"
       inkscape:locked="false"
       inkscape:label=""
       inkscape:color="rgb(0,134,229)" /><sodipodi:guide
       position="0,25"
       orientation="0,1"
       id="guide5"
       inkscape:locked="false"
       inkscape:label=""
       inkscape:color="rgb(0,134,229)" /><sodipodi:guide
       position="25,200"
       orientation="-1,0"
       id="guide6"
       inkscape:locked="false"
       inkscape:label=""
       inkscape:color="rgb(0,134,229)" /><sodipodi:guide
       position="175,200"
       orientation="-1,0"
       id="guide7"
       inkscape:locked="false"
       inkscape:label=""
       inkscape:color="rgb(0,134,229)" /></sodipodi:namedview><g
     id="g16"
     style="overflow:hidden;fill:#2a9d8f;fill-opacity:1"
     transform="matrix(1.3798863,0,0,1.3798863,-294.08437,-8.3892474)"
     inkscape:label="g16"><g
       transform="matrix(0.96354026,0,0,0.96195824,185.80374,-169.13)"
       id="g4"
       style="overflow:hidden;fill:#2a9d8f;fill-opacity:1"><g
         transform="matrix(0.74713243,0,0,0.74836115,-549.77722,195.66694)"
         id="g7"><path
           d="m 803.954,74.8616 0.125,-0.0937 c 1.697,-1.2789 4.368,-5.9459 6.039,-5.6658 1.745,0.2912 4.068,4.6237 5.636,5.7595 0.963,1.3025 2.1,2.4619 3.186,3.6566 4.864,5.3571 0.234,4.153 -3.186,4.39 -0.226,28.0718 19.831,51.4968 46.528,57.1948 1.242,0.265 2.47,0.469 3.683,0.861 l -0.133,0.087 c -13.007,8.427 -5.852,5.615 -0.76,12.039 -1.662,-0.374 -3.354,-0.591 -5.023,-0.931 -32.024,-6.515 -56.685,-35.859 -56.506,-69.2508 -0.88,-0.0531 -5.429,0.4063 -4.438,-1.9312 0.733,-1.7268 3.696,-4.0321 4.849,-6.1154 z"
           fill="#2a9d8f"
           fill-rule="evenodd"
           id="path1" /><path
           d="m 881.964,13.0891 c 30.907,3.5044 56.303,27.0254 61.835,57.5325 0.611,3.3688 1.11976,8.353872 0.86576,11.749172 1.15394,0.07689 4.10124,0.578428 4.27124,1.161228 0.408,1.3876 -3.718,5.229 -4.249,6.9451 -2.091,1.5022 -3.591,4.7693 -6.479,6.612 -1.623,-1.0538 -4.41,-4.8338 -6.115,-6.612 -4.011,-4.5839 -9.063,-7.8016 0,-8.2202 0.153,-25.7959 -17.294,-48.5873 -42.305,-55.5271 -2.574,-0.714 -5.197,-1.0621 -7.824,-1.5206 1.431,-1.761 5.189,-3.4702 7.203,-5.7487 -1.276,-2.2024 -5.234,-4.3328 -7.203,-6.3714 z"
           fill="#2a9d8f"
           fill-rule="evenodd"
           id="path2"
           sodipodi:nodetypes="cccccccccccc" /><path
           d="m 938.527,96.7785 c 2.871,-1.8638 4.361,-5.1682 6.438,-6.6883 -3.808,21.1328 -12.287,37.8378 -30.446,50.4978 -11.103,7.741 -26.282,12.876 -39.935,12.339 -0.012,0.87 0.494,5.401 -1.139,5.154 -1.43,-0.217 -5.918,-4.807 -7.829,-5.349 -5.127,-6.439 -12.332,-3.62 0.766,-12.067 l 0.134,-0.088 c 0.92,-0.935 6.546,-6.128 7.772,-5.064 0.529,0.46 0.302,4.167 0.296,5.064 27.052,0.844 51.126,-19.925 56.938,-46.2178 0.314,-1.4184 0.423,-2.8992 0.931,-4.269 1.692,1.7994 4.463,5.6221 6.074,6.6883 z"
           fill="#f4a261"
           fill-rule="evenodd"
           id="path3" /><path
           d="m 873.488,12.1374 c -0.007,-0.9834 -0.352,-4.3386 0.361,-5.03571 1.073,-0.29821 6.18,4.96131 8.021,5.87551 1.94,2.0494 5.839,4.1905 7.095,6.4043 -1.984,2.2903 -5.685,4.0082 -7.095,5.7783 -1.491,0.9608 -2.863,2.0971 -4.251,3.1992 -5.274,4.1839 -4.159,1.1981 -4.131,-3.5489 -25.284,-0.1245 -48.279,16.9191 -55.569,41.6091 -0.699,2.3671 -1.324,6.7457 -2.173,8.6704 -1.565,-1.1323 -3.884,-5.4468 -5.626,-5.7371 -1.67,-0.2788 -4.335,4.3695 -6.029,5.6437 l -0.126,0.0934 c 0.033,-2.4999 0.815,-5.768 1.415,-8.2211 7.752,-31.6998 35.357,-54.8544 68.108,-54.7311 z"
           fill="#f4a261"
           fill-rule="evenodd"
           id="path4" /><path
           d="m 863.158,36.1258 13.259,-0.0014 c 2.297,-0.001 4.607,-0.0783 6.902,0.0014 0.498,2.2836 0.855,5.28 0.604,7.5972 3.44,0.5288 7.061,2.0037 9.986,3.8967 1.683,-1.4072 3.189,-3.0989 4.759,-4.6369 1.496,1.4529 2.909,2.9848 4.394,4.4476 l 6.303,6.284 c 1.376,1.392 2.989,2.7219 3.984,4.4195 -1.204,1.7683 -2.957,3.0778 -4.266,4.7724 1.81,3.1219 3.481,6.4942 4.266,10.0501 2.503,0.0038 5.008,-0.0409 7.512,0 0.269,6.9714 -0.079,14.01 0,20.9906 -2.467,0.1737 -5.031,-0.025 -7.512,0 -0.952,3.2069 -2.224,6.194 -3.818,9.133 1.62,1.558 3.08,3.436 4.578,5.125 -4.977,4.804 -9.887,9.689 -14.728,14.631 -1.777,-1.291 -3.56,-2.592 -5.472,-3.677 -3.474,1.257 -6.146,2.904 -9.986,4.106 v 6.433 c 0.011,0.281 0.045,0.151 -0.1,0.392 -6.885,-0.104 -13.779,-0.028 -20.665,-0.028 v -6.797 c -3.276,-1.069 -6.747,-2.421 -9.751,-4.106 -1.744,1.105 -3.635,2.295 -5.17,3.677 -2.085,-1.601 -3.909,-3.607 -5.767,-5.464 l -9.077,-9.167 c 1.489,-1.56 2.908,-3.184 4.399,-4.742 -1.505,-2.795 -2.94,-5.7228 -3.845,-8.774 -1.77,-0.6581 -5.842,-1.0225 -7.937,-1.4274 l -10e-4,-13.7184 c -10e-4,-2.3348 -0.1,-4.6903 10e-4,-7.0212 2.63,-0.1331 5.321,-0.6622 7.937,-0.9861 1.166,-2.9432 2.546,-5.7474 3.845,-8.6296 l -4.399,-4.7724 9.88,-9.9015 c 1.628,-1.6278 3.218,-3.3674 4.964,-4.8662 1.706,1.4375 3.527,2.744 5.17,4.2535 2.553,-1.892 6.006,-3.0295 9.047,-3.8967 0.34,-2.5306 0.552,-5.0484 0.704,-7.5972 z"
           fill="#5776a3"
           fill-rule="evenodd"
           id="path5" /><path
           d="m 844.964,83.09 c 0,-16.0163 12.984,-28.9997 29.001,-28.9997 16.016,0 29,12.9834 29,28.9997 0,16.0166 -12.984,29 -29,29 -16.017,0 -29.001,-12.9834 -29.001,-29 z"
           fill="#e9c46a"
           fill-rule="evenodd"
           id="path6" /><path
           d="m 884.357,73.933 c -0.541,0.0161 -1.052,0.2425 -1.428,0.6318 -0.469,0.4731 -3.572,3.6856 -6.775,6.9989 -2.602,2.6901 -4.434,4.5836 -5.466,5.6482 l -5.81,-4.4584 c -0.867,-0.76 -2.179,-0.6681 -2.932,0.2028 -0.753,0.8716 -0.662,2.1943 0.203,2.9543 0.069,0.0591 0.142,0.1154 0.218,0.1678 l 7.272,5.5811 c 0.827,0.6312 1.992,0.5544 2.728,-0.1851 0.469,-0.4745 3.57,-3.6762 6.774,-6.9906 3.203,-3.3119 6.507,-6.7392 6.73,-6.9639 0.819,-0.81 0.832,-2.1351 0.028,-2.9604 -0.404,-0.416 -0.963,-0.6431 -1.542,-0.6265 z m -10.405,-11.8424 0.907,0.1567 h 0.002 c 2.932,1.0638 5.894,2.155 8.607,3.4456 h 0.002 c 2.586,1.23 4.939,2.6369 7.232,4.0416 l 0.007,0.0053 c 0.752,0.4698 1.256,1.3081 1.256,2.2656 v 0.0827 c -0.06,7.1796 -0.221,14.5833 -3.068,19.807 l -0.003,0.0052 c -2.875,5.2723 -8.41,8.2097 -13.738,10.9037 v 0.002 c -0.357,0.182 -0.761,0.284 -1.191,0.284 -0.42,0 -0.815,-0.098 -1.168,-0.272 l -0.02,-0.012 c -5.33,-2.695 -10.866,-5.6318 -13.741,-10.9057 -2.848,-5.223 -3.009,-12.6385 -3.071,-19.8183 v -0.0774 c 0,-0.9573 0.501,-1.7972 1.255,-2.2648 v -0.0022 c 2.294,-1.4048 4.649,-2.8132 7.24,-4.0455 2.657,-1.2629 5.553,-2.3347 8.425,-3.3755 l 0.003,-0.002 c 0.322,-0.1413 0.677,-0.2225 1.049,-0.2225 h 0.015 z m 0,-4e-4 v 4e-4 0 z"
           fill="#2a9d8f"
           fill-rule="evenodd"
           id="path7" /></g></g></g></svg>
