<svg width="618" height="622" xmlns="http://www.w3.org/2000/svg" xmlns:xlink="http://www.w3.org/1999/xlink" xml:space="preserve" overflow="hidden"><g transform="translate(-3007 -629)"><path d="M3027.68 908.689 3028.2 908.307C3035.21 903.084 3046.25 884.026 3053.16 885.169 3060.38 886.36 3069.98 904.049 3076.46 908.689 3080.44 914.005 3085.15 918.74 3089.63 923.621 3109.75 945.496 3090.6 940.577 3076.46 941.546 3075.52 1056.17 3158.45 1151.83 3268.82 1175.09 3273.96 1176.17 3279.03 1177.01 3284.05 1178.61L3283.5 1178.96C3229.72 1213.37 3259.31 1201.89 3280.35 1228.12 3273.49 1226.59 3266.49 1225.71 3259.59 1224.32 3127.19 1197.72 3025.24 1077.9 3025.98 941.546 3022.34 941.328 3003.53 943.204 3007.63 933.658 3010.66 926.609 3022.91 917.196 3027.68 908.689Z" fill="#2A9D8F" fill-rule="evenodd"/><path d="M3350.13 654.065C3476.53 668.5 3580.38 765.384 3603.01 891.043 3605.51 904.919 3607.68 921.606 3606.63 935.589 3609.44 936.812 3623.32 941.82 3624.02 944.222 3625.68 949.936 3608.81 965.76 3606.63 972.827 3598.09 979.016 3591.95 992.472 3580.14 1000.06 3573.51 995.722 3562.11 980.154 3555.14 972.827 3538.74 953.947 3518.08 940.692 3555.14 938.968 3555.76 832.715 3484.41 738.837 3382.13 710.251 3371.6 707.31 3360.87 705.877 3350.13 703.989 3355.99 696.734 3371.35 689.695 3379.59 680.309 3374.37 671.237 3358.19 662.463 3350.13 654.065Z" fill="#2A9D8F" fill-rule="evenodd"/><path d="M3579.7 999.478C3591.48 991.855 3597.6 978.346 3606.12 972.134 3590.49 1058.53 3555.68 1126.82 3481.15 1178.58 3435.57 1210.23 3373.27 1231.22 3317.23 1229.02 3317.19 1232.58 3319.26 1251.1 3312.55 1250.09 3306.69 1249.21 3288.27 1230.44 3280.42 1228.23 3259.38 1201.9 3229.8 1213.42 3283.57 1178.89L3284.12 1178.54C3287.89 1174.71 3310.99 1153.48 3316.02 1157.83 3318.19 1159.71 3317.26 1174.87 3317.23 1178.54 3428.27 1181.98 3527.08 1097.08 3550.94 989.585 3552.23 983.787 3552.68 977.732 3554.76 972.134 3561.71 979.489 3573.08 995.118 3579.7 999.478Z" fill="#F4A261" fill-rule="evenodd"/><path d="M3315.79 649.762C3315.76 645.727 3314.33 631.96 3317.29 629.101 3321.75 627.877 3342.95 649.456 3350.6 653.208 3358.66 661.616 3374.85 670.401 3380.07 679.484 3371.83 688.881 3356.46 695.929 3350.6 703.192 3344.41 707.134 3338.71 711.796 3332.95 716.318 3311.05 733.484 3315.67 721.234 3315.79 701.757 3210.79 701.246 3115.29 771.175 3085.01 872.475 3082.11 882.188 3079.52 900.154 3075.99 908.05 3069.49 903.406 3059.86 885.702 3052.63 884.51 3045.69 883.366 3034.62 902.44 3027.59 907.667L3027.07 908.05C3027.2 897.793 3030.45 884.386 3032.94 874.32 3065.13 744.257 3179.78 649.256 3315.79 649.762Z" fill="#F4A261" fill-rule="evenodd"/><path d="M3282.46 788.209 3325.73 788.205C3333.22 788.202 3340.76 787.95 3348.25 788.209 3349.87 795.643 3351.04 805.397 3350.22 812.941 3361.44 814.662 3373.26 819.464 3382.8 825.625 3388.29 821.045 3393.21 815.538 3398.33 810.531 3403.22 815.261 3407.83 820.248 3412.67 825.01L3433.24 845.466C3437.73 849.998 3443 854.327 3446.24 859.853 3442.31 865.609 3436.59 869.872 3432.32 875.388 3438.23 885.551 3443.68 896.528 3446.24 908.105 3454.41 908.116 3462.58 907.972 3470.75 908.105 3471.63 930.799 3470.5 953.712 3470.75 976.436 3462.7 977.002 3454.33 976.354 3446.24 976.436 3443.13 986.875 3438.98 996.599 3433.78 1006.17 3439.07 1011.24 3443.83 1017.35 3448.72 1022.85 3432.48 1038.49 3416.46 1054.39 3400.66 1070.48 3394.86 1066.28 3389.04 1062.04 3382.8 1058.51 3371.47 1062.6 3362.75 1067.96 3350.22 1071.88L3350.22 1092.82C3350.25 1093.73 3350.36 1093.31 3349.89 1094.09 3327.43 1093.75 3304.93 1094 3282.46 1094L3282.46 1071.88C3271.77 1068.4 3260.44 1064 3250.64 1058.51 3244.95 1062.11 3238.78 1065.98 3233.77 1070.48 3226.97 1065.27 3221.02 1058.74 3214.95 1052.69L3185.33 1022.85C3190.19 1017.77 3194.82 1012.49 3199.69 1007.42 3194.78 998.315 3190.09 988.784 3187.14 978.85 3181.37 976.709 3168.08 975.522 3161.24 974.204L3161.24 929.548C3161.23 921.947 3160.91 914.28 3161.24 906.69 3169.82 906.258 3178.6 904.536 3187.14 903.481 3190.95 893.9 3195.45 884.771 3199.69 875.388L3185.33 859.853 3217.57 827.62C3222.89 822.322 3228.07 816.658 3233.77 811.779 3239.33 816.459 3245.28 820.712 3250.64 825.625 3258.97 819.467 3270.24 815.764 3280.16 812.941 3281.27 804.703 3281.97 796.506 3282.46 788.209Z" fill="#5776A3" fill-rule="evenodd"/><path d="M3310.76 865.215C3349.36 856.7 3390.74 898.145 3392.97 936.606 3395.36 978.05 3362.76 1014.75 3321.31 1017L3320.51 1017.03C3278.23 1018.68 3240.58 986.254 3239.13 943.317 3237.78 903.241 3270.3 866.506 3310.76 865.215Z" fill="#E9C46A" fill-rule="evenodd"/></g></svg>