<svg width="3059" height="591" xmlns="http://www.w3.org/2000/svg" xmlns:xlink="http://www.w3.org/1999/xlink" xml:space="preserve" overflow="hidden"><g transform="translate(-689 -959)"><g><g><g><path d="M1444.95 1039.26C1447.41 1039.06 1449.96 1039.18 1452.42 1039.27 1538.22 1042.56 1605.64 1117.4 1602.18 1202.77 1599.61 1266.25 1558.52 1323.57 1498.63 1345.31 1481.94 1351.36 1462.69 1355.37 1444.95 1354.59 1403.66 1356.02 1361.79 1336.7 1332.96 1307.79 1272.66 1247.3 1271.41 1146.14 1332.39 1085.6 1362.51 1055.7 1402.47 1039.09 1444.95 1039.26Z" fill="#F4A261"/><path d="M1377.33 1251.56C1351.37 1219.7 1350.78 1172.07 1377.8 1140.68 1405.4 1108.6 1452.23 1100.98 1488.85 1121.63 1492.56 1123.72 1496.42 1126.01 1499.65 1128.8 1490.09 1134.16 1480.75 1140.15 1471.43 1145.93L1440.6 1164.97C1437.34 1167.02 1427.02 1172.66 1424.92 1174.85 1422.18 1177.6 1416.6 1188 1414.11 1191.96L1390.97 1229.37C1386.42 1236.78 1381.76 1244.07 1377.33 1251.56Z" fill="#2A9D8F"/><path d="M1499.65 1128.8C1501.35 1128.52 1527.94 1112.16 1530.47 1110.18 1527.4 1117.49 1520.32 1128.98 1516.16 1135.92 1514.9 1138.02 1513.06 1140.11 1512.11 1142.35 1542.16 1179.84 1536.87 1233.66 1499.14 1263.85 1469.31 1287.72 1419.39 1290.28 1390.24 1264.18 1379.61 1270.25 1366.91 1278.19 1356.96 1285.07 1360.21 1277 1372.42 1258.95 1377.33 1251.56 1381.76 1244.07 1386.42 1236.78 1390.97 1229.37L1414.11 1191.96C1416.6 1188 1422.18 1177.6 1424.92 1174.85 1427.02 1172.66 1437.34 1167.02 1440.6 1164.97L1471.43 1145.93C1480.75 1140.15 1490.09 1134.16 1499.65 1128.8Z" fill="#5776A3"/><path d="M1499.65 1128.8C1501.35 1128.52 1527.94 1112.16 1530.47 1110.18 1527.4 1117.49 1520.32 1128.98 1516.16 1135.92 1514.9 1138.02 1513.06 1140.11 1512.11 1142.35 1504.21 1157.16 1494.58 1171.08 1485.89 1185.44L1472.21 1207.94C1470.12 1211.33 1468.13 1215.4 1465.51 1218.38 1456.23 1206.07 1441.55 1192.42 1430.89 1180.9 1428.97 1178.82 1426.72 1177.03 1424.92 1174.85 1427.02 1172.66 1437.34 1167.02 1440.6 1164.97L1471.43 1145.93C1480.75 1140.15 1490.09 1134.16 1499.65 1128.8Z" fill="#E76F51"/><path d="M1377.33 1251.56C1381.76 1244.07 1386.42 1236.78 1390.97 1229.37L1414.11 1191.96C1416.6 1188 1422.18 1177.6 1424.92 1174.85 1426.72 1177.03 1428.97 1178.82 1430.89 1180.9 1441.55 1192.42 1456.23 1206.07 1465.51 1218.38 1448.07 1228.52 1431 1239.32 1413.8 1249.85L1398.55 1259.02C1395.81 1260.66 1392.78 1262.24 1390.24 1264.18 1379.61 1270.25 1366.91 1278.19 1356.96 1285.07 1360.21 1277 1372.42 1258.95 1377.33 1251.56Z" fill="#6DBF98"/></g></g></g><text fill="#5776A3" font-family="Aptos,Aptos_MSFontService,sans-serif" font-weight="400" font-size="78" transform="matrix(1 0 0 1 1321.01 1481)">explore</text><g><g><g><path d="M838.02 1213.36C839.264 1213.3 840.515 1213.34 841.76 1213.36 841.892 1220.93 841.763 1228.54 841.761 1236.11L841.758 1319.14C841.759 1325.36 841.915 1331.62 841.76 1337.84L790.906 1337.84 786.431 1337.84 786.428 1252.32C786.429 1239.34 786.641 1226.33 786.431 1213.36L838.02 1213.36Z" fill="#E76F51"/><path d="M912.09 1161.66C913.813 1161.53 915.5 1161.58 917.224 1161.66L917.224 1337.84 868.241 1337.84C866.317 1337.88 864.404 1337.88 862.48 1337.84L862.479 1180.41C862.479 1174.2 862.794 1167.85 862.48 1161.66L912.09 1161.66Z" fill="#2A9D8F"/><path d="M938.498 1103.53 976.595 1103.53C982.238 1103.53 987.917 1103.36 993.554 1103.53L993.543 1312.91C993.538 1321.18 993.877 1329.57 993.554 1337.84L938.498 1337.84 938.498 1103.53Z" fill="#F4A261"/><path d="M1014.52 1051.2C1020.55 1051.38 1026.66 1051.2 1032.7 1051.2L1069.56 1051.2 1069.56 1337.84 1014.52 1337.84 1014.52 1051.2Z" fill="#5776A3"/></g></g></g><text fill="#5776A3" font-family="Aptos,Aptos_MSFontService,sans-serif" font-weight="400" font-size="78" transform="matrix(1 0 0 1 736.762 1481)">benchmark</text><g><g><g><path d="M2026.69 1228.93C2029.71 1230.83 2033.22 1235 2035.82 1237.61L2117.62 1319.65C2122.51 1324.6 2127.73 1329.3 2129.35 1336.38 2134.12 1357.26 2110.68 1373.77 2092.39 1361.85 2087.94 1358.95 2084.17 1354.39 2080.39 1350.68 2050.81 1321.63 2022.13 1291.69 1992.52 1262.68 2006.25 1253.62 2017.24 1242.33 2026.69 1228.93Z" fill="#5776A3"/><path d="M1992.52 1262.68C1950.04 1289.62 1897.31 1292.33 1853.49 1265.81 1757.94 1207.97 1778.21 1058.12 1890.75 1030.85 1922.41 1023.18 1958.36 1028.81 1986.04 1045.78 2038.13 1077.7 2063.7 1143.45 2040.96 1201.46 2037.13 1211.22 2032.15 1220.01 2026.69 1228.93 2017.24 1242.33 2006.25 1253.62 1992.52 1262.68Z" fill="#F4A261"/><path d="M1916.84 1066.16C1921.36 1065.89 1925.84 1066.3 1930.33 1066.84 1976.03 1072.29 2009.15 1109.17 2010.35 1155.31 2011.58 1202.87 1972.08 1245.23 1924.37 1246.46 1869.28 1248.41 1825.14 1202.51 1830.92 1147.42 1835.76 1101.34 1871.51 1069.23 1916.84 1066.16Z" fill="#2A9D8F"/></g></g></g><text fill="#5776A3" font-family="Aptos,Aptos_MSFontService,sans-serif" font-weight="400" font-size="78" transform="matrix(1 0 0 1 1810.47 1481)">compare</text><g><g><g><path d="M3017.62 1249.19C3024.34 1247.31 3029.55 1254.53 3030.47 1260.41 3031.46 1266.66 3026.29 1271.06 3022.38 1275.11L3010.34 1287.36C3007.27 1290.43 3003.91 1293.41 3001.38 1296.94 3004.83 1299.19 3023.87 1318.88 3027.15 1323.36 3034.25 1333.09 3025.39 1345.27 3012.75 1342.67 3007.98 1340.8 3004.96 1336.62 3001.55 1333.04L2989.99 1320.92C2985.07 1315.67 2979.8 1310.69 2974.95 1305.39 2965.8 1295.4 2975.61 1287.56 2982.5 1280.7L2997.04 1266.09C3002.14 1260.89 3010.83 1248.74 3017.62 1249.19Z" fill="#F4A261"/><path d="M3116.55 1249.19C3120.77 1248.95 3123.99 1249.75 3127.16 1252.82 3136.46 1261.79 3145.49 1271.17 3154.46 1280.47 3170.29 1296.86 3172.28 1296.14 3153.54 1314.9 3144.21 1324.24 3134.63 1333.31 3125.31 1342.67 3112.61 1348 3101.57 1335.16 3107.97 1325.34 3109.94 1322.31 3113.35 1319.78 3115.93 1317.23L3136.51 1296.94C3131.55 1290.6 3121.38 1281.3 3115.45 1275.47 3113.08 1273.15 3110.38 1270.9 3108.37 1268.26 3102.58 1260.66 3108.13 1251.1 3116.55 1249.19Z" fill="#E76F51"/><path d="M3085.23 1233.39C3093.16 1233.09 3101.47 1238.44 3099.12 1247.5 3098.44 1250.13 3097.36 1252.77 3096.48 1255.35L3064.7 1348.47C3062.14 1356.12 3061.18 1364 3052.34 1366.65 3045.7 1368.58 3036.34 1361.18 3037.89 1353.99 3039.49 1346.55 3042.73 1339.3 3045.18 1332.09L3072.31 1252.61C3075.03 1244.76 3076 1235.85 3085.23 1233.39Z" fill="#5776A3"/><path d="M2922.85 1023.25C3002.98 1021.18 3014.94 1125.89 2947.2 1147.18 2942.58 1148.63 2937.72 1149.3 2932.99 1150.34 2879.06 1155.19 2842.86 1090.59 2878.05 1046.4 2889.65 1031.82 2904.77 1025.3 2922.85 1023.25Z" fill="#F4A261"/><path d="M2897.7 1152.05 2947.08 1152.05C2976.04 1152.05 2999.88 1151.05 3019.94 1177.55 3031.97 1193.44 3033.9 1209.34 3031.22 1228.46 3009.6 1218.39 3003.24 1230.24 2989.88 1243.81L2963.43 1270.63C2956.31 1277.94 2946.55 1283.77 2946.37 1294.95 2946.43 1298.62 2947.54 1301.36 2949.01 1304.67 2940 1305 2930.87 1304.68 2921.85 1304.67L2868.22 1304.69C2857.42 1304.68 2848.82 1304.76 2839.35 1298.68 2820.21 1286.38 2820.53 1271.59 2820.55 1251.98L2820.55 1222.83C2820.59 1185.36 2845.06 1155.47 2883.52 1152.31 2888.23 1151.92 2892.98 1152.04 2897.7 1152.05Z" fill="#2A9D8F"/></g></g></g><text fill="#5776A3" font-family="Aptos,Aptos_MSFontService,sans-serif" font-weight="400" font-size="78" transform="matrix(1 0 0 1 2819.15 1481)">contribute</text><g><g><g><path d="M2477.53 1345.7C2441.38 1346.05 2403.62 1330.65 2377.08 1306.51 2308.17 1243.84 2313.61 1133.05 2387.88 1077.04 2412.17 1058.72 2446.65 1045.85 2477.53 1047.23 2477.7 1059.34 2477.53 1071.48 2477.53 1083.59L2477.53 1185.78C2477.52 1190.17 2477.19 1195.87 2477.53 1200.08L2477.53 1200.08C2477.69 1211.08 2477.54 1222.1 2477.54 1233.1L2477.5 1240.92C2477.48 1242.64 2477.32 1244.45 2477.53 1246.16L2477.53 1246.16C2477.74 1257.23 2477.53 1268.33 2477.53 1279.4L2477.53 1345.7Z" fill="#E9C46A"/><path d="M2477.53 1246.16C2471.44 1251.59 2459.99 1265.1 2454.18 1268.76 2444.31 1274.98 2437.3 1267.84 2431.01 1261.59L2365.92 1196.86C2357.56 1188.58 2357.17 1187.61 2366.47 1178.24L2372.7 1171.89C2381.23 1163.27 2387.74 1173.98 2393.57 1179.84L2436.11 1222.05C2439.25 1225.2 2442.56 1228.2 2445.57 1231.47 2455.28 1221.58 2467.26 1209.12 2477.53 1200.08 2477.69 1211.08 2477.54 1222.1 2477.54 1233.1L2477.5 1240.92C2477.48 1242.64 2477.32 1244.45 2477.53 1246.16L2477.53 1246.16Z" fill="#2A9D8F"/><path d="M2477.53 1047.23C2559.72 1046.1 2625.84 1113.88 2626.71 1195.64 2627.58 1276.65 2558.91 1347.29 2477.53 1345.7L2477.53 1279.4C2477.53 1268.33 2477.74 1257.23 2477.53 1246.16L2477.53 1246.16C2477.32 1244.45 2477.48 1242.64 2477.5 1240.92L2477.54 1233.1C2477.54 1222.1 2477.69 1211.08 2477.53 1200.08L2477.53 1200.08C2477.19 1195.87 2477.52 1190.17 2477.53 1185.78L2477.53 1083.59C2477.53 1071.48 2477.7 1059.34 2477.53 1047.23Z" fill="#F4A261"/><path d="M2477.53 1200.08C2480.01 1197.33 2482.66 1194.74 2485.24 1192.09L2568.12 1108.67C2579.73 1096.85 2580.61 1100.12 2591.41 1110.53 2601.74 1120.49 2602.54 1120.3 2591.09 1131.7L2494.56 1228.97C2488.89 1234.68 2482.99 1240.25 2477.53 1246.16 2477.32 1244.45 2477.48 1242.64 2477.5 1240.92L2477.54 1233.1C2477.54 1222.1 2477.69 1211.08 2477.53 1200.08L2477.53 1200.08Z" fill="#5776A3"/></g></g></g><text fill="#5776A3" font-family="Aptos,Aptos_MSFontService,sans-serif" font-weight="400" font-size="78" transform="matrix(1 0 0 1 2345.06 1481)">validate</text><g><g><g><path d="M3544.89 1139.31 3623.56 1139.3C3640.08 1139.29 3656.9 1142.98 3660.93 1162.5 3662.15 1168.46 3661.8 1175.15 3661.79 1181.22L3661.78 1284.7C3661.77 1295.04 3660.74 1301.64 3653.09 1309.28 3649.13 1313.24 3644.98 1313.87 3641.37 1316.93 3630.07 1326.52 3616.69 1339.8 3607.03 1350.73 3599.01 1339 3592.7 1332.83 3582.85 1323.39 3580.34 1320.99 3577.87 1318.09 3575.11 1316.02 3557.76 1315.78 3540.37 1315.99 3523.03 1316.01L3510.31 1316.03C3495.25 1316.06 3481.85 1312.46 3477.82 1295.08 3476.36 1288.8 3477 1280.11 3476.99 1273.53L3477 1241.51C3477.01 1238.72 3477.41 1232.55 3477 1230.22L3477 1230.22 3504.33 1230.23C3510.63 1230.23 3518.29 1230.86 3524.38 1229.39 3547.71 1223.78 3544.9 1202.15 3544.89 1184.14L3544.89 1139.31 3544.89 1139.31Z" fill="#F4A261"/><path d="M3477 1230.22C3470.95 1230.64 3464.81 1230.23 3458.75 1230.22L3397.2 1230.23C3380.36 1230.23 3363.46 1227.45 3359.29 1207.02 3358.18 1201.58 3358.61 1195.69 3358.61 1190.15L3358.58 1077.31C3358.45 1056.49 3370.03 1044.31 3391.11 1044.24L3500.98 1044.25C3519.58 1044.25 3538.68 1045.24 3544 1068.23 3545.58 1075.04 3544.89 1087.62 3544.89 1095.05L3544.89 1139.31 3544.89 1139.31 3544.89 1184.14C3544.9 1202.15 3547.71 1223.78 3524.38 1229.39 3518.29 1230.86 3510.63 1230.23 3504.33 1230.23L3477 1230.22 3477 1230.22Z" fill="#2A9D8F"/><path d="M3472.95 1230.22C3472.63 1218.37 3472.95 1206.42 3472.95 1194.56L3472.94 1180.26C3472.93 1161.81 3477.02 1145.84 3498.03 1140.45 3503.96 1138.92 3510.47 1139.31 3516.56 1139.32L3535.14 1139.31C3538.38 1139.31 3541.65 1139.44 3544.89 1139.31L3544.89 1184.14C3544.9 1202.15 3547.71 1223.78 3524.38 1229.39 3518.29 1230.86 3510.63 1230.23 3504.33 1230.23L3477 1230.22C3475.67 1230.14 3474.29 1230.21 3472.95 1230.22Z" fill="#5776A3"/></g></g></g><text fill="#5776A3" font-family="Aptos,Aptos_MSFontService,sans-serif" font-weight="400" font-size="78" transform="matrix(1 0 0 1 3319.29 1481)">collaborate</text></g></svg>
