<svg width="1910" height="1949" xmlns="http://www.w3.org/2000/svg" xmlns:xlink="http://www.w3.org/1999/xlink" xml:space="preserve" overflow="hidden"><g transform="translate(-1269 -377)"><g><g><g><path d="M162.667 297.788C164.248 297.706 165.838 297.766 167.419 297.788 167.588 307.412 167.424 317.071 167.422 326.697L167.417 432.193C167.418 440.104 167.618 448.049 167.419 455.955L102.802 455.955 97.1162 455.955 97.113 347.29C97.1144 330.801 97.3836 314.273 97.1162 297.788L162.667 297.788Z" fill="#E76F51" transform="matrix(1 0 0 1.0018 1947 903)"/><path d="M256.784 232.091C258.973 231.932 261.117 231.998 263.308 232.091L263.308 455.955 201.067 455.955C198.623 456.013 196.192 456.011 193.747 455.955L193.746 255.921C193.746 248.029 194.147 239.96 193.747 232.091L256.784 232.091Z" fill="#2A9D8F" transform="matrix(1 0 0 1.0018 1947 903)"/><path d="M290.339 158.231 338.747 158.234C345.917 158.23 353.133 158.016 360.296 158.231L360.282 424.275C360.275 434.794 360.706 445.454 360.296 455.955L290.339 455.955 290.339 158.231Z" fill="#F4A261" transform="matrix(1 0 0 1.0018 1947 903)"/><path d="M386.931 91.744C394.604 91.9687 402.36 91.7462 410.041 91.7455L456.877 91.744 456.877 455.955 386.931 455.955 386.931 91.744Z" fill="#5776A3" transform="matrix(1 0 0 1.0018 1947 903)"/></g></g></g><text fill="#5776A3" font-family="Aptos,Aptos_MSFontService,sans-serif" font-weight="400" font-size="92" transform="matrix(1 0 0 1 1998.19 1480)">benchmark</text><g><g><g><path d="M2254.12 2012.38C2262.65 2010 2269.26 2019.17 2270.44 2026.64 2271.68 2034.57 2265.12 2040.16 2260.17 2045.29L2244.88 2060.84C2240.99 2064.74 2236.71 2068.53 2233.5 2073.01 2237.89 2075.87 2262.06 2100.86 2266.21 2106.55 2275.24 2118.89 2263.98 2134.36 2247.94 2131.06 2241.88 2128.69 2238.05 2123.38 2233.71 2118.83L2219.04 2103.45C2212.79 2096.78 2206.11 2090.46 2199.96 2083.74 2188.34 2071.05 2200.79 2061.1 2209.53 2052.39L2227.99 2033.85C2234.47 2027.25 2245.5 2011.82 2254.12 2012.38Z" fill="#F4A261"/><path d="M2379.71 2012.38C2385.07 2012.08 2389.15 2013.11 2393.18 2017 2404.98 2028.38 2416.45 2040.3 2427.84 2052.09 2447.94 2072.91 2450.46 2071.99 2426.67 2095.8 2414.82 2107.66 2402.66 2119.18 2390.83 2131.06 2374.7 2137.82 2360.69 2121.52 2368.81 2109.06 2371.32 2105.21 2375.65 2102 2378.92 2098.76L2405.04 2073.01C2398.75 2064.96 2385.84 2053.15 2378.31 2045.75 2375.31 2042.8 2371.88 2039.95 2369.32 2036.6 2361.97 2026.95 2369.02 2014.81 2379.71 2012.38Z" fill="#E76F51"/><path d="M2339.95 1992.33C2350.02 1991.96 2360.56 1998.74 2357.58 2010.24 2356.71 2013.58 2355.34 2016.93 2354.24 2020.21L2313.88 2138.42C2310.63 2148.14 2309.42 2158.14 2298.2 2161.5 2289.76 2163.95 2277.89 2154.56 2279.85 2145.43 2281.88 2135.99 2286 2126.77 2289.11 2117.63L2323.54 2016.74C2327 2006.77 2328.23 1995.45 2339.95 1992.33Z" fill="#5776A3"/><path d="M2133.81 1725.57C2235.54 1722.93 2250.71 1855.86 2164.72 1882.88 2158.86 1884.73 2152.68 1885.58 2146.69 1886.9 2078.22 1893.06 2032.27 1811.05 2076.94 1754.95 2091.67 1736.45 2110.86 1728.17 2133.81 1725.57Z" fill="#F4A261"/><path d="M2101.89 1889.07 2164.57 1889.07C2201.33 1889.07 2231.6 1887.8 2257.07 1921.44 2272.34 1941.61 2274.78 1961.79 2271.39 1986.08 2243.94 1973.29 2235.86 1988.33 2218.9 2005.56L2185.33 2039.6C2176.29 2048.89 2163.89 2056.29 2163.67 2070.47 2163.74 2075.14 2165.15 2078.62 2167.02 2082.82 2155.58 2083.24 2144 2082.83 2132.54 2082.82L2064.47 2082.84C2050.75 2082.83 2039.83 2082.93 2027.81 2075.21 2003.51 2059.6 2003.92 2040.83 2003.94 2015.93L2003.94 1978.92C2003.99 1931.36 2035.05 1893.42 2083.88 1889.4 2089.86 1888.91 2095.89 1889.06 2101.89 1889.07Z" fill="#2A9D8F"/></g></g></g><text fill="#5776A3" font-family="Aptos,Aptos_MSFontService,sans-serif" font-weight="400" font-size="92" transform="matrix(1 0 0 1 2017.9 2245)">contribute</text><g><g><g><path d="M1797.57 430.596C1800.69 430.345 1803.92 430.492 1807.05 430.612 1915.85 434.778 2001.36 529.685 1996.97 637.946 1993.71 718.455 1941.6 791.148 1865.64 818.712 1844.48 826.391 1820.07 831.48 1797.57 830.489 1745.21 832.292 1692.11 807.801 1655.55 771.133 1579.08 694.42 1577.49 566.135 1654.83 489.356 1693.02 451.441 1743.69 430.377 1797.57 430.596Z" fill="#F4A261"/><path d="M1711.82 699.826C1678.89 659.426 1678.15 599.021 1712.41 559.205 1747.41 518.534 1806.81 508.862 1853.24 535.05 1857.95 537.706 1862.84 540.604 1866.94 544.143 1854.81 550.945 1842.97 558.534 1831.15 565.869L1792.06 590.015C1787.92 592.609 1774.83 599.769 1772.17 602.542 1768.7 606.031 1761.61 619.223 1758.46 624.246L1729.12 671.689C1723.35 681.083 1717.44 690.329 1711.82 699.826Z" fill="#2A9D8F"/><path d="M1866.94 544.143C1869.1 543.792 1902.82 523.048 1906.02 520.533 1902.14 529.799 1893.16 544.377 1887.87 553.178 1886.28 555.839 1883.94 558.484 1882.74 561.323 1920.84 608.875 1914.14 677.121 1866.29 715.413 1828.46 745.687 1765.15 748.926 1728.19 715.826 1714.7 723.533 1698.6 733.593 1685.98 742.328 1690.1 732.094 1705.59 709.193 1711.82 699.826 1717.44 690.329 1723.35 681.083 1729.12 671.689L1758.46 624.246C1761.61 619.223 1768.7 606.031 1772.17 602.542 1774.83 599.769 1787.92 592.609 1792.06 590.015L1831.15 565.869C1842.97 558.534 1854.81 550.945 1866.94 544.143Z" fill="#5776A3"/><path d="M1866.94 544.143C1869.1 543.792 1902.82 523.048 1906.02 520.533 1902.14 529.799 1893.16 544.377 1887.87 553.178 1886.28 555.839 1883.94 558.484 1882.74 561.323 1872.72 580.111 1860.51 597.765 1849.49 615.971L1832.14 644.506C1829.49 648.81 1826.96 653.975 1823.64 657.748 1811.88 642.134 1793.25 624.826 1779.74 610.218 1777.3 607.585 1774.45 605.309 1772.17 602.542 1774.83 599.769 1787.92 592.609 1792.06 590.015L1831.15 565.869C1842.97 558.534 1854.81 550.945 1866.94 544.143Z" fill="#E76F51"/><path d="M1711.82 699.826C1717.44 690.329 1723.35 681.083 1729.12 671.689L1758.46 624.246C1761.61 619.223 1768.7 606.031 1772.17 602.542 1774.45 605.309 1777.3 607.585 1779.74 610.218 1793.25 624.826 1811.88 642.134 1823.64 657.748 1801.53 670.609 1779.88 684.305 1758.06 697.655L1738.72 709.292C1735.25 711.372 1731.41 713.365 1728.19 715.826 1714.7 723.533 1698.6 733.593 1685.98 742.328 1690.1 732.094 1705.59 709.193 1711.82 699.826Z" fill="#6DBF98"/></g></g></g><text fill="#5776A3" font-family="Aptos,Aptos_MSFontService,sans-serif" font-weight="400" font-size="92" transform="matrix(1 0 0 1 1651.25 929)">explore</text><g><g><g><path d="M2650.04 819.217C2604.2 819.649 2556.31 800.122 2522.65 769.508 2435.26 690.033 2442.16 549.537 2536.35 478.503 2567.15 455.278 2610.88 438.95 2650.04 440.704 2650.26 456.058 2650.04 471.448 2650.04 486.805L2650.03 616.403C2650.03 621.971 2649.6 629.196 2650.04 634.534L2650.04 634.534C2650.24 648.485 2650.05 662.467 2650.05 676.421L2650 686.332C2649.97 688.517 2649.78 690.811 2650.04 692.98L2650.04 692.98C2650.31 707.01 2650.04 721.099 2650.04 735.132L2650.04 819.217Z" fill="#E9C46A"/><path d="M2650.04 692.98C2642.31 699.858 2627.79 716.993 2620.43 721.635 2607.91 729.523 2599.02 720.473 2591.04 712.547L2508.5 630.461C2497.89 619.956 2497.4 618.725 2509.2 606.841L2517.09 598.788C2527.92 587.856 2536.17 601.443 2543.57 608.875L2597.51 662.407C2601.5 666.395 2605.69 670.199 2609.51 674.348 2621.82 661.812 2637.01 646.002 2650.04 634.534 2650.24 648.485 2650.05 662.467 2650.05 676.421L2650 686.332C2649.97 688.517 2649.78 690.811 2650.04 692.98L2650.04 692.98Z" fill="#2A9D8F"/><path d="M2650.04 440.704C2754.27 439.266 2838.12 525.222 2839.23 628.904 2840.33 731.649 2753.24 821.229 2650.04 819.217L2650.04 735.132C2650.04 721.099 2650.31 707.01 2650.04 692.98L2650.04 692.98C2649.78 690.811 2649.97 688.517 2650 686.332L2650.05 676.421C2650.05 662.467 2650.24 648.485 2650.04 634.534L2650.04 634.534C2649.6 629.196 2650.03 621.971 2650.03 616.403L2650.04 486.805C2650.04 471.448 2650.26 456.058 2650.04 440.704Z" fill="#F4A261"/><path d="M2650.04 634.534C2653.18 631.052 2656.54 627.771 2659.81 624.408L2764.93 518.611C2779.64 503.622 2780.76 507.78 2794.45 520.973 2807.56 533.606 2808.58 533.37 2794.05 547.822L2671.64 671.173C2664.45 678.422 2656.96 685.483 2650.04 692.98 2649.78 690.811 2649.97 688.517 2650 686.332L2650.05 676.421C2650.05 662.467 2650.24 648.485 2650.04 634.534L2650.04 634.534Z" fill="#5776A3"/></g></g></g><text fill="#5776A3" font-family="Aptos,Aptos_MSFontService,sans-serif" font-weight="400" font-size="92" transform="matrix(1 0 0 1 2494.2 929)">validate</text><g><g><g><path d="M1653.47 1505.57C1657.31 1507.99 1661.77 1513.29 1665.07 1516.6L1769.01 1620.85C1775.22 1627.14 1781.85 1633.1 1783.91 1642.1 1789.98 1668.63 1760.19 1689.61 1736.95 1674.47 1731.3 1670.79 1726.51 1664.99 1721.7 1660.27 1684.12 1623.37 1647.68 1585.31 1610.05 1548.45 1627.49 1536.94 1641.46 1522.6 1653.47 1505.57Z" fill="#5776A3"/><path d="M1610.05 1548.45C1556.08 1582.69 1489.07 1586.13 1433.39 1552.43 1311.98 1478.94 1337.74 1288.53 1480.73 1253.89 1520.97 1244.14 1566.64 1251.29 1601.82 1272.85 1668 1313.42 1700.49 1396.96 1671.6 1470.66 1666.73 1483.07 1660.41 1494.24 1653.47 1505.57 1641.46 1522.6 1627.49 1536.94 1610.05 1548.45Z" fill="#F4A261"/><path d="M1513.89 1298.75C1519.64 1298.41 1525.32 1298.93 1531.03 1299.61 1589.1 1306.54 1631.18 1353.41 1632.7 1412.03 1634.27 1472.45 1584.08 1526.29 1523.46 1527.85 1453.45 1530.33 1397.37 1472.01 1404.72 1402.01 1410.87 1343.45 1456.28 1302.66 1513.89 1298.75Z" fill="#2A9D8F"/></g></g></g><text fill="#5776A3" font-family="Aptos,Aptos_MSFontService,sans-serif" font-weight="400" font-size="92" transform="matrix(1 0 0 1 1392.71 1765)">compare</text><g><g><g><path d="M2921.34 1391.7 3021.29 1391.69C3042.29 1391.67 3063.66 1396.36 3068.77 1421.17 3070.33 1428.73 3069.88 1437.24 3069.88 1444.95L3069.86 1576.44C3069.84 1589.57 3068.54 1597.96 3058.82 1607.66 3053.78 1612.7 3048.51 1613.5 3043.93 1617.38 3029.57 1629.58 3012.56 1646.45 3000.29 1660.33 2990.11 1645.43 2982.08 1637.59 2969.56 1625.59 2966.38 1622.54 2963.24 1618.86 2959.73 1616.23 2937.69 1615.93 2915.6 1616.2 2893.55 1616.22L2877.39 1616.25C2858.25 1616.28 2841.23 1611.71 2836.11 1589.63 2834.25 1581.65 2835.06 1570.6 2835.06 1562.25L2835.07 1521.56C2835.08 1518.01 2835.59 1510.17 2835.07 1507.21L2835.07 1507.21 2869.8 1507.23C2877.81 1507.23 2887.54 1508.02 2895.28 1506.16 2924.92 1499.03 2921.34 1471.54 2921.33 1448.66L2921.34 1391.7 2921.34 1391.7Z" fill="#F4A261"/><path d="M2835.07 1507.21C2827.38 1507.75 2819.58 1507.22 2811.88 1507.22L2733.67 1507.22C2712.28 1507.23 2690.8 1503.69 2685.51 1477.74 2684.09 1470.82 2684.63 1463.34 2684.64 1456.3L2684.6 1312.92C2684.44 1286.46 2699.15 1270.99 2725.93 1270.89L2865.54 1270.91C2889.17 1270.91 2913.44 1272.17 2920.21 1301.38 2922.21 1310.03 2921.34 1326.02 2921.34 1335.46L2921.34 1391.7 2921.34 1391.7 2921.33 1448.66C2921.34 1471.54 2924.92 1499.03 2895.28 1506.16 2887.54 1508.02 2877.81 1507.23 2869.8 1507.23L2835.07 1507.21 2835.07 1507.21Z" fill="#2A9D8F"/><path d="M2829.92 1507.21C2829.52 1492.16 2829.93 1476.97 2829.93 1461.9L2829.91 1443.73C2829.89 1420.28 2835.1 1400 2861.79 1393.14 2869.33 1391.2 2877.6 1391.7 2885.34 1391.7L2908.94 1391.69C2913.06 1391.7 2917.21 1391.87 2921.34 1391.7L2921.33 1448.66C2921.34 1471.54 2924.92 1499.03 2895.28 1506.16 2887.54 1508.02 2877.81 1507.23 2869.8 1507.23L2835.07 1507.21C2833.37 1507.11 2831.63 1507.2 2829.92 1507.21Z" fill="#5776A3"/></g></g></g><text fill="#5776A3" font-family="Aptos,Aptos_MSFontService,sans-serif" font-weight="400" font-size="92" transform="matrix(1 0 0 1 2651.84 1765)">collaborate</text></g></svg>
