<svg width="1922" height="1228" xmlns="http://www.w3.org/2000/svg" xmlns:xlink="http://www.w3.org/1999/xlink" xml:space="preserve" overflow="hidden"><g transform="translate(-1210 -599)"><g><g><g><path d="M237.53 50.2066C240.453 49.9717 243.484 50.1089 246.412 50.2211 348.334 54.1239 428.432 143.028 424.323 244.443 421.267 319.861 372.456 387.957 301.3 413.778 281.476 420.971 258.607 425.738 237.53 424.809 188.485 426.499 138.744 403.556 104.499 369.207 32.8568 297.346 31.3691 177.174 103.82 105.25 139.597 69.7335 187.064 50.0014 237.53 50.2066Z" fill="#F4A261" transform="matrix(1.00211 0 0 1 1210 599)"/><path d="M157.21 302.41C126.364 264.565 125.665 207.98 157.76 170.682 190.544 132.583 246.185 123.523 289.682 148.055 294.095 150.543 298.674 153.257 302.519 156.573 291.154 162.945 280.062 170.053 268.988 176.924L232.372 199.544C228.498 201.974 216.234 208.68 213.742 211.278 210.486 214.547 203.85 226.904 200.893 231.61L173.41 276.052C168.003 284.853 162.468 293.513 157.21 302.41Z" fill="#2A9D8F" transform="matrix(1.00211 0 0 1 1210 599)"/><path d="M302.519 156.573C304.536 156.244 336.129 136.812 339.125 134.456 335.488 143.136 327.077 156.792 322.127 165.036 320.631 167.529 318.442 170.007 317.314 172.666 353.012 217.21 346.73 281.141 301.909 317.011 266.474 345.371 207.165 348.405 172.543 317.398 159.907 324.618 144.825 334.041 133.002 342.224 136.865 332.637 151.373 311.184 157.21 302.41 162.468 293.513 168.003 284.853 173.41 276.052L200.893 231.61C203.85 226.904 210.486 214.547 213.742 211.278 216.234 208.68 228.498 201.974 232.372 199.544L268.988 176.924C280.062 170.053 291.154 162.945 302.519 156.573Z" fill="#5776A3" transform="matrix(1.00211 0 0 1 1210 599)"/><path d="M302.519 156.573C304.536 156.244 336.129 136.812 339.125 134.456 335.488 143.136 327.077 156.792 322.127 165.036 320.631 167.529 318.442 170.007 317.314 172.666 307.933 190.266 296.491 206.804 286.17 223.858L269.915 250.588C267.44 254.62 265.07 259.458 261.957 262.993 250.936 248.367 233.49 232.153 220.828 218.468 218.545 216.002 215.877 213.87 213.742 211.278 216.234 208.68 228.498 201.974 232.372 199.544L268.988 176.924C280.062 170.053 291.154 162.945 302.519 156.573Z" fill="#E76F51" transform="matrix(1.00211 0 0 1 1210 599)"/><path d="M157.21 302.41C162.468 293.513 168.003 284.853 173.41 276.052L200.893 231.61C203.85 226.904 210.486 214.547 213.742 211.278 215.877 213.87 218.545 216.002 220.828 218.468 233.49 232.153 250.936 248.367 261.957 262.993 241.245 275.04 220.962 287.871 200.525 300.376L182.409 311.277C179.152 313.226 175.556 315.092 172.543 317.398 159.907 324.618 144.825 334.041 133.002 342.224 136.865 332.637 151.373 311.184 157.21 302.41Z" fill="#6DBF98" transform="matrix(1.00211 0 0 1 1210 599)"/></g></g></g><text fill="#5776A3" font-family="Aptos,Aptos_MSFontService,sans-serif" font-weight="400" font-size="87" transform="matrix(1 0 0 1 1309.07 1111)">explore</text><g><g><g><path d="M139.177 254.786C140.53 254.716 141.89 254.767 143.243 254.786 143.388 263.02 143.247 271.284 143.245 279.52L143.241 369.782C143.242 376.551 143.413 383.348 143.243 390.113L87.9571 390.113 83.0921 390.113 83.0894 297.139C83.0906 283.031 83.3209 268.89 83.0921 254.786L139.177 254.786Z" fill="#E76F51" transform="matrix(1.00211 0 0 1 1933 599)"/><path d="M219.703 198.576C221.576 198.44 223.41 198.497 225.285 198.576L225.285 390.113 172.032 390.113C169.941 390.163 167.861 390.161 165.769 390.113L165.768 218.965C165.768 212.212 166.111 205.309 165.769 198.576L219.703 198.576Z" fill="#2A9D8F" transform="matrix(1.00211 0 0 1 1933 599)"/><path d="M248.413 135.382 289.83 135.384C295.965 135.381 302.139 135.197 308.267 135.382L308.255 363.008C308.25 372.007 308.618 381.128 308.267 390.113L248.413 390.113 248.413 135.382Z" fill="#F4A261" transform="matrix(1.00211 0 0 1 1933 599)"/><path d="M331.056 78.4957C337.621 78.6879 344.257 78.4976 350.829 78.4969L390.902 78.4957 390.902 390.113 331.056 390.113 331.056 78.4957Z" fill="#5776A3" transform="matrix(1.00211 0 0 1 1933 599)"/></g></g></g><text fill="#5776A3" font-family="Aptos,Aptos_MSFontService,sans-serif" font-weight="400" font-size="78" transform="matrix(1 0 0 1 1979.12 1104)">benchmark</text><g><g><g><path d="M308.417 271.711C311.702 273.78 315.517 278.317 318.34 281.151L407.269 370.342C412.585 375.724 418.257 380.827 420.02 388.53 425.211 411.226 399.726 429.175 379.841 416.218 375.006 413.069 370.91 408.112 366.796 404.073 334.642 372.496 303.463 339.939 271.27 308.4 286.191 298.551 298.14 286.283 308.417 271.711Z" fill="#5776A3" transform="matrix(1.00211 0 0 1 1210 1238)"/><path d="M271.27 308.4C225.089 337.697 167.76 340.642 120.116 311.803 16.2416 248.929 38.2816 86.0158 160.625 56.3733 195.051 48.0322 234.125 54.1475 264.224 72.5972 320.85 107.306 348.647 178.786 323.925 241.846 319.763 252.461 314.353 262.014 308.417 271.711 298.14 286.283 286.191 298.551 271.27 308.4Z" fill="#F4A261" transform="matrix(1.00211 0 0 1 1210 1238)"/><path d="M188.99 94.7593C193.91 94.464 198.772 94.9102 203.657 95.4934 253.341 101.422 289.343 141.52 290.646 191.68 291.99 243.377 249.046 289.438 197.179 290.77 137.283 292.896 89.3003 242.995 95.5878 183.104 100.847 133.002 139.705 98.0995 188.99 94.7593Z" fill="#2A9D8F" transform="matrix(1.00211 0 0 1 1210 1238)"/></g></g></g><text fill="#5776A3" font-family="Aptos,Aptos_MSFontService,sans-serif" font-weight="400" font-size="87" transform="matrix(1 0 0 1 1278.62 1735)">compare</text><g><g><g><path d="M261.068 289.574C267.779 287.699 272.974 294.906 273.896 300.78 274.876 307.012 269.719 311.408 265.822 315.441L253.803 327.665C250.746 330.729 247.387 333.709 244.864 337.232 248.309 339.478 267.309 359.126 270.575 363.594 277.669 373.298 268.818 385.454 256.209 382.862 251.451 380.999 248.441 376.824 245.029 373.248L233.493 361.158C228.585 355.918 223.333 350.952 218.493 345.665 209.362 335.695 219.148 327.868 226.021 321.025L240.532 306.446C245.622 301.259 254.296 289.129 261.068 289.574Z" fill="#F4A261" transform="matrix(1.00211 0 0 1 1933 1238)"/><path d="M359.793 289.574C364.004 289.339 367.212 290.143 370.381 293.201 379.656 302.151 388.673 311.517 397.626 320.791 413.422 337.152 415.405 336.427 396.705 355.146 387.393 364.468 377.83 373.527 368.53 382.862 355.857 388.177 344.841 375.365 351.228 365.567 353.197 362.545 356.6 360.022 359.172 357.477L379.706 337.232C374.757 330.902 364.608 321.62 358.689 315.803 356.33 313.484 353.635 311.247 351.627 308.612 345.846 301.029 351.391 291.483 359.793 289.574Z" fill="#E76F51" transform="matrix(1.00211 0 0 1 1933 1238)"/><path d="M328.539 273.811C336.451 273.517 344.742 278.847 342.397 287.888 341.715 290.514 340.638 293.149 339.767 295.725L308.046 388.647C305.491 396.285 304.538 404.146 295.718 406.794 289.087 408.716 279.753 401.334 281.296 394.156 282.891 386.738 286.126 379.494 288.571 372.309L315.642 292.996C318.36 285.16 319.326 276.263 328.539 273.811Z" fill="#5776A3" transform="matrix(1.00211 0 0 1 1933 1238)"/><path d="M166.495 64.1185C246.465 62.0444 258.393 166.534 190.797 187.78 186.189 189.229 181.334 189.896 176.619 190.94 122.797 195.779 86.6778 131.312 121.795 87.2109 133.373 72.6715 148.456 66.1604 166.495 64.1185Z" fill="#F4A261" transform="matrix(1.00211 0 0 1 1933 1238)"/><path d="M141.407 192.64 190.674 192.644C219.574 192.642 243.368 191.644 263.388 218.09 275.39 233.943 277.312 249.808 274.642 268.897 253.066 258.847 246.717 270.67 233.383 284.207L206.996 310.971C199.892 318.27 190.145 324.087 189.967 335.238 190.025 338.904 191.133 341.642 192.604 344.946 183.614 345.274 174.505 344.948 165.499 344.946L111.988 344.957C101.207 344.952 92.6216 345.033 83.1734 338.962 64.0753 326.688 64.3934 311.933 64.4127 292.359L64.4096 263.27C64.4509 225.882 88.869 196.06 127.248 192.901 131.95 192.514 136.692 192.632 141.407 192.64Z" fill="#2A9D8F" transform="matrix(1.00211 0 0 1 1933 1238)"/></g></g></g><text fill="#5776A3" font-family="Aptos,Aptos_MSFontService,sans-serif" font-weight="400" font-size="87" transform="matrix(1 0 0 1 1975.04 1750)">contribute</text><g><g><g><path d="M237.035 414.251C194.092 414.655 149.239 396.363 117.705 367.685 35.8414 293.236 42.3024 161.626 130.539 95.0832 159.388 73.3271 200.355 58.0316 237.035 59.6756 237.24 74.0584 237.036 88.4745 237.036 102.861L237.03 224.263C237.027 229.479 236.626 236.246 237.035 241.247L237.035 241.247C237.225 254.316 237.043 267.414 237.042 280.485L237.002 289.769C236.974 291.816 236.792 293.965 237.035 295.997L237.035 295.997C237.286 309.139 237.035 322.337 237.035 335.483L237.035 414.251Z" fill="#E9C46A" transform="matrix(1.00211 0 0 1 2656 599)"/><path d="M237.035 295.997C229.8 302.44 216.196 318.491 209.296 322.84 197.575 330.229 189.242 321.751 181.768 314.327L104.45 237.431C94.5139 227.591 94.0547 226.438 105.102 215.305L112.5 207.762C122.637 197.521 130.371 210.248 137.298 217.21L187.826 267.357C191.563 271.093 195.492 274.657 199.072 278.543 210.6 266.8 224.831 251.99 237.035 241.247 237.225 254.316 237.043 267.414 237.042 280.485L237.002 289.769C236.974 291.816 236.792 293.965 237.035 295.997L237.035 295.997Z" fill="#2A9D8F" transform="matrix(1.00211 0 0 1 2656 599)"/><path d="M237.035 59.6756C334.679 58.328 413.226 138.848 414.262 235.973 415.289 332.22 333.714 416.135 237.035 414.251L237.035 335.483C237.035 322.337 237.286 309.139 237.035 295.997L237.035 295.997C236.792 293.965 236.974 291.816 237.002 289.769L237.042 280.485C237.043 267.414 237.225 254.316 237.035 241.247L237.035 241.247C236.626 236.246 237.027 229.479 237.03 224.263L237.036 102.861C237.036 88.4745 237.24 74.0584 237.035 59.6756Z" fill="#F4A261" transform="matrix(1.00211 0 0 1 2656 599)"/><path d="M237.035 241.247C239.982 237.985 243.125 234.912 246.189 231.762L344.657 132.655C358.445 118.614 359.495 122.509 372.317 134.868 384.595 146.702 385.549 146.481 371.937 160.018L257.269 275.569C250.533 282.359 243.521 288.974 237.035 295.997 236.792 293.965 236.974 291.816 237.002 289.769L237.042 280.485C237.043 267.414 237.225 254.316 237.035 241.247L237.035 241.247Z" fill="#5776A3" transform="matrix(1.00211 0 0 1 2656 599)"/></g></g></g><text fill="#5776A3" font-family="Aptos,Aptos_MSFontService,sans-serif" font-weight="400" font-size="87" transform="matrix(1 0 0 1 2745.14 1096)">validate</text><g><g><g><path d="M274.933 174.286 360.456 174.276C378.421 174.263 396.703 178.273 401.081 199.498 402.416 205.97 402.027 213.247 402.023 219.842L402.014 332.348C401.996 343.581 400.877 350.76 392.566 359.061 388.254 363.369 383.74 364.056 379.825 367.38 367.534 377.811 352.986 392.249 342.489 404.124 333.773 391.378 326.904 384.67 316.195 374.404 313.471 371.793 310.787 368.643 307.78 366.391 288.924 366.133 270.022 366.365 251.163 366.386L237.332 366.409C220.96 366.432 206.396 362.529 202.011 343.632 200.426 336.804 201.12 327.352 201.117 320.203L201.124 285.391C201.132 282.358 201.566 275.643 201.123 273.118L201.123 273.118 230.84 273.128C237.689 273.128 246.014 273.812 252.636 272.218 277.996 266.116 274.939 242.598 274.932 223.022L274.933 174.286 274.933 174.286Z" fill="#F4A261" transform="matrix(1.00211 0 0 1 2656 1238)"/><path d="M201.123 273.118C194.549 273.576 187.868 273.122 181.28 273.12L114.365 273.127C96.0646 273.13 77.6917 270.099 73.1584 247.896 71.95 241.977 72.4128 235.578 72.4187 229.554L72.3855 106.878C72.2446 84.2429 84.8279 71.0076 107.746 70.9222L227.195 70.9372C247.412 70.941 268.178 72.0162 273.967 97.0071 275.681 104.407 274.935 118.088 274.935 126.168L274.933 174.286 274.933 174.286 274.932 223.022C274.939 242.598 277.996 266.116 252.636 272.218 246.014 273.812 237.689 273.128 230.84 273.128L201.123 273.118 201.123 273.118Z" fill="#2A9D8F" transform="matrix(1.00211 0 0 1 2656 1238)"/><path d="M196.722 273.118C196.377 260.234 196.723 247.246 196.724 234.35L196.711 218.802C196.696 198.741 201.151 181.386 223.989 175.516 230.437 173.858 237.516 174.282 244.135 174.289L264.326 174.277C267.855 174.282 271.408 174.428 274.933 174.286L274.932 223.022C274.939 242.598 277.996 266.116 252.636 272.218 246.014 273.812 237.689 273.128 230.84 273.128L201.123 273.118C199.673 273.029 198.178 273.108 196.722 273.118Z" fill="#5776A3" transform="matrix(1.00211 0 0 1 2656 1238)"/></g></g></g><text fill="#5776A3" font-family="Aptos,Aptos_MSFontService,sans-serif" font-weight="400" font-size="78" transform="matrix(1 0 0 1 2702.83 1728)">collaborate</text></g></svg>
