<svg width="512" height="501" xmlns="http://www.w3.org/2000/svg" xmlns:xlink="http://www.w3.org/1999/xlink" xml:space="preserve" overflow="hidden"><g transform="translate(-749 -951)"><path d="M1062.82 1106.08 1195.5 1106.07C1223.37 1106.05 1251.73 1112.07 1258.52 1143.93 1260.6 1153.64 1259.99 1164.56 1259.99 1174.46L1259.97 1343.33C1259.94 1360.19 1258.21 1370.97 1245.31 1383.43 1238.63 1389.89 1231.62 1390.93 1225.55 1395.91 1206.48 1411.57 1183.91 1433.24 1167.63 1451.07 1154.1 1431.94 1143.45 1421.87 1126.83 1406.46 1122.61 1402.54 1118.44 1397.81 1113.78 1394.43 1084.53 1394.04 1055.2 1394.39 1025.94 1394.42L1004.49 1394.46C979.088 1394.49 956.494 1388.63 949.691 1360.27 947.232 1350.02 948.308 1335.83 948.303 1325.1L948.315 1272.85C948.328 1268.3 949 1258.22 948.313 1254.43L948.313 1254.43 994.415 1254.44C1005.04 1254.44 1017.96 1255.47 1028.23 1253.08 1067.57 1243.92 1062.83 1208.62 1062.82 1179.23L1062.82 1106.08 1062.82 1106.08Z" fill="#F4A261" fill-rule="evenodd"/><path d="M948.49 1254.73C938.31 1255.42 927.963 1254.74 917.762 1254.74L814.141 1254.75C785.801 1254.75 757.35 1250.2 750.33 1216.85 748.458 1207.96 749.175 1198.35 749.184 1189.3L749.133 1005.04C748.915 971.048 768.4 951.169 803.891 951.04L988.864 951.063C1020.17 951.069 1052.33 952.683 1061.29 990.219 1063.95 1001.33 1062.79 1021.88 1062.79 1034.02L1062.79 1106.29 1062.79 1106.29 1062.79 1179.49C1062.8 1208.89 1067.53 1244.22 1028.26 1253.38 1018.01 1255.78 1005.11 1254.75 994.508 1254.75L948.49 1254.73 948.49 1254.73Z" fill="#2A9D8F" fill-rule="evenodd"/><path d="M941.295 1254.82C940.758 1235.44 941.296 1215.89 941.298 1196.49L941.278 1173.1C941.254 1142.92 948.18 1116.81 983.682 1107.98 993.705 1105.48 1004.71 1106.12 1015 1106.13L1046.39 1106.12C1051.87 1106.12 1057.39 1106.34 1062.87 1106.13L1062.87 1179.45C1062.88 1208.9 1067.64 1244.28 1028.21 1253.46 1017.92 1255.86 1004.98 1254.83 994.331 1254.83L948.137 1254.82C945.881 1254.68 943.559 1254.8 941.295 1254.82Z" fill="#5776A3" fill-rule="evenodd"/></g></svg>
