<svg width="1996" height="2006" xmlns="http://www.w3.org/2000/svg" xmlns:xlink="http://www.w3.org/1999/xlink" xml:space="preserve" overflow="hidden"><g transform="translate(-1201 -227)"><path d="M1267.84 1128.39 1269.52 1127.15C1292.24 1110.25 1327.99 1048.58 1350.37 1052.28 1373.73 1056.13 1404.83 1113.38 1425.82 1128.39 1438.71 1145.6 1453.94 1160.92 1468.48 1176.71 1533.6 1247.5 1471.61 1231.59 1425.82 1234.72 1422.79 1605.67 1691.31 1915.22 2048.73 1990.51 2065.37 1994.02 2081.8 1996.71 2098.05 2001.89L2096.27 2003.04C1922.13 2114.39 2017.92 2077.23 2086.08 2162.12 2063.84 2157.18 2041.19 2154.31 2018.85 2149.83 1590.1 2063.74 1259.95 1675.98 1262.34 1234.72 1250.56 1234.02 1189.66 1240.09 1202.93 1209.2 1212.74 1186.38 1252.4 1155.92 1267.84 1128.39Z" fill="#2A9D8F" fill-rule="evenodd"/><path d="M2312.13 305.065C2719.91 351.791 3054.98 665.403 3127.97 1072.16 3136.03 1117.08 3143.03 1171.09 3139.68 1216.36 3148.73 1220.32 3193.51 1236.53 3195.76 1244.3 3201.13 1262.8 3146.69 1314.02 3139.68 1336.9 3112.1 1356.93 3092.31 1400.49 3054.2 1425.06 3032.79 1411.01 2996.01 1360.61 2973.53 1336.9 2920.61 1275.78 2853.96 1232.88 2973.53 1227.3 2975.54 883.354 2745.35 579.473 2415.36 486.94 2381.4 477.42 2346.79 472.781 2312.13 466.668 2331.02 443.186 2380.59 420.399 2407.16 390.018 2390.34 360.653 2338.11 332.248 2312.13 305.065Z" fill="#2A9D8F" fill-rule="evenodd"/><path d="M3054.57 1424.26C3092.71 1399.7 3112.52 1356.16 3140.12 1336.13 3089.51 1614.59 2976.81 1834.69 2735.48 2001.51 2587.9 2103.52 2386.17 2171.18 2204.72 2164.09 2204.56 2175.56 2211.28 2235.26 2189.57 2232 2170.58 2229.15 2110.93 2168.67 2085.52 2161.52 2017.38 2076.67 1921.61 2113.82 2095.71 2002.52L2097.49 2001.37C2109.71 1989.04 2184.49 1920.62 2200.78 1934.65 2207.81 1940.71 2204.79 1989.55 2204.72 2001.37 2564.26 2012.49 2884.21 1738.83 2961.46 1392.38 2965.63 1373.69 2967.08 1354.18 2973.82 1336.13 2996.33 1359.84 3033.14 1410.21 3054.57 1424.26Z" fill="#F4A261" fill-rule="evenodd"/><path d="M2199.68 294.01C2199.59 280.965 2194.97 236.458 2204.51 227.212 2218.9 223.256 2287.32 293.021 2311.99 305.15 2337.98 332.333 2390.24 360.736 2407.07 390.1 2380.48 420.48 2330.89 443.266 2311.99 466.747 2292.02 479.493 2273.63 494.565 2255.03 509.184 2184.37 564.682 2199.3 525.076 2199.68 462.108 1860.87 460.457 1552.74 686.536 1455.05 1014.04 1445.68 1045.44 1437.31 1103.52 1425.94 1129.05 1404.96 1114.03 1373.89 1056.8 1350.54 1052.95 1328.17 1049.25 1292.45 1110.91 1269.75 1127.81L1268.07 1129.05C1268.51 1095.89 1278.99 1052.54 1287.03 1020 1390.9 599.511 1760.82 292.374 2199.68 294.01Z" fill="#F4A261" fill-rule="evenodd"/><path d="M2064.8 613.592 2240.8 613.574C2271.28 613.561 2301.96 612.538 2332.42 613.592 2339.02 643.814 2343.77 683.467 2340.44 714.134 2386.09 721.134 2434.16 740.653 2472.98 765.703 2495.32 747.08 2515.31 724.692 2536.15 704.338 2556.01 723.565 2574.76 743.839 2594.47 763.199L2678.15 846.361C2696.4 864.783 2717.82 882.383 2731.02 904.85 2715.04 928.25 2691.76 945.582 2674.39 968.006 2698.43 1009.32 2720.6 1053.95 2731.02 1101.01 2764.25 1101.06 2797.5 1100.47 2830.73 1101.01 2834.31 1193.27 2829.69 1286.42 2830.73 1378.8 2797.98 1381.1 2763.95 1378.47 2731.02 1378.8 2718.39 1421.24 2701.49 1460.77 2680.34 1499.67 2701.85 1520.29 2721.23 1545.14 2741.1 1567.49 2675.05 1631.07 2609.88 1695.72 2545.62 1761.12 2522.02 1744.04 2498.36 1726.82 2472.98 1712.46 2426.88 1729.09 2391.4 1750.88 2340.44 1766.8L2340.44 1851.93C2340.58 1855.65 2341.02 1853.93 2339.1 1857.12 2247.72 1855.74 2156.2 1856.74 2064.8 1856.75L2064.8 1766.8C2021.33 1752.66 1975.25 1734.76 1935.38 1712.46 1912.22 1727.08 1887.13 1742.83 1866.75 1761.12 1839.08 1739.93 1814.87 1713.38 1790.2 1688.81L1669.72 1567.49C1689.49 1546.85 1708.32 1525.36 1728.11 1504.74 1708.13 1467.75 1689.08 1429 1677.08 1388.62 1653.58 1379.91 1599.53 1375.09 1571.72 1369.73L1571.71 1188.18C1571.69 1157.28 1570.38 1126.11 1571.72 1095.26 1606.62 1093.5 1642.34 1086.5 1677.08 1082.21 1692.56 1043.26 1710.87 1006.15 1728.11 968.006L1669.72 904.85 1800.87 773.811C1822.47 752.27 1843.58 729.249 1866.75 709.413 1889.39 728.438 1913.57 745.727 1935.38 765.703 1969.27 740.665 2015.09 725.612 2055.46 714.134 2059.97 680.646 2062.79 647.323 2064.8 613.592Z" fill="#5776A3" fill-rule="evenodd"/><path d="M1818 1237.5C1818 1026.8 1989.03 856 2200 856 2410.97 856 2582 1026.8 2582 1237.5 2582 1448.2 2410.97 1619 2200 1619 1989.03 1619 1818 1448.2 1818 1237.5Z" fill="#E9C46A" fill-rule="evenodd"/><path d="M2335.2 1112.98C2328.04 1113.19 2321.26 1116.17 2316.27 1121.3 2310.06 1127.53 2268.95 1169.84 2226.5 1213.48 2192.04 1248.91 2167.76 1273.85 2154.09 1287.87L2077.09 1229.15C2065.62 1219.14 2048.23 1220.35 2038.25 1231.82 2028.26 1243.3 2029.47 1260.72 2040.94 1270.73 2041.86 1271.51 2042.82 1272.25 2043.83 1272.94L2140.18 1346.45C2151.14 1354.76 2166.58 1353.75 2176.32 1344.01 2182.53 1337.76 2223.64 1295.59 2266.08 1251.94 2308.52 1208.32 2352.3 1163.18 2355.27 1160.22 2366.12 1149.55 2366.29 1132.1 2355.64 1121.23 2350.27 1115.75 2342.86 1112.76 2335.2 1112.98ZM2197.34 957.005 2209.34 959.069 2209.37 959.069C2248.23 973.082 2287.47 987.451 2323.42 1004.45L2323.45 1004.45C2357.72 1020.65 2388.9 1039.18 2419.26 1057.68L2419.36 1057.75C2429.33 1063.94 2436 1074.98 2436 1087.59L2436 1088.68C2435.21 1183.24 2433.07 1280.75 2395.36 1349.55L2395.31 1349.62C2357.22 1419.06 2283.88 1457.74 2213.29 1493.23L2213.29 1493.26C2208.56 1495.65 2203.19 1497 2197.51 1497 2191.94 1497 2186.7 1495.7 2182.02 1493.41L2181.76 1493.26C2111.14 1457.76 2037.78 1419.08 1999.69 1349.62 1961.95 1280.83 1959.82 1183.16 1959 1088.6L1959 1087.58C1959 1074.97 1965.64 1063.91 1975.62 1057.75L1975.62 1057.72C2006.03 1039.22 2037.23 1020.67 2071.56 1004.44 2106.78 987.805 2145.15 973.69 2183.19 959.982L2183.24 959.955C2187.49 958.096 2192.2 957.025 2197.14 957.025L2197.34 957.025ZM2197.34 957 2197.34 957.005 2197.33 957.005Z" fill="#2A9D8F" fill-rule="evenodd"/></g></svg>
