<svg width="3805" height="1773" xmlns="http://www.w3.org/2000/svg" xmlns:xlink="http://www.w3.org/1999/xlink" xml:space="preserve" overflow="hidden"><defs><clipPath id="clip0"><rect x="260" y="394" width="3805" height="1773"/></clipPath><clipPath id="clip1"><rect x="259" y="795" width="1719" height="938"/></clipPath><clipPath id="clip2"><rect x="259" y="795" width="1719" height="938"/></clipPath><clipPath id="clip3"><rect x="259" y="795" width="1719" height="938"/></clipPath></defs><g clip-path="url(#clip0)" transform="translate(-260 -394)"><g><g><g><path d="M2670.03 457.313C2672.96 457.077 2676 457.215 2678.93 457.327 2781.07 461.238 2861.34 550.33 2857.22 651.959 2854.16 727.536 2805.24 795.776 2733.94 821.651 2714.07 828.859 2691.15 833.636 2670.03 832.706 2620.88 834.399 2571.04 811.408 2536.72 776.986 2464.93 704.974 2463.44 584.548 2536.04 512.472 2571.89 476.881 2619.46 457.107 2670.03 457.313Z" fill="#F4A261"/><path d="M2589.54 710.048C2558.63 672.123 2557.93 615.419 2590.09 578.042 2622.95 539.863 2678.71 530.784 2722.29 555.367 2726.72 557.861 2731.3 560.581 2735.16 563.903 2723.77 570.289 2712.65 577.412 2701.56 584.297L2664.86 606.965C2660.98 609.4 2648.69 616.121 2646.19 618.724 2642.93 622 2636.28 634.383 2633.32 639.099L2605.78 683.635C2600.36 692.454 2594.81 701.133 2589.54 710.048Z" fill="#2A9D8F"/><path d="M2735.16 563.903C2737.18 563.574 2768.84 544.101 2771.84 541.74 2768.2 550.438 2759.77 564.123 2754.81 572.384 2753.31 574.883 2751.11 577.365 2749.98 580.031 2785.76 624.669 2779.46 688.734 2734.55 724.68 2699.04 753.1 2639.6 756.14 2604.91 725.068 2592.24 732.303 2577.13 741.746 2565.28 749.946 2569.15 740.339 2583.69 718.841 2589.54 710.048 2594.81 701.133 2600.36 692.454 2605.78 683.635L2633.32 639.099C2636.28 634.383 2642.93 622 2646.19 618.724 2648.69 616.121 2660.98 609.4 2664.86 606.965L2701.56 584.297C2712.65 577.412 2723.77 570.289 2735.16 563.903Z" fill="#5776A3"/><path d="M2735.16 563.903C2737.18 563.574 2768.84 544.101 2771.84 541.74 2768.2 550.438 2759.77 564.123 2754.81 572.384 2753.31 574.883 2751.11 577.365 2749.98 580.031 2740.58 597.667 2729.12 614.24 2718.77 631.331L2702.48 658.117C2700 662.158 2697.63 667.006 2694.51 670.548 2683.47 655.891 2665.98 639.643 2653.29 625.93 2651.01 623.458 2648.33 621.322 2646.19 618.724 2648.69 616.121 2660.98 609.4 2664.86 606.965L2701.56 584.297C2712.65 577.412 2723.77 570.289 2735.16 563.903Z" fill="#E76F51"/><path d="M2589.54 710.048C2594.81 701.133 2600.36 692.454 2605.78 683.635L2633.32 639.099C2636.28 634.383 2642.93 622 2646.19 618.724 2648.33 621.322 2651.01 623.458 2653.29 625.93 2665.98 639.643 2683.47 655.891 2694.51 670.548 2673.75 682.621 2653.43 695.478 2632.95 708.01L2614.79 718.934C2611.53 720.887 2607.93 722.757 2604.91 725.068 2592.24 732.303 2577.13 741.746 2565.28 749.946 2569.15 740.339 2583.69 718.841 2589.54 710.048Z" fill="#6DBF98"/></g></g></g><text fill="#5776A3" font-family="Aptos,Aptos_MSFontService,sans-serif" font-weight="400" font-size="87" transform="matrix(1 0 0 1 2531.33 919)">explore</text><g><g><g><path d="M3014.47 1180.32C3015.83 1180.25 3017.19 1180.31 3018.55 1180.32 3018.69 1188.57 3018.55 1196.86 3018.55 1205.11L3018.54 1295.56C3018.54 1302.35 3018.72 1309.16 3018.55 1315.94L2963.14 1315.94 2958.27 1315.94 2958.26 1222.77C2958.27 1208.63 2958.5 1194.46 2958.27 1180.32L3014.47 1180.32Z" fill="#E76F51"/><path d="M3095.17 1124C3097.04 1123.86 3098.88 1123.92 3100.76 1124L3100.76 1315.94 3047.4 1315.94C3045.3 1315.99 3043.22 1315.98 3041.12 1315.94L3041.12 1144.43C3041.12 1137.66 3041.46 1130.74 3041.12 1124L3095.17 1124Z" fill="#2A9D8F"/><path d="M3123.94 1060.67 3165.44 1060.67C3171.59 1060.67 3177.78 1060.48 3183.92 1060.67L3183.91 1288.77C3183.9 1297.79 3184.27 1306.93 3183.92 1315.94L3123.94 1315.94 3123.94 1060.67Z" fill="#F4A261"/><path d="M3206.76 1003.66C3213.33 1003.85 3219.98 1003.66 3226.57 1003.66L3266.73 1003.66 3266.73 1315.94 3206.76 1315.94 3206.76 1003.66Z" fill="#5776A3"/></g></g></g><text fill="#5776A3" font-family="Aptos,Aptos_MSFontService,sans-serif" font-weight="400" font-size="78" transform="matrix(1 0 0 1 2921.09 1430)">benchmark</text><g><g><g><path d="M2551.07 1434.28C2554.36 1436.36 2558.18 1440.9 2561.01 1443.74L2650.13 1533.12C2655.46 1538.52 2661.14 1543.63 2662.91 1551.35 2668.11 1574.09 2642.57 1592.08 2622.64 1579.1 2617.8 1575.94 2613.69 1570.97 2609.57 1566.93 2577.35 1535.28 2546.1 1502.66 2513.84 1471.05 2528.8 1461.18 2540.77 1448.89 2551.07 1434.28Z" fill="#5776A3"/><path d="M2513.84 1471.05C2467.56 1500.41 2410.11 1503.36 2362.37 1474.46 2258.28 1411.45 2280.36 1248.2 2402.96 1218.49 2437.46 1210.13 2476.62 1216.26 2506.78 1234.75 2563.53 1269.53 2591.38 1341.16 2566.61 1404.36 2562.44 1414.99 2557.02 1424.57 2551.07 1434.28 2540.77 1448.89 2528.8 1461.18 2513.84 1471.05Z" fill="#F4A261"/><path d="M2431.39 1256.96C2436.32 1256.66 2441.19 1257.11 2446.09 1257.69 2495.88 1263.64 2531.95 1303.82 2533.26 1354.08 2534.61 1405.89 2491.57 1452.05 2439.6 1453.38 2379.57 1455.51 2331.49 1405.51 2337.79 1345.49 2343.06 1295.28 2382 1260.31 2431.39 1256.96Z" fill="#2A9D8F"/></g></g></g><text fill="#5776A3" font-family="Aptos,Aptos_MSFontService,sans-serif" font-weight="400" font-size="87" transform="matrix(1 0 0 1 2310.94 1660)">compare</text><g><g><g><path d="M261.067 289.574C267.778 287.698 272.974 294.906 273.896 300.78 274.875 307.012 269.719 311.408 265.822 315.44L253.803 327.664C250.746 330.729 247.387 333.709 244.863 337.231 248.309 339.478 267.309 359.126 270.575 363.594 277.668 373.298 268.818 385.453 256.209 382.862 251.451 380.999 248.441 376.823 245.029 373.248L233.493 361.158C228.584 355.918 223.333 350.951 218.493 345.665 209.362 335.695 219.148 327.868 226.021 321.025L240.532 306.445C245.622 301.258 254.296 289.129 261.067 289.574Z" fill="#F4A261" transform="matrix(1.00211 0 0 1 2907 1578)"/><path d="M359.793 289.574C364.004 289.339 367.212 290.142 370.381 293.2 379.656 302.151 388.672 311.517 397.626 320.79 413.422 337.152 415.404 336.427 396.704 355.146 387.393 364.468 377.83 373.527 368.53 382.862 355.857 388.177 344.84 375.364 351.227 365.567 353.196 362.545 356.6 360.022 359.171 357.476L379.705 337.231C374.757 330.902 364.608 321.62 358.689 315.803 356.329 313.484 353.634 311.247 351.626 308.612 345.846 301.029 351.391 291.483 359.793 289.574Z" fill="#E76F51" transform="matrix(1.00211 0 0 1 2907 1578)"/><path d="M328.538 273.811C336.451 273.517 344.742 278.847 342.396 287.888 341.715 290.514 340.637 293.148 339.767 295.725L308.046 388.646C305.491 396.285 304.537 404.146 295.717 406.794 289.087 408.715 279.752 401.333 281.296 394.156 282.891 386.737 286.125 379.494 288.57 372.308L315.642 292.996C318.36 285.16 319.326 276.263 328.538 273.811Z" fill="#5776A3" transform="matrix(1.00211 0 0 1 2907 1578)"/><path d="M166.495 64.1184C246.465 62.0443 258.393 166.534 190.797 187.78 186.188 189.229 181.334 189.896 176.619 190.939 122.796 195.779 86.6777 131.312 121.795 87.2108 133.373 72.6715 148.456 66.1604 166.495 64.1184Z" fill="#F4A261" transform="matrix(1.00211 0 0 1 2907 1578)"/><path d="M141.407 192.64 190.674 192.644C219.574 192.642 243.367 191.644 263.388 218.09 275.39 233.943 277.312 249.808 274.642 268.897 253.066 258.846 246.717 270.67 233.383 284.207L206.996 310.971C199.892 318.269 190.145 324.087 189.966 335.238 190.025 338.904 191.133 341.642 192.604 344.946 183.614 345.274 174.505 344.948 165.499 344.946L111.988 344.957C101.207 344.951 92.6216 345.033 83.1733 338.962 64.0752 326.688 64.3933 311.933 64.4127 292.359L64.4095 263.27C64.4508 225.882 88.8689 196.06 127.248 192.901 131.95 192.514 136.691 192.632 141.407 192.64Z" fill="#2A9D8F" transform="matrix(1.00211 0 0 1 2907 1578)"/></g></g></g><text fill="#5776A3" font-family="Aptos,Aptos_MSFontService,sans-serif" font-weight="400" font-size="87" transform="matrix(1 0 0 1 2948.77 2090)">contribute</text><g><g><g><path d="M3549.04 808.251C3506.09 808.656 3461.24 790.363 3429.7 761.685 3347.84 687.237 3354.3 555.626 3442.54 489.083 3471.39 467.327 3512.35 452.032 3549.04 453.676 3549.24 468.058 3549.04 482.475 3549.04 496.861L3549.03 618.263C3549.03 623.479 3548.63 630.246 3549.04 635.247L3549.04 635.247C3549.23 648.316 3549.04 661.414 3549.04 674.485L3549 683.77C3548.97 685.816 3548.79 687.965 3549.04 689.997L3549.04 689.997C3549.29 703.14 3549.04 716.338 3549.04 729.484L3549.04 808.251Z" fill="#E9C46A"/><path d="M3549.04 689.997C3541.8 696.44 3528.2 712.491 3521.3 716.84 3509.57 724.229 3501.24 715.752 3493.77 708.327L3416.45 631.431C3406.51 621.591 3406.05 620.438 3417.1 609.305L3424.5 601.762C3434.64 591.521 3442.37 604.249 3449.3 611.21L3499.83 661.357C3503.56 665.093 3507.49 668.657 3511.07 672.543 3522.6 660.8 3536.83 645.99 3549.04 635.247 3549.23 648.316 3549.04 661.414 3549.04 674.485L3549 683.77C3548.97 685.816 3548.79 687.965 3549.04 689.997L3549.04 689.997Z" fill="#2A9D8F"/><path d="M3549.04 453.676C3646.68 452.328 3725.23 532.848 3726.26 629.973 3727.29 726.22 3645.71 810.135 3549.04 808.251L3549.04 729.484C3549.04 716.338 3549.29 703.14 3549.04 689.997L3549.04 689.997C3548.79 687.965 3548.97 685.816 3549 683.77L3549.04 674.485C3549.04 661.414 3549.23 648.316 3549.04 635.247L3549.04 635.247C3548.63 630.246 3549.03 623.479 3549.03 618.263L3549.04 496.861C3549.04 482.475 3549.24 468.058 3549.04 453.676Z" fill="#F4A261"/><path d="M3549.04 635.247C3551.98 631.985 3555.12 628.912 3558.19 625.762L3656.66 526.655C3670.44 512.614 3671.49 516.51 3684.32 528.868 3696.6 540.702 3697.55 540.481 3683.94 554.018L3569.27 669.569C3562.53 676.359 3555.52 682.974 3549.04 689.997 3548.79 687.965 3548.97 685.816 3549 683.77L3549.04 674.485C3549.04 661.414 3549.23 648.316 3549.04 635.247L3549.04 635.247Z" fill="#5776A3"/></g></g></g><text fill="#5776A3" font-family="Aptos,Aptos_MSFontService,sans-serif" font-weight="400" font-size="87" transform="matrix(1 0 0 1 3400.57 891)">validate</text><g><g><g><path d="M3864.93 1323.29 3950.46 1323.28C3968.42 1323.26 3986.7 1327.27 3991.08 1348.5 3992.42 1354.97 3992.03 1362.25 3992.02 1368.84L3992.01 1481.35C3992 1492.58 3990.88 1499.76 3982.57 1508.06 3978.25 1512.37 3973.74 1513.06 3969.83 1516.38 3957.53 1526.81 3942.99 1541.25 3932.49 1553.12 3923.77 1540.38 3916.9 1533.67 3906.2 1523.4 3903.47 1520.79 3900.79 1517.64 3897.78 1515.39 3878.92 1515.13 3860.02 1515.36 3841.16 1515.39L3827.33 1515.41C3810.96 1515.43 3796.4 1511.53 3792.01 1492.63 3790.43 1485.8 3791.12 1476.35 3791.12 1469.2L3791.12 1434.39C3791.13 1431.36 3791.57 1424.64 3791.12 1422.12L3791.12 1422.12 3820.84 1422.13C3827.69 1422.13 3836.01 1422.81 3842.64 1421.22 3868 1415.12 3864.94 1391.6 3864.93 1372.02L3864.93 1323.29 3864.93 1323.29Z" fill="#F4A261"/><path d="M3791.12 1422.12C3784.55 1422.58 3777.87 1422.12 3771.28 1422.12L3704.37 1422.13C3686.06 1422.13 3667.69 1419.1 3663.16 1396.9 3661.95 1390.98 3662.41 1384.58 3662.42 1378.55L3662.39 1255.88C3662.24 1233.24 3674.83 1220.01 3697.75 1219.92L3817.2 1219.94C3837.41 1219.94 3858.18 1221.02 3863.97 1246.01 3865.68 1253.41 3864.94 1267.09 3864.94 1275.17L3864.93 1323.29 3864.93 1323.29 3864.93 1372.02C3864.94 1391.6 3868 1415.12 3842.64 1421.22 3836.01 1422.81 3827.69 1422.13 3820.84 1422.13L3791.12 1422.12 3791.12 1422.12Z" fill="#2A9D8F"/><path d="M3786.72 1422.12C3786.38 1409.23 3786.72 1396.25 3786.72 1383.35L3786.71 1367.8C3786.7 1347.74 3791.15 1330.39 3813.99 1324.52 3820.44 1322.86 3827.52 1323.28 3834.14 1323.29L3854.33 1323.28C3857.86 1323.28 3861.41 1323.43 3864.93 1323.29L3864.93 1372.02C3864.94 1391.6 3868 1415.12 3842.64 1421.22 3836.01 1422.81 3827.69 1422.13 3820.84 1422.13L3791.12 1422.12C3789.67 1422.03 3788.18 1422.11 3786.72 1422.12Z" fill="#5776A3"/></g></g></g><text fill="#5776A3" font-family="Aptos,Aptos_MSFontService,sans-serif" font-weight="400" font-size="78" transform="matrix(1 0 0 1 3636.25 1639)">collaborate</text><g clip-path="url(#clip1)"><g clip-path="url(#clip2)"><g clip-path="url(#clip3)"><path d="M1376.03 1475.57 1376.03 1126.72 2761.29 1126.72 2761.29 1475.57 1376.03 1475.57ZM2571.48 1380.33 2589.87 1380.33 2589.87 1323.16C2594.01 1328.49 2599 1332.42 2604.86 1334.95 2610.86 1337.48 2617.06 1338.75 2623.46 1338.75 2632.52 1338.75 2640.38 1336.82 2647.04 1332.95 2653.71 1329.22 2658.9 1323.96 2662.63 1317.16 2666.36 1310.37 2668.23 1302.44 2668.23 1293.37L2668.23 1234.41 2649.84 1234.41 2649.84 1293.18C2649.84 1299.31 2648.44 1304.57 2645.64 1308.97 2642.84 1313.5 2639.11 1316.96 2634.45 1319.36 2629.92 1321.76 2625.05 1322.96 2619.85 1322.96 2614.66 1322.96 2609.79 1321.76 2605.26 1319.36 2600.73 1317.09 2597 1313.77 2594.07 1309.37 2591.27 1304.97 2589.87 1299.7 2589.87 1293.57L2589.87 1234.41 2571.48 1234.41 2571.48 1380.33ZM1470.47 1374.33 1529.44 1374.33C1538.24 1374.33 1546.23 1372.33 1553.43 1368.33 1560.63 1364.47 1566.36 1359 1570.62 1351.94 1574.88 1344.88 1577.01 1336.62 1577.01 1327.16 1577.01 1317.96 1574.88 1309.83 1570.62 1302.77 1566.49 1295.71 1560.83 1290.18 1553.63 1286.18 1546.43 1282.18 1538.23 1280.18 1529.04 1280.18L1489.66 1280.18 1489.66 1234.41 1470.47 1234.41 1470.47 1374.33ZM2111.93 1374.33 2187.89 1374.33C2194.95 1374.33 2201.15 1372.73 2206.48 1369.54 2211.81 1366.47 2216 1362.27 2219.07 1356.94 2222.13 1351.61 2223.67 1345.55 2223.67 1338.75 2223.67 1334.09 2222.67 1329.55 2220.67 1325.16 2218.8 1320.89 2216.14 1317.16 2212.68 1313.96 2209.21 1310.76 2205.08 1308.37 2200.28 1306.77 2205.74 1305.44 2210.48 1303.03 2214.48 1299.57 2218.47 1296.11 2221.6 1291.98 2223.87 1287.18 2226.27 1282.38 2227.47 1277.19 2227.47 1271.59 2227.47 1264.66 2225.87 1258.39 2222.67 1252.8 2219.47 1247.2 2215.01 1242.74 2209.28 1239.41 2203.68 1236.07 2196.95 1234.41 2189.08 1234.41L2111.93 1234.41 2111.93 1374.33ZM1796.7 1361.94 1815.09 1361.94 1815.09 1336.35 1850.07 1336.35 1850.07 1320.56 1815.09 1320.56 1815.09 1264.59C1815.09 1260.2 1816.29 1256.66 1818.69 1254 1821.22 1251.47 1824.68 1250.2 1829.08 1250.2L1849.67 1250.2 1849.67 1234.41 1825.68 1234.41C1816.62 1234.41 1809.49 1237.01 1804.3 1242.2 1799.23 1247.4 1796.7 1254.46 1796.7 1263.39L1796.7 1320.56 1779.11 1320.56 1779.11 1336.35 1796.7 1336.35 1796.7 1361.94ZM1489.66 1357.34 1489.66 1297.18 1526.84 1297.18C1532.57 1297.18 1537.77 1298.31 1542.44 1300.57 1547.23 1302.97 1550.96 1306.44 1553.63 1310.97 1556.43 1315.5 1557.83 1320.89 1557.83 1327.16 1557.83 1333.55 1556.43 1338.95 1553.63 1343.35 1550.96 1347.88 1547.23 1351.34 1542.44 1353.74 1537.77 1356.14 1532.64 1357.34 1527.04 1357.34L1489.66 1357.34ZM2131.12 1357.34 2131.12 1313.77 2181.29 1313.77C2185.95 1313.77 2190.02 1314.76 2193.49 1316.76 2197.08 1318.89 2199.81 1321.63 2201.68 1324.96 2203.68 1328.43 2204.68 1332.02 2204.68 1335.75 2204.68 1339.62 2203.74 1343.15 2201.88 1346.35 2200.01 1349.68 2197.41 1352.35 2194.08 1354.34 2190.75 1356.34 2186.89 1357.34 2182.49 1357.34L2131.12 1357.34ZM1713.74 1338.75C1724.14 1338.75 1733.33 1336.35 1741.33 1331.56 1749.46 1326.89 1755.79 1320.49 1760.32 1312.36 1764.98 1304.37 1767.32 1295.38 1767.32 1285.38 1767.32 1275.39 1764.98 1266.32 1760.32 1258.19 1755.79 1250.2 1749.46 1243.8 1741.33 1239 1733.33 1234.34 1724.14 1232.01 1713.74 1232.01 1703.35 1232.01 1694.15 1234.34 1686.16 1239 1678.16 1243.8 1671.83 1250.2 1667.17 1258.19 1662.5 1266.32 1660.17 1275.39 1660.17 1285.38 1660.17 1295.38 1662.5 1304.37 1667.17 1312.36 1671.83 1320.49 1678.16 1326.89 1686.16 1331.56 1694.15 1336.35 1703.35 1338.75 1713.74 1338.75ZM1915.63 1338.75C1926.16 1338.75 1934.89 1336.49 1941.82 1331.96 1948.88 1327.43 1954.15 1321.3 1957.61 1313.57 1961.08 1305.97 1962.81 1297.44 1962.81 1287.98 1962.81 1286.51 1962.74 1284.98 1962.61 1283.38 1962.61 1281.78 1962.47 1280.38 1962.21 1279.19L1886.25 1279.19C1886.92 1272.92 1888.98 1267.59 1892.44 1263.19 1895.91 1258.93 1900.31 1255.66 1905.64 1253.4 1911.1 1251.27 1917.1 1250.2 1923.63 1250.2L1950.21 1250.2 1950.21 1234.41 1924.03 1234.41C1912.84 1234.41 1902.9 1236.47 1894.24 1240.61 1885.58 1244.87 1878.79 1250.8 1873.86 1258.4 1869.06 1266.13 1866.66 1275.12 1866.66 1285.38 1866.66 1295.51 1868.72 1304.57 1872.85 1312.57 1876.99 1320.7 1882.72 1327.09 1890.05 1331.76 1897.37 1336.42 1905.9 1338.75 1915.63 1338.75ZM2034.17 1338.75C2044.57 1338.75 2053.76 1336.35 2061.76 1331.56 2069.89 1326.89 2076.22 1320.49 2080.75 1312.36 2085.41 1304.37 2087.74 1295.38 2087.74 1285.38 2087.74 1275.39 2085.41 1266.32 2080.75 1258.19 2076.22 1250.2 2069.89 1243.8 2061.76 1239 2053.76 1234.34 2044.57 1232.01 2034.17 1232.01 2023.78 1232.01 2014.58 1234.34 2006.59 1239 1998.59 1243.8 1992.26 1250.2 1987.6 1258.19 1982.93 1266.32 1980.6 1275.39 1980.6 1285.38 1980.6 1295.38 1982.93 1304.37 1987.6 1312.36 1992.26 1320.49 1998.59 1326.89 2006.59 1331.56 2014.58 1336.35 2023.78 1338.75 2034.17 1338.75ZM2293.83 1338.75C2304.36 1338.75 2313.09 1336.49 2320.01 1331.96 2327.08 1327.43 2332.35 1321.3 2335.81 1313.57 2339.28 1305.97 2341.01 1297.44 2341.01 1287.98 2341.01 1286.51 2340.94 1284.98 2340.8 1283.38 2340.8 1281.78 2340.67 1280.38 2340.4 1279.19L2264.45 1279.19C2265.11 1272.92 2267.18 1267.59 2270.64 1263.19 2274.11 1258.93 2278.5 1255.66 2283.83 1253.4 2289.3 1251.27 2295.29 1250.2 2301.82 1250.2L2328.41 1250.2 2328.41 1234.41 2302.23 1234.41C2291.03 1234.41 2281.1 1236.47 2272.44 1240.61 2263.78 1244.87 2256.98 1250.8 2252.05 1258.4 2247.25 1266.13 2244.86 1275.12 2244.86 1285.38 2244.86 1295.51 2246.92 1304.57 2251.05 1312.57 2255.18 1320.7 2260.91 1327.09 2268.24 1331.76 2275.57 1336.42 2284.1 1338.75 2293.83 1338.75ZM2411.97 1338.75C2421.29 1338.75 2429.49 1336.82 2436.56 1332.95 2443.75 1329.22 2449.35 1323.96 2453.34 1317.16 2457.47 1310.37 2459.54 1302.44 2459.54 1293.37L2459.54 1234.41 2441.15 1234.41 2441.15 1293.18C2441.15 1299.31 2439.75 1304.57 2436.95 1308.97 2434.29 1313.5 2430.69 1316.96 2426.16 1319.36 2421.76 1321.76 2417.03 1322.96 2411.97 1322.96 2406.9 1322.96 2402.1 1321.76 2397.57 1319.36 2393.18 1316.96 2389.58 1313.5 2386.78 1308.97 2384.12 1304.57 2382.78 1299.31 2382.78 1293.18L2382.78 1234.41 2364.4 1234.41 2364.4 1293.37C2364.4 1302.44 2366.39 1310.37 2370.39 1317.16 2374.52 1323.96 2380.19 1329.22 2387.38 1332.95 2394.58 1336.82 2402.77 1338.75 2411.97 1338.75ZM1627.79 1336.35 1648.77 1336.35 1648.77 1320.56 1631.19 1320.56C1626.79 1320.56 1623.33 1319.29 1620.79 1316.76 1618.39 1314.23 1617.2 1310.7 1617.2 1306.17L1617.2 1234.41 1598.8 1234.41 1598.8 1307.37C1598.8 1316.43 1601.33 1323.49 1606.4 1328.55 1611.59 1333.75 1618.73 1336.35 1627.79 1336.35ZM2538.1 1336.35 2550.09 1336.35 2550.09 1320.56 2537.5 1320.56C2530.71 1320.56 2524.57 1318.96 2519.11 1315.76 2513.78 1312.7 2509.52 1308.5 2506.32 1303.17 2503.25 1297.84 2501.72 1291.91 2501.72 1285.38 2501.72 1278.85 2503.25 1272.92 2506.32 1267.59 2509.52 1262.26 2513.78 1257.99 2519.11 1254.79 2524.57 1251.73 2530.71 1250.2 2537.5 1250.2L2550.09 1250.2 2550.09 1234.41 2538.1 1234.41C2527.57 1234.41 2518.18 1236.67 2509.92 1241.21 2501.65 1245.74 2495.12 1251.8 2490.32 1259.4 2485.53 1267.12 2483.13 1275.79 2483.13 1285.38 2483.13 1294.98 2485.53 1303.57 2490.32 1311.17 2495.12 1318.9 2501.65 1325.02 2509.92 1329.55 2518.18 1334.08 2527.57 1336.35 2538.1 1336.35ZM1915.63 1323.36C1910.97 1323.36 1906.84 1322.43 1903.24 1320.56 1899.78 1318.83 1896.77 1316.43 1894.24 1313.36 1891.71 1310.43 1889.78 1307.1 1888.45 1303.37 1887.11 1299.64 1886.32 1295.91 1886.05 1292.18L1944.22 1292.18C1944.22 1294.71 1943.95 1297.37 1943.42 1300.17 1942.88 1303.1 1941.95 1305.9 1940.62 1308.57 1939.29 1311.37 1937.49 1313.83 1935.23 1315.96 1933.09 1318.23 1930.36 1320.03 1927.03 1321.36 1923.83 1322.7 1920.03 1323.36 1915.63 1323.36ZM2293.83 1323.36C2289.16 1323.36 2285.04 1322.43 2281.44 1320.56 2277.97 1318.83 2274.97 1316.43 2272.44 1313.36 2269.91 1310.43 2267.98 1307.1 2266.64 1303.37 2265.31 1299.64 2264.52 1295.91 2264.25 1292.18L2322.41 1292.18C2322.41 1294.71 2322.15 1297.37 2321.61 1300.17 2321.08 1303.1 2320.15 1305.9 2318.82 1308.57 2317.48 1311.37 2315.69 1313.83 2313.42 1315.96 2311.29 1318.23 2308.55 1320.03 2305.22 1321.36 2302.02 1322.7 2298.23 1323.36 2293.83 1323.36ZM1713.74 1322.96C1706.81 1322.96 1700.68 1321.3 1695.35 1317.96 1690.15 1314.63 1686.09 1310.1 1683.16 1304.37 1680.22 1298.77 1678.76 1292.44 1678.76 1285.38 1678.76 1278.32 1680.22 1271.92 1683.16 1266.19 1686.09 1260.6 1690.15 1256.13 1695.35 1252.8 1700.68 1249.46 1706.81 1247.8 1713.74 1247.8 1720.81 1247.8 1726.93 1249.46 1732.13 1252.8 1737.33 1256.13 1741.39 1260.6 1744.32 1266.19 1747.26 1271.92 1748.72 1278.32 1748.72 1285.38 1748.72 1292.44 1747.26 1298.77 1744.32 1304.37 1741.39 1310.1 1737.33 1314.63 1732.13 1317.96 1726.93 1321.3 1720.81 1322.96 1713.74 1322.96ZM2034.17 1322.96C2027.24 1322.96 2021.11 1321.3 2015.78 1317.96 2010.58 1314.63 2006.52 1310.1 2003.58 1304.37 2000.65 1298.77 1999.19 1292.44 1999.19 1285.38 1999.19 1278.32 2000.65 1271.92 2003.58 1266.19 2006.52 1260.6 2010.58 1256.13 2015.78 1252.8 2021.11 1249.46 2027.24 1247.8 2034.17 1247.8 2041.23 1247.8 2047.37 1249.46 2052.56 1252.8 2057.76 1256.13 2061.82 1260.6 2064.75 1266.19 2067.68 1271.92 2069.15 1278.32 2069.15 1285.38 2069.15 1292.44 2067.68 1298.77 2064.75 1304.37 2061.82 1310.1 2057.76 1314.63 2052.56 1317.96 2047.37 1321.3 2041.23 1322.96 2034.17 1322.96ZM2131.12 1297.57 2131.12 1251.4 2184.69 1251.4C2189.62 1251.4 2193.82 1252.46 2197.28 1254.59 2200.75 1256.86 2203.41 1259.72 2205.28 1263.19 2207.28 1266.79 2208.28 1270.59 2208.28 1274.58 2208.28 1278.71 2207.28 1282.45 2205.28 1285.78 2203.28 1289.24 2200.48 1292.04 2196.88 1294.17 2193.28 1296.44 2189.02 1297.57 2184.09 1297.57L2131.12 1297.57Z" fill="#5776A3" fill-rule="evenodd" transform="matrix(1.0001 0 0 -1 -950.032 2340.25)"/><path d="M2508.03 675.875 2508.03 964.341 2602.77 964.341 2602.77 675.875ZM1534.55 675.834 1534.55 983.335 1629.29 983.335 1629.29 675.834ZM1290.08 935.965 1290.08 1030.71 2847.58 1030.71 2847.58 935.965Z" fill="#5776A3" transform="matrix(1.0001 0 0 -1 -950.032 2340.25)"/></g></g></g></g></svg>
