<svg width="2488" height="1556" xmlns="http://www.w3.org/2000/svg" xmlns:xlink="http://www.w3.org/1999/xlink" xml:space="preserve" overflow="hidden"><g transform="translate(-956 -466)"><path d="M2290.17 1441.35C2315.55 1434.26 2335.2 1461.5 2338.69 1483.69 2342.4 1507.24 2322.89 1523.85 2308.16 1539.09L2262.7 1585.29C2251.14 1596.87 2238.43 1608.13 2228.89 1621.44 2241.92 1629.93 2313.78 1704.17 2326.13 1721.06 2352.96 1757.73 2319.49 1803.66 2271.8 1793.87 2253.8 1786.82 2242.42 1771.05 2229.52 1757.54L2185.89 1711.85C2167.32 1692.05 2147.46 1673.28 2129.16 1653.31 2094.62 1615.63 2131.63 1586.06 2157.63 1560.2L2212.51 1505.1C2231.76 1485.5 2264.56 1439.67 2290.17 1441.35Z" fill="#F4A261" fill-rule="evenodd"/><path d="M2663.08 1441.35C2679 1440.46 2691.13 1443.5 2703.1 1455.04 2738.16 1488.83 2772.23 1524.18 2806.07 1559.19 2865.77 1620.95 2873.26 1618.21 2802.59 1688.88 2767.4 1724.07 2731.25 1758.26 2696.11 1793.5 2648.21 1813.57 2606.57 1765.2 2630.71 1728.21 2638.16 1716.81 2651.02 1707.29 2660.74 1697.67L2738.34 1621.25C2719.64 1597.36 2681.28 1562.32 2658.91 1540.36 2650 1531.61 2639.81 1523.16 2632.22 1513.22 2610.37 1484.59 2631.33 1448.56 2663.08 1441.35Z" fill="#E76F51" fill-rule="evenodd"/><path d="M2544.54 1382.25C2574.3 1381.14 2605.49 1401.25 2596.67 1435.37 2594.11 1445.28 2590.05 1455.22 2586.78 1464.94L2467.45 1815.57C2457.84 1844.39 2454.25 1874.05 2421.08 1884.04 2396.14 1891.29 2361.02 1863.44 2366.83 1836.35 2372.83 1808.36 2384.99 1781.03 2394.19 1753.92L2496.03 1454.64C2506.25 1425.07 2509.88 1391.5 2544.54 1382.25Z" fill="#5776A3" fill-rule="evenodd"/><path d="M1933.31 590.193C2235.07 582.36 2280.07 976.944 2025.01 1057.17 2007.62 1062.65 1989.3 1065.17 1971.51 1069.11 1768.42 1087.38 1632.13 843.935 1764.64 677.396 1808.33 622.491 1865.25 597.904 1933.31 590.193Z" fill="#F4A261" fill-rule="evenodd"/><path d="M1837.91 1075.25 2023.98 1075.27C2133.13 1075.26 2223 1071.49 2298.61 1171.39 2343.94 1231.28 2351.2 1291.21 2341.12 1363.32 2259.63 1325.36 2235.65 1370.02 2185.29 1421.16L2085.63 1522.27C2058.8 1549.84 2021.99 1571.81 2021.31 1613.94 2021.53 1627.79 2025.72 1638.13 2031.27 1650.61 1997.32 1651.85 1962.92 1650.62 1928.9 1650.61L1726.8 1650.65C1686.08 1650.63 1653.66 1650.94 1617.97 1628.01 1545.84 1581.64 1547.04 1525.9 1547.12 1451.96L1547.1 1342.07C1547.26 1200.83 1639.48 1088.17 1784.43 1076.24 1802.19 1074.78 1820.1 1075.22 1837.91 1075.25Z" fill="#2A9D8F" fill-rule="evenodd"/></g></svg>
