<svg width="2488" height="1556" xmlns="http://www.w3.org/2000/svg" xmlns:xlink="http://www.w3.org/1999/xlink" xml:space="preserve" overflow="hidden"><g transform="translate(-956 -466)"><path d="M2360.79 999.03 2691.63 999C2761.13 998.951 2831.86 1013.65 2848.79 1091.5 2853.96 1115.24 2852.45 1141.93 2852.44 1166.12L2852.4 1578.75C2852.34 1619.95 2848.01 1646.28 2815.85 1676.72 2799.18 1692.53 2781.71 1695.04 2766.57 1707.23 2719.02 1745.49 2662.74 1798.44 2622.13 1842 2588.41 1795.25 2561.84 1770.64 2520.41 1733 2509.88 1723.41 2499.49 1711.86 2487.86 1703.6 2414.91 1702.66 2341.79 1703.51 2268.84 1703.59L2215.33 1703.67C2152 1703.75 2095.66 1689.44 2078.69 1620.14 2072.56 1595.09 2075.24 1560.42 2075.23 1534.21L2075.26 1406.52C2075.29 1395.4 2076.97 1370.78 2075.25 1361.52L2075.25 1361.52 2190.22 1361.55C2216.71 1361.55 2248.92 1364.06 2274.54 1358.21 2372.64 1335.83 2360.81 1249.57 2360.78 1177.78L2360.79 999.03 2360.79 999.03Z" fill="#F4A261" fill-rule="evenodd"/><path d="M2091.48 1361.26C2066.58 1362.93 2041.27 1361.27 2016.32 1361.26L1762.88 1361.29C1693.56 1361.3 1623.98 1350.18 1606.81 1268.78 1602.23 1247.09 1603.98 1223.63 1604 1201.55L1603.88 751.813C1603.34 668.834 1651.01 620.313 1737.8 620L2190.23 620.056C2266.8 620.07 2345.45 624.01 2367.37 715.628 2373.87 742.755 2371.04 792.911 2371.04 822.533L2371.03 998.929 2371.03 998.929 2371.03 1177.6C2371.05 1249.37 2382.63 1335.58 2286.58 1357.95 2261.5 1363.79 2229.97 1361.29 2204.03 1361.29L2091.48 1361.26 2091.48 1361.26Z" fill="#2A9D8F" fill-rule="evenodd"/><path d="M2075.23 1361.44C2073.93 1314.21 2075.24 1266.6 2075.24 1219.34L2075.19 1162.35C2075.13 1088.82 2092 1025.21 2178.42 1003.7 2202.82 997.62 2229.61 999.171 2254.66 999.192L2331.07 999.151C2344.43 999.171 2357.87 999.709 2371.21 999.181L2371.21 1177.82C2371.23 1249.57 2382.8 1335.77 2286.84 1358.13 2261.78 1363.97 2230.27 1361.47 2204.35 1361.47L2091.89 1361.44C2086.4 1361.11 2080.74 1361.4 2075.23 1361.44Z" fill="#5776A3" fill-rule="evenodd"/></g></svg>
