<svg width="2488" height="1556" xmlns="http://www.w3.org/2000/svg" xmlns:xlink="http://www.w3.org/1999/xlink" xml:space="preserve" overflow="hidden"><g transform="translate(-956 -466)"><g><g><g><path d="M818.125 728.139 819.209 727.339C833.87 716.434 856.939 676.639 871.381 679.026 886.455 681.511 906.523 718.453 920.068 728.139 928.386 739.245 938.214 749.131 947.596 759.32 989.617 805 949.616 794.733 920.068 796.753 918.113 1036.12 1091.39 1235.87 1322.03 1284.46 1332.76 1286.72 1343.37 1288.46 1353.85 1291.8L1352.7 1292.54C1240.33 1364.4 1302.14 1340.42 1346.13 1395.2 1331.78 1392.01 1317.16 1390.16 1302.74 1387.26 1026.08 1331.71 813.034 1081.49 814.576 796.753 806.974 796.301 767.676 800.218 776.239 780.285 782.57 765.56 808.162 745.904 818.125 728.139Z" fill="#2A9D8F" fill-rule="evenodd" transform="matrix(1 0 0 1.00042 781.006 443.457)"/><path d="M1492 196.856C1755.13 227.007 1971.35 429.378 2018.45 691.855 2023.65 720.841 2028.17 755.693 2026.01 784.905 2031.85 787.461 2060.74 797.921 2062.19 802.935 2065.66 814.873 2030.53 847.925 2026.01 862.689 2008.21 875.614 1995.44 903.723 1970.85 919.578 1957.03 910.511 1933.3 877.989 1918.79 862.689 1884.64 823.249 1841.63 795.566 1918.79 791.965 1920.09 570.02 1771.55 373.928 1558.61 314.218 1536.69 308.075 1514.36 305.081 1492 301.136 1504.18 285.984 1536.17 271.279 1553.32 251.675 1542.46 232.726 1508.76 214.396 1492 196.856Z" fill="#2A9D8F" fill-rule="evenodd" transform="matrix(1 0 0 1.00042 781.006 443.457)"/><path d="M1971.08 919.061C1995.7 903.213 2008.48 875.117 2026.29 862.192 1993.63 1041.88 1920.91 1183.91 1765.18 1291.56 1669.95 1357.38 1539.77 1401.04 1422.68 1396.47 1422.58 1403.87 1426.92 1442.39 1412.91 1440.29 1400.65 1438.45 1362.16 1399.42 1345.77 1394.81 1301.8 1340.06 1240 1364.03 1352.34 1292.21L1353.49 1291.46C1361.38 1283.51 1409.63 1239.36 1420.14 1248.41 1424.68 1252.32 1422.73 1283.84 1422.68 1291.46 1654.69 1298.64 1861.15 1122.05 1911 898.49 1913.69 886.429 1914.63 873.839 1918.98 862.192 1933.5 877.492 1957.26 909.995 1971.08 919.061Z" fill="#F4A261" fill-rule="evenodd" transform="matrix(1 0 0 1.00042 781.006 443.457)"/><path d="M1419.43 189.722C1419.37 181.304 1416.39 152.584 1422.55 146.618 1431.83 144.065 1475.99 189.084 1491.91 196.91 1508.68 214.451 1542.4 232.779 1553.26 251.728 1536.1 271.332 1504.1 286.035 1491.91 301.187 1479.02 309.412 1467.15 319.138 1455.15 328.572 1409.55 364.384 1419.19 338.827 1419.43 298.194 1200.8 297.129 1001.97 443.015 938.93 654.35 932.883 674.612 927.482 712.091 920.145 728.565 906.607 718.873 886.558 681.943 871.491 679.459 857.055 677.071 834.006 716.86 819.358 727.765L818.273 728.565C818.557 707.167 825.32 679.194 830.508 658.196 897.534 386.859 1136.24 188.666 1419.43 189.722Z" fill="#F4A261" fill-rule="evenodd" transform="matrix(1 0 0 1.00042 781.006 443.457)"/><path d="M1332.4 395.945 1445.97 395.933C1465.64 395.925 1485.43 395.265 1505.09 395.945 1509.35 415.447 1512.41 441.035 1510.26 460.824 1539.72 465.341 1570.74 477.936 1595.79 494.101 1610.21 482.084 1623.11 467.637 1636.55 454.503 1649.37 466.91 1661.47 479.992 1674.19 492.485L1728.18 546.149C1739.96 558.036 1753.78 569.393 1762.3 583.891 1751.99 598.991 1736.97 610.175 1725.76 624.645 1741.27 651.305 1755.58 680.104 1762.3 710.471 1783.74 710.504 1805.2 710.123 1826.64 710.471 1828.95 770.006 1825.97 830.115 1826.64 889.727 1805.51 891.211 1783.55 889.513 1762.3 889.727 1754.15 917.113 1743.25 942.621 1729.6 967.723 1743.48 981.029 1755.98 997.064 1768.81 1011.49 1726.18 1052.51 1684.13 1094.23 1642.66 1136.43 1627.44 1125.41 1612.17 1114.3 1595.79 1105.03 1566.04 1115.77 1543.15 1129.83 1510.26 1140.1L1510.26 1195.03C1510.35 1197.43 1510.64 1196.32 1509.4 1198.38 1450.43 1197.49 1391.38 1198.14 1332.4 1198.14L1332.4 1140.1C1304.34 1130.97 1274.61 1119.42 1248.88 1105.03 1233.94 1114.47 1217.75 1124.63 1204.6 1136.43 1186.74 1122.76 1171.12 1105.63 1155.2 1089.77L1077.45 1011.49C1090.21 998.167 1102.36 984.3 1115.13 970.994 1102.24 947.125 1089.95 922.12 1082.2 896.063 1067.04 890.443 1032.16 887.332 1014.22 883.874L1014.21 766.721C1014.2 746.782 1013.35 726.668 1014.22 706.761 1036.74 705.625 1059.79 701.108 1082.2 698.34 1092.19 673.206 1104.01 649.259 1115.13 624.645L1077.45 583.891 1162.08 499.333C1176.02 485.433 1189.64 470.577 1204.6 457.777 1219.21 470.054 1234.81 481.21 1248.88 494.101 1270.75 477.944 1300.32 468.23 1326.37 460.824 1329.28 439.214 1331.1 417.711 1332.4 395.945Z" fill="#5776A3" fill-rule="evenodd" transform="matrix(1 0 0 1.00042 781.006 443.457)"/><path d="M1173.14 798.547C1173.14 662.584 1283.5 552.369 1419.64 552.369 1555.78 552.369 1666.14 662.584 1666.14 798.547 1666.14 934.51 1555.78 1044.73 1419.64 1044.73 1283.5 1044.73 1173.14 934.51 1173.14 798.547Z" fill="#E9C46A" fill-rule="evenodd" transform="matrix(1 0 0 1.00042 781.006 443.457)"/><path d="M1506.88 718.195C1502.26 718.331 1497.89 720.254 1494.67 723.564 1490.66 727.584 1464.13 754.887 1436.74 783.047 1414.5 805.91 1398.83 822.003 1390.01 831.05L1340.33 793.159C1332.92 786.699 1321.7 787.48 1315.26 794.882 1308.82 802.29 1309.6 813.531 1317 819.99 1317.59 820.493 1318.21 820.971 1318.86 821.416L1381.04 868.851C1388.11 874.214 1398.07 873.562 1404.36 867.277 1408.37 863.244 1434.89 836.032 1462.28 807.865 1489.67 779.717 1517.92 750.589 1519.83 748.679 1526.83 741.794 1526.94 730.533 1520.07 723.519 1516.61 719.983 1511.83 718.053 1506.88 718.195ZM1417.92 617.546 1425.67 618.878 1425.69 618.878C1450.76 627.92 1476.08 637.193 1499.28 648.162L1499.3 648.162C1521.41 658.616 1541.53 670.573 1561.13 682.511L1561.19 682.556C1567.62 686.55 1571.93 693.674 1571.93 701.811L1571.93 702.515C1571.42 763.533 1570.04 826.456 1545.7 870.852L1545.67 870.897C1521.09 915.706 1473.77 940.666 1428.21 963.567L1428.21 963.586C1425.16 965.129 1421.7 966 1418.03 966 1414.44 966 1411.06 965.161 1408.04 963.683L1407.87 963.586C1362.3 940.679 1314.96 915.719 1290.38 870.897 1266.03 826.507 1264.65 763.482 1264.12 702.463L1264.12 701.805C1264.12 693.668 1268.41 686.531 1274.85 682.556L1274.85 682.537C1294.47 670.599 1314.6 658.629 1336.76 648.156 1359.48 637.421 1384.24 628.313 1408.79 619.467L1408.82 619.45C1411.57 618.25 1414.61 617.559 1417.79 617.559L1417.92 617.559ZM1417.92 617.543 1417.92 617.546 1417.92 617.546Z" fill="#2A9D8F" fill-rule="evenodd" transform="matrix(1 0 0 1.00042 781.006 443.457)"/></g></g></g></g></svg>
