<?xml version="1.0" encoding="UTF-8" standalone="no"?>
<!DOCTYPE svg PUBLIC "-//W3C//DTD SVG 1.1//EN" "http://www.w3.org/Graphics/SVG/1.1/DTD/svg11.dtd">
<svg width="100%" height="100%" viewBox="0 0 206 43" version="1.1" xmlns="http://www.w3.org/2000/svg" xmlns:xlink="http://www.w3.org/1999/xlink" xml:space="preserve" xmlns:serif="http://www.serif.com/" style="fill-rule:evenodd;clip-rule:evenodd;stroke-linejoin:round;stroke-miterlimit:2;">
    <g transform="matrix(1,0,0,1,0,-15.0286)">
        <rect x="4.529" y="28.034" width="1.007" height="1.007" style="fill:rgb(65,64,66);"/>
    </g>
    <g transform="matrix(1,0,0,1,0,4.0654)">
        <rect x="4.529" y="18.487" width="1.007" height="1.007" style="fill:rgb(65,64,66);"/>
    </g>
    <g transform="matrix(1,0,0,1,0,29.5224)">
        <rect x="131.594" y="5.581" width="1.362" height="1.362" style="fill:rgb(65,64,66);"/>
    </g>
    <g transform="matrix(1,0,0,1,126.595,36.4653)">
        <path d="M0,-4.542L-1.362,-4.542L-1.362,0L3.181,0L3.181,-1.362L0,-1.362L0,-4.542Z" style="fill:rgb(65,64,66);fill-rule:nonzero;"/>
    </g>
    <g transform="matrix(1,0,0,1,122.054,26.9011)">
        <path d="M1.362,-10.878L-1.822,-10.878L-1.822,-17.256L-5.003,-17.256L-5.003,-20.438L-6.365,-20.438L-6.365,-17.256L-9.54,-17.256L-9.54,-10.891L-12.727,-10.891L-12.727,-6.347L-11.365,-6.347L-11.365,-9.529L-8.184,-9.529L-8.184,-10.436L-8.178,-10.436L-8.178,-15.893L-3.184,-15.893L-3.184,-9.516L0,-9.516L0,-1.338L-15.909,-1.338L-15.909,5.022L-19.08,5.022L-19.08,9.56L-14.546,9.56L-14.546,3.2L-5.003,3.2L-5.003,0.024L1.362,0.024L1.362,-10.878Z" style="fill:rgb(65,64,66);fill-rule:nonzero;"/>
    </g>
    <g transform="matrix(-1,0,0,1,239.102,-2.2996)">
        <rect x="118.87" y="21.492" width="1.362" height="1.362" style="fill:rgb(65,64,66);"/>
    </g>
    <g transform="matrix(1,0,0,1,0,4.0644)">
        <rect x="118.87" y="18.31" width="1.362" height="1.362" style="fill:rgb(65,64,66);"/>
    </g>
    <g transform="matrix(-1,0,0,1,226.378,-2.2996)">
        <rect x="112.508" y="21.492" width="1.362" height="1.362" style="fill:rgb(65,64,66);"/>
    </g>
    <g transform="matrix(-1,0,0,1,220.016,-15.0286)">
        <rect x="109.327" y="27.856" width="1.362" height="1.363" style="fill:rgb(65,64,66);"/>
    </g>
    <g transform="matrix(1,0,0,1,0,4.0644)">
        <rect x="112.508" y="18.31" width="1.362" height="1.362" style="fill:rgb(65,64,66);"/>
    </g>
    <g transform="matrix(-1,0,0,1,213.654,4.0644)">
        <rect x="106.146" y="18.31" width="1.362" height="1.362" style="fill:rgb(65,64,66);"/>
    </g>
    <g transform="matrix(-1,0,0,1,232.74,-15.0286)">
        <rect x="115.689" y="27.856" width="1.362" height="1.363" style="fill:rgb(65,64,66);"/>
    </g>
    <g transform="matrix(-1,0,0,1,226.392,-27.7576)">
        <rect x="112.515" y="34.221" width="1.362" height="1.362" style="fill:rgb(65,64,66);"/>
    </g>
    <g transform="matrix(-1,0,0,1,239.09,-27.7576)">
        <rect x="118.864" y="34.221" width="1.362" height="1.362" style="fill:rgb(65,64,66);"/>
    </g>
    <g transform="matrix(1,0,0,1,0,-15.0286)">
        <rect x="122.054" y="27.856" width="1.362" height="1.363" style="fill:rgb(65,64,66);"/>
    </g>
    <g transform="matrix(1,0,0,1,0,29.5134)">
        <rect x="99.784" y="5.585" width="1.362" height="1.363" style="fill:rgb(65,64,66);"/>
    </g>
    <g transform="matrix(1,0,0,1,0,29.5134)">
        <rect x="90.24" y="5.585" width="1.362" height="1.363" style="fill:rgb(65,64,66);"/>
    </g>
    <g transform="matrix(1,0,0,1,0,29.5134)">
        <rect x="77.516" y="5.585" width="1.362" height="1.363" style="fill:rgb(65,64,66);"/>
    </g>
    <g transform="matrix(1,0,0,1,0,23.1624)">
        <rect x="93.421" y="8.761" width="1.362" height="1.362" style="fill:rgb(65,64,66);"/>
    </g>
    <g transform="matrix(1,0,0,1,0,16.7944)">
        <rect x="87.059" y="11.945" width="1.362" height="1.362" style="fill:rgb(65,64,66);"/>
    </g>
    <g transform="matrix(1,0,0,1,0,16.7944)">
        <rect x="80.697" y="11.945" width="1.362" height="1.362" style="fill:rgb(65,64,66);"/>
    </g>
    <g transform="matrix(1,0,0,1,0,23.1624)">
        <rect x="74.335" y="8.761" width="1.362" height="1.362" style="fill:rgb(65,64,66);"/>
    </g>
    <g transform="matrix(-1,0,0,1,162.758,4.0644)">
        <rect x="80.698" y="18.31" width="1.362" height="1.362" style="fill:rgb(65,64,66);"/>
    </g>
    <g transform="matrix(-1,0,0,1,169.12,4.0644)">
        <rect x="83.879" y="18.31" width="1.362" height="1.362" style="fill:rgb(65,64,66);"/>
    </g>
    <g transform="matrix(-1,0,0,1,156.394,4.0644)">
        <rect x="77.516" y="18.31" width="1.362" height="1.362" style="fill:rgb(65,64,66);"/>
    </g>
    <g transform="matrix(-1,0,0,1,162.758,-27.7576)">
        <rect x="80.698" y="34.221" width="1.362" height="1.362" style="fill:rgb(65,64,66);"/>
    </g>
    <g transform="matrix(-1,0,0,1,175.482,-27.7576)">
        <rect x="87.06" y="34.221" width="1.362" height="1.362" style="fill:rgb(65,64,66);"/>
    </g>
    <g transform="matrix(-1,0,0,1,169.12,-27.7576)">
        <rect x="83.879" y="34.221" width="1.362" height="1.362" style="fill:rgb(65,64,66);"/>
    </g>
    <g transform="matrix(-1,0,0,1,175.482,-15.0286)">
        <rect x="87.06" y="27.856" width="1.362" height="1.363" style="fill:rgb(65,64,66);"/>
    </g>
    <g transform="matrix(1,0,0,1,0,-21.3946)">
        <rect x="93.421" y="31.039" width="1.362" height="1.363" style="fill:rgb(65,64,66);"/>
    </g>
    <g transform="matrix(1,0,0,1,91.6028,14.1902)">
        <path d="M0,-4.545L-7.725,-4.545L-7.725,-3.182L-1.362,-3.182L-1.362,0L3.181,0L3.181,-1.363L0,-1.363L0,-4.545Z" style="fill:rgb(65,64,66);fill-rule:nonzero;"/>
    </g>
    <g transform="matrix(-1,0,0,1,156.394,-21.3926)">
        <rect x="77.516" y="31.038" width="1.362" height="1.363" style="fill:rgb(65,64,66);"/>
    </g>
    <g transform="matrix(-1,0,0,1,162.758,-21.3926)">
        <rect x="80.698" y="31.038" width="1.362" height="1.363" style="fill:rgb(65,64,66);"/>
    </g>
    <g transform="matrix(-1,0,0,1,162.758,-15.0286)">
        <rect x="80.698" y="27.856" width="1.362" height="1.363" style="fill:rgb(65,64,66);"/>
    </g>
    <g transform="matrix(-1,0,0,1,162.758,-8.6656)">
        <rect x="80.698" y="24.675" width="1.362" height="1.362" style="fill:rgb(65,64,66);"/>
    </g>
    <g transform="matrix(-1,0,0,1,150.032,-2.2996)">
        <rect x="74.335" y="21.492" width="1.362" height="1.362" style="fill:rgb(65,64,66);"/>
    </g>
    <g transform="matrix(-1,0,0,1,175.482,10.4284)">
        <rect x="87.06" y="15.128" width="1.362" height="1.362" style="fill:rgb(65,64,66);"/>
    </g>
    <g transform="matrix(-1,0,0,1,175.482,4.0644)">
        <rect x="87.06" y="18.31" width="1.362" height="1.362" style="fill:rgb(65,64,66);"/>
    </g>
    <g transform="matrix(-1,0,0,1,175.482,-2.2996)">
        <rect x="87.06" y="21.492" width="1.362" height="1.362" style="fill:rgb(65,64,66);"/>
    </g>
    <g transform="matrix(-1,0,0,1,207.312,16.7924)">
        <rect x="102.975" y="11.946" width="1.362" height="1.362" style="fill:rgb(65,64,66);"/>
    </g>
    <g transform="matrix(1,0,0,1,0,4.0554)">
        <rect x="93.421" y="18.314" width="1.362" height="1.363" style="fill:rgb(65,64,66);"/>
    </g>
    <g transform="matrix(1,0,0,1,0,23.1624)">
        <rect x="109.327" y="8.761" width="1.362" height="1.362" style="fill:rgb(65,64,66);"/>
    </g>
    <g transform="matrix(1,0,0,1,0,23.1574)">
        <rect x="128.414" y="8.763" width="1.362" height="1.363" style="fill:rgb(65,64,66);"/>
    </g>
    <g transform="matrix(-1,0,0,1,251.828,16.7924)">
        <rect x="125.233" y="11.946" width="1.362" height="1.362" style="fill:rgb(65,64,66);"/>
    </g>
    <g transform="matrix(1,0,0,1,0,16.7944)">
        <rect x="122.051" y="11.945" width="1.362" height="1.362" style="fill:rgb(65,64,66);"/>
    </g>
    <g transform="matrix(1,0,0,1,0,16.7944)">
        <rect x="118.874" y="11.945" width="1.362" height="1.362" style="fill:rgb(65,64,66);"/>
    </g>
    <g transform="matrix(1,0,0,1,0,23.1624)">
        <rect x="122.051" y="8.761" width="1.362" height="1.362" style="fill:rgb(65,64,66);"/>
    </g>
    <g transform="matrix(-1,0,0,1,251.828,10.4434)">
        <rect x="125.233" y="15.12" width="1.362" height="1.363" style="fill:rgb(65,64,66);"/>
    </g>
    <g transform="matrix(-1,0,0,1,264.551,23.1634)">
        <rect x="131.772" y="8.938" width="1.007" height="1.007" style="fill:rgb(65,64,66);"/>
    </g>
    <g transform="matrix(1,0,0,1,0,29.5214)">
        <rect x="122.232" y="5.759" width="1.007" height="1.007" style="fill:rgb(65,64,66);"/>
    </g>
    <g transform="matrix(1,0,0,1,0,29.5214)">
        <rect x="109.512" y="5.759" width="1.007" height="1.007" style="fill:rgb(65,64,66);"/>
    </g>
    <g transform="matrix(-1,0,0,1,258.189,16.8034)">
        <rect x="128.591" y="12.118" width="1.007" height="1.007" style="fill:rgb(65,64,66);"/>
    </g>
    <g transform="matrix(-1,0,0,1,258.189,10.4294)">
        <rect x="128.591" y="15.305" width="1.007" height="1.007" style="fill:rgb(65,64,66);"/>
    </g>
    <g transform="matrix(-1,0,0,1,251.827,4.0654)">
        <rect x="125.41" y="18.487" width="1.007" height="1.007" style="fill:rgb(65,64,66);"/>
    </g>
    <g transform="matrix(-1,0,0,1,251.827,-2.2986)">
        <rect x="125.41" y="21.669" width="1.007" height="1.007" style="fill:rgb(65,64,66);"/>
    </g>
    <g transform="matrix(-1,0,0,1,232.741,-8.6386)">
        <rect x="115.867" y="24.839" width="1.007" height="1.007" style="fill:rgb(65,64,66);"/>
    </g>
    <g transform="matrix(1,0,0,1,0,4.0654)">
        <rect x="115.867" y="18.487" width="1.007" height="1.007" style="fill:rgb(65,64,66);"/>
    </g>
    <g transform="matrix(1,0,0,1,0,4.0654)">
        <rect x="109.505" y="18.487" width="1.007" height="1.007" style="fill:rgb(65,64,66);"/>
    </g>
    <g transform="matrix(1,0,0,1,0,10.4294)">
        <rect x="103.152" y="15.305" width="1.007" height="1.007" style="fill:rgb(65,64,66);"/>
    </g>
    <g transform="matrix(-1,0,0,1,200.929,10.4294)">
        <rect x="99.961" y="15.305" width="1.007" height="1.007" style="fill:rgb(65,64,66);"/>
    </g>
    <g transform="matrix(-1,0,0,1,200.929,23.1634)">
        <rect x="99.961" y="8.938" width="1.007" height="1.007" style="fill:rgb(65,64,66);"/>
    </g>
    <g transform="matrix(1,0,0,1,0,23.1614)">
        <rect x="96.78" y="8.939" width="1.007" height="1.007" style="fill:rgb(65,64,66);"/>
    </g>
    <g transform="matrix(1,0,0,1,0,29.5234)">
        <rect x="93.599" y="5.758" width="1.007" height="1.007" style="fill:rgb(65,64,66);"/>
    </g>
    <g transform="matrix(1,0,0,1,0,16.7934)">
        <rect x="96.78" y="12.123" width="1.007" height="1.007" style="fill:rgb(65,64,66);"/>
    </g>
    <g transform="matrix(1,0,0,1,0,16.7934)">
        <rect x="84.056" y="12.123" width="1.007" height="1.007" style="fill:rgb(65,64,66);"/>
    </g>
    <g transform="matrix(-1,0,0,1,150.033,4.0654)">
        <rect x="74.513" y="18.487" width="1.007" height="1.007" style="fill:rgb(65,64,66);"/>
    </g>
    <g transform="matrix(1,0,0,1,0,-2.3006)">
        <rect x="71.332" y="21.67" width="1.007" height="1.007" style="fill:rgb(65,64,66);"/>
    </g>
    <g transform="matrix(1,0,0,1,0,-8.6646)">
        <rect x="71.332" y="24.852" width="1.007" height="1.007" style="fill:rgb(65,64,66);"/>
    </g>
    <g transform="matrix(1,0,0,1,0,-21.3946)">
        <rect x="36.34" y="31.217" width="1.007" height="1.007" style="fill:rgb(65,64,66);"/>
    </g>
    <g transform="matrix(1,0,0,1,0,23.1574)">
        <rect x="36.34" y="8.941" width="1.007" height="1.007" style="fill:rgb(65,64,66);"/>
    </g>
    <g transform="matrix(1,0,0,1,0,-15.0286)">
        <rect x="71.332" y="28.034" width="1.007" height="1.007" style="fill:rgb(65,64,66);"/>
    </g>
    <g transform="matrix(1,0,0,1,0,-15.0286)">
        <rect x="68.151" y="28.034" width="1.007" height="1.007" style="fill:rgb(65,64,66);"/>
    </g>
    <g transform="matrix(1,0,0,1,0,16.7944)">
        <rect x="23.438" y="11.945" width="1.362" height="1.362" style="fill:rgb(65,64,66);"/>
    </g>
    <g transform="matrix(1,0,0,1,0,16.7944)">
        <rect x="13.895" y="11.945" width="1.362" height="1.362" style="fill:rgb(65,64,66);"/>
    </g>
    <g transform="matrix(1,0,0,1,0,10.4304)">
        <rect x="32.981" y="15.127" width="1.363" height="1.362" style="fill:rgb(65,64,66);"/>
    </g>
    <g transform="matrix(1,0,0,1,0,4.0644)">
        <rect x="32.981" y="18.31" width="1.363" height="1.362" style="fill:rgb(65,64,66);"/>
    </g>
    <g transform="matrix(1,0,0,1,0,-2.2996)">
        <rect x="32.981" y="21.492" width="1.363" height="1.362" style="fill:rgb(65,64,66);"/>
    </g>
    <g transform="matrix(1,0,0,1,0,-8.6636)">
        <rect x="32.981" y="24.674" width="1.363" height="1.362" style="fill:rgb(65,64,66);"/>
    </g>
    <g transform="matrix(-1,0,0,1,54.6,10.4284)">
        <rect x="26.619" y="15.128" width="1.362" height="1.362" style="fill:rgb(65,64,66);"/>
    </g>
    <g transform="matrix(-1,0,0,1,29.152,10.4284)">
        <rect x="13.895" y="15.128" width="1.362" height="1.362" style="fill:rgb(65,64,66);"/>
    </g>
    <g transform="matrix(-1,0,0,1,29.152,4.0644)">
        <rect x="13.895" y="18.31" width="1.362" height="1.362" style="fill:rgb(65,64,66);"/>
    </g>
    <g transform="matrix(-1,0,0,1,29.152,-2.2996)">
        <rect x="13.895" y="21.492" width="1.362" height="1.362" style="fill:rgb(65,64,66);"/>
    </g>
    <g transform="matrix(-1,0,0,1,22.79,-2.2996)">
        <rect x="10.714" y="21.492" width="1.362" height="1.362" style="fill:rgb(65,64,66);"/>
    </g>
    <g transform="matrix(-1,0,0,1,29.152,-8.6656)">
        <rect x="13.895" y="24.675" width="1.362" height="1.362" style="fill:rgb(65,64,66);"/>
    </g>
    <g transform="matrix(-1,0,0,1,22.79,-8.6656)">
        <rect x="10.714" y="24.675" width="1.362" height="1.362" style="fill:rgb(65,64,66);"/>
    </g>
    <g transform="matrix(-1,0,0,1,29.152,-15.0286)">
        <rect x="13.895" y="27.856" width="1.362" height="1.363" style="fill:rgb(65,64,66);"/>
    </g>
    <g transform="matrix(-1,0,0,1,54.6,4.0644)">
        <rect x="26.619" y="18.31" width="1.362" height="1.362" style="fill:rgb(65,64,66);"/>
    </g>
    <g transform="matrix(-1,0,0,1,54.6,-2.2996)">
        <rect x="26.619" y="21.492" width="1.362" height="1.362" style="fill:rgb(65,64,66);"/>
    </g>
    <g transform="matrix(-1,0,0,1,54.6,-8.6656)">
        <rect x="26.619" y="24.675" width="1.362" height="1.362" style="fill:rgb(65,64,66);"/>
    </g>
    <g transform="matrix(-1,0,0,1,48.238,-15.0286)">
        <rect x="23.438" y="27.856" width="1.362" height="1.363" style="fill:rgb(65,64,66);"/>
    </g>
    <g transform="matrix(1,0,0,1,0,-15.0286)">
        <rect x="29.8" y="27.856" width="1.362" height="1.363" style="fill:rgb(65,64,66);"/>
    </g>
    <g transform="matrix(-1,0,0,1,54.6,-15.0286)">
        <rect x="26.619" y="27.856" width="1.362" height="1.363" style="fill:rgb(65,64,66);"/>
    </g>
    <g transform="matrix(1,0,0,1,0,23.1574)">
        <rect x="29.8" y="8.763" width="1.362" height="1.363" style="fill:rgb(65,64,66);"/>
    </g>
    <g transform="matrix(1,0,0,1,29.7999,23.7369)">
        <path d="M0,5.002L-3.181,5.002L-3.181,8.184L-17.724,8.184L-17.724,-1.363L-19.086,-1.363L-19.086,12.729L-8.181,12.729L-8.181,9.547L-1.819,9.547L-1.819,6.364L1.362,6.364L1.362,-7.727L0,-7.727L0,5.002Z" style="fill:rgb(65,64,66);fill-rule:nonzero;"/>
    </g>
    <g transform="matrix(1,0,0,1,0,29.5214)">
        <rect x="26.619" y="5.581" width="1.362" height="1.363" style="fill:rgb(65,64,66);"/>
    </g>
    <g transform="matrix(1,0,0,1,0,29.5214)">
        <rect x="23.438" y="5.581" width="1.362" height="1.363" style="fill:rgb(65,64,66);"/>
    </g>
    <g transform="matrix(1,0,0,1,12.0759,9.6447)">
        <path d="M0,1.363L12.724,1.363L12.724,0L6.362,0L6.362,-3.182L-1.362,-3.182L-1.362,4.545L0,4.545L0,1.363Z" style="fill:rgb(65,64,66);fill-rule:nonzero;"/>
    </g>
    <g transform="matrix(1,0,0,1,0,-27.7576)">
        <rect x="7.532" y="34.221" width="1.362" height="1.362" style="fill:rgb(65,64,66);"/>
    </g>
    <g transform="matrix(1,0,0,1,0,-21.3946)">
        <rect x="7.532" y="31.039" width="1.362" height="1.363" style="fill:rgb(65,64,66);"/>
    </g>
    <g transform="matrix(1,0,0,1,0,-15.0286)">
        <rect x="7.532" y="27.856" width="1.362" height="1.363" style="fill:rgb(65,64,66);"/>
    </g>
    <g transform="matrix(1,0,0,1,0,-8.6636)">
        <rect x="7.532" y="24.674" width="1.362" height="1.362" style="fill:rgb(65,64,66);"/>
    </g>
    <g transform="matrix(1,0,0,1,0,-2.2996)">
        <rect x="7.532" y="21.492" width="1.362" height="1.362" style="fill:rgb(65,64,66);"/>
    </g>
    <g transform="matrix(1,0,0,1,0,4.0644)">
        <rect x="7.532" y="18.31" width="1.362" height="1.362" style="fill:rgb(65,64,66);"/>
    </g>
    <g transform="matrix(1,0,0,1,0,10.4304)">
        <rect x="7.532" y="15.127" width="1.362" height="1.362" style="fill:rgb(65,64,66);"/>
    </g>
    <g transform="matrix(1,0,0,1,0,16.7944)">
        <rect x="7.532" y="11.945" width="1.362" height="1.362" style="fill:rgb(65,64,66);"/>
    </g>
    <g transform="matrix(1,0,0,1,0,23.1574)">
        <rect x="7.532" y="8.763" width="1.362" height="1.363" style="fill:rgb(65,64,66);"/>
    </g>
    <g transform="matrix(1,0,0,1,0,29.5214)">
        <rect x="7.532" y="5.581" width="1.362" height="1.363" style="fill:rgb(65,64,66);"/>
    </g>
    <g transform="matrix(-1,0,0,1,41.876,-27.7576)">
        <rect x="20.257" y="34.221" width="1.362" height="1.362" style="fill:rgb(65,64,66);"/>
    </g>
    <g transform="matrix(-1,0,0,1,48.238,-27.7576)">
        <rect x="23.438" y="34.221" width="1.362" height="1.362" style="fill:rgb(65,64,66);"/>
    </g>
    <g transform="matrix(-1,0,0,1,54.6,-21.3926)">
        <rect x="26.619" y="31.038" width="1.362" height="1.363" style="fill:rgb(65,64,66);"/>
    </g>
    <g transform="matrix(-1,0,0,1,48.237,-8.6646)">
        <rect x="23.615" y="24.852" width="1.007" height="1.007" style="fill:rgb(65,64,66);"/>
    </g>
    <g transform="matrix(-1,0,0,1,35.513,-15.0286)">
        <rect x="17.253" y="28.034" width="1.007" height="1.007" style="fill:rgb(65,64,66);"/>
    </g>
    <g transform="matrix(-1,0,0,1,41.875,-15.0286)">
        <rect x="20.434" y="28.034" width="1.007" height="1.007" style="fill:rgb(65,64,66);"/>
    </g>
    <g transform="matrix(1,0,0,1,0,10.4294)">
        <rect x="23.616" y="15.305" width="1.007" height="1.007" style="fill:rgb(65,64,66);"/>
    </g>
    <g transform="matrix(1,0,0,1,0,16.7934)">
        <rect x="20.435" y="12.123" width="1.007" height="1.007" style="fill:rgb(65,64,66);"/>
    </g>
    <g transform="matrix(1,0,0,1,0,16.7934)">
        <rect x="17.254" y="12.123" width="1.007" height="1.007" style="fill:rgb(65,64,66);"/>
    </g>
    <g transform="matrix(-1,0,0,1,67.325,-15.0286)">
        <rect x="33.159" y="28.034" width="1.007" height="1.007" style="fill:rgb(65,64,66);"/>
    </g>
    <g transform="matrix(-1,0,0,1,60.961,-21.3926)">
        <rect x="29.977" y="31.216" width="1.007" height="1.007" style="fill:rgb(65,64,66);"/>
    </g>
    <g transform="matrix(-1,0,0,1,54.599,-27.7586)">
        <rect x="26.796" y="34.399" width="1.007" height="1.007" style="fill:rgb(65,64,66);"/>
    </g>
    <g transform="matrix(1,0,0,1,0,16.7934)">
        <rect x="33.159" y="12.123" width="1.007" height="1.007" style="fill:rgb(65,64,66);"/>
    </g>
    <g transform="matrix(1,0,0,1,0,29.5234)">
        <rect x="74.513" y="5.758" width="1.007" height="1.007" style="fill:rgb(65,64,66);"/>
    </g>
    <g transform="matrix(1,0,0,1,0,23.1614)">
        <rect x="71.332" y="8.939" width="1.007" height="1.007" style="fill:rgb(65,64,66);"/>
    </g>
    <g transform="matrix(1,0,0,1,0,16.7934)">
        <rect x="71.332" y="12.123" width="1.007" height="1.007" style="fill:rgb(65,64,66);"/>
    </g>
    <g transform="matrix(1,0,0,1,0,23.1614)">
        <rect x="68.151" y="8.939" width="1.007" height="1.007" style="fill:rgb(65,64,66);"/>
    </g>
    <g transform="matrix(-1,0,0,1,150.033,-21.3926)">
        <rect x="74.513" y="31.216" width="1.007" height="1.007" style="fill:rgb(65,64,66);"/>
    </g>
    <g transform="matrix(-1,0,0,1,156.395,-27.7586)">
        <rect x="77.694" y="34.399" width="1.007" height="1.007" style="fill:rgb(65,64,66);"/>
    </g>
    <g transform="matrix(-1,0,0,1,169.119,-15.0286)">
        <rect x="84.056" y="28.034" width="1.007" height="1.007" style="fill:rgb(65,64,66);"/>
    </g>
    <g transform="matrix(-1,0,0,1,181.843,-27.7586)">
        <rect x="90.418" y="34.399" width="1.007" height="1.007" style="fill:rgb(65,64,66);"/>
    </g>
    <g transform="matrix(1,0,0,1,0,-21.3946)">
        <rect x="96.78" y="31.217" width="1.007" height="1.007" style="fill:rgb(65,64,66);"/>
    </g>
    <g transform="matrix(1,0,0,1,0,-15.0286)">
        <rect x="96.78" y="28.034" width="1.007" height="1.007" style="fill:rgb(65,64,66);"/>
    </g>
    <g transform="matrix(-1,0,0,1,200.929,-15.0286)">
        <rect x="99.961" y="28.034" width="1.007" height="1.007" style="fill:rgb(65,64,66);"/>
    </g>
    <g transform="matrix(-1,0,0,1,207.291,-21.3926)">
        <rect x="103.142" y="31.216" width="1.007" height="1.007" style="fill:rgb(65,64,66);"/>
    </g>
    <g transform="matrix(-1,0,0,1,207.291,-8.6646)">
        <rect x="103.142" y="24.852" width="1.007" height="1.007" style="fill:rgb(65,64,66);"/>
    </g>
    <g transform="matrix(1,0,0,1,0,10.4254)">
        <rect x="96.78" y="15.307" width="1.007" height="1.007" style="fill:rgb(65,64,66);"/>
    </g>
    <g transform="matrix(1,0,0,1,0,4.0554)">
        <rect x="96.78" y="18.492" width="1.007" height="1.007" style="fill:rgb(65,64,66);"/>
    </g>
    <g transform="matrix(1,0,0,1,0,-2.3006)">
        <rect x="93.599" y="21.67" width="1.007" height="1.007" style="fill:rgb(65,64,66);"/>
    </g>
    <g transform="matrix(1,0,0,1,0,-2.3006)">
        <rect x="90.418" y="21.67" width="1.007" height="1.007" style="fill:rgb(65,64,66);"/>
    </g>
    <g transform="matrix(-1,0,0,1,213.653,-2.2986)">
        <rect x="106.323" y="21.669" width="1.007" height="1.007" style="fill:rgb(65,64,66);"/>
    </g>
    <g transform="matrix(-1,0,0,1,213.653,-8.6646)">
        <rect x="106.323" y="24.852" width="1.007" height="1.007" style="fill:rgb(65,64,66);"/>
    </g>
    <g transform="matrix(-1,0,0,1,251.831,-21.3926)">
        <rect x="125.412" y="31.216" width="1.007" height="1.007" style="fill:rgb(65,64,66);"/>
    </g>
    <g transform="matrix(-1,0,0,1,258.189,-2.2986)">
        <rect x="128.591" y="21.669" width="1.007" height="1.007" style="fill:rgb(65,64,66);"/>
    </g>
    <g transform="matrix(1,0,0,1,0,-8.6636)">
        <rect x="64.792" y="24.674" width="1.362" height="1.362" style="fill:rgb(65,64,66);"/>
    </g>
    <g transform="matrix(1,0,0,1,0,-2.2996)">
        <rect x="64.792" y="21.492" width="1.362" height="1.362" style="fill:rgb(65,64,66);"/>
    </g>
    <g transform="matrix(1,0,0,1,0,4.0644)">
        <rect x="64.792" y="18.31" width="1.362" height="1.362" style="fill:rgb(65,64,66);"/>
    </g>
    <g transform="matrix(1,0,0,1,0,10.4304)">
        <rect x="64.792" y="15.127" width="1.362" height="1.362" style="fill:rgb(65,64,66);"/>
    </g>
    <g transform="matrix(1,0,0,1,0,23.1574)">
        <rect x="58.43" y="8.763" width="1.362" height="1.363" style="fill:rgb(65,64,66);"/>
    </g>
    <g transform="matrix(1,0,0,1,0,23.1574)">
        <rect x="52.067" y="8.763" width="1.362" height="1.363" style="fill:rgb(65,64,66);"/>
    </g>
    <g transform="matrix(1,0,0,1,0,16.7944)">
        <rect x="45.705" y="11.945" width="1.362" height="1.362" style="fill:rgb(65,64,66);"/>
    </g>
    <g transform="matrix(-1,0,0,1,99.314,16.7924)">
        <rect x="48.976" y="11.946" width="1.362" height="1.362" style="fill:rgb(65,64,66);"/>
    </g>
    <g transform="matrix(-1,0,0,1,92.774,10.4284)">
        <rect x="45.706" y="15.128" width="1.362" height="1.362" style="fill:rgb(65,64,66);"/>
    </g>
    <g transform="matrix(-1,0,0,1,92.774,4.0644)">
        <rect x="45.706" y="18.31" width="1.362" height="1.362" style="fill:rgb(65,64,66);"/>
    </g>
    <g transform="matrix(-1,0,0,1,92.774,-2.2996)">
        <rect x="45.706" y="21.492" width="1.362" height="1.362" style="fill:rgb(65,64,66);"/>
    </g>
    <g transform="matrix(-1,0,0,1,92.774,-8.6656)">
        <rect x="45.706" y="24.675" width="1.362" height="1.362" style="fill:rgb(65,64,66);"/>
    </g>
    <g transform="matrix(-1,0,0,1,92.774,-15.0286)">
        <rect x="45.706" y="27.856" width="1.362" height="1.363" style="fill:rgb(65,64,66);"/>
    </g>
    <g transform="matrix(-1,0,0,1,99.136,-15.0286)">
        <rect x="48.887" y="27.856" width="1.362" height="1.363" style="fill:rgb(65,64,66);"/>
    </g>
    <g transform="matrix(1,0,0,1,0,-21.3946)">
        <rect x="61.611" y="31.039" width="1.362" height="1.363" style="fill:rgb(65,64,66);"/>
    </g>
    <g transform="matrix(1,0,0,1,61.6107,30.1005)">
        <path d="M1.362,-17.273L-1.819,-17.273L-1.819,-20.455L-8.181,-20.455L-8.181,-23.638L-19.086,-23.638L-19.086,6.365L-5,6.365L-5,5.003L-11.362,5.003L-11.362,1.821L-17.724,1.821L-17.724,-19.093L-3.181,-19.093L-3.181,-15.91L0,-15.91L0,0.001L1.362,0.001L1.362,-17.273Z" style="fill:rgb(65,64,66);fill-rule:nonzero;"/>
    </g>
    <g transform="matrix(1,0,0,1,0,-15.0286)">
        <rect x="55.249" y="27.856" width="1.362" height="1.363" style="fill:rgb(65,64,66);"/>
    </g>
    <g transform="matrix(1,0,0,1,0,-8.6636)">
        <rect x="58.43" y="24.674" width="1.362" height="1.362" style="fill:rgb(65,64,66);"/>
    </g>
    <g transform="matrix(1,0,0,1,0,-2.2996)">
        <rect x="58.43" y="21.492" width="1.362" height="1.362" style="fill:rgb(65,64,66);"/>
    </g>
    <g transform="matrix(1,0,0,1,0,4.0644)">
        <rect x="58.43" y="18.31" width="1.362" height="1.362" style="fill:rgb(65,64,66);"/>
    </g>
    <g transform="matrix(1,0,0,1,0,10.4304)">
        <rect x="58.43" y="15.127" width="1.362" height="1.362" style="fill:rgb(65,64,66);"/>
    </g>
    <g transform="matrix(-1,0,0,1,118.222,-27.7576)">
        <rect x="58.43" y="34.221" width="1.362" height="1.362" style="fill:rgb(65,64,66);"/>
    </g>
    <g transform="matrix(-1,0,0,1,111.86,-27.7576)">
        <rect x="55.249" y="34.221" width="1.362" height="1.362" style="fill:rgb(65,64,66);"/>
    </g>
    <g transform="matrix(1,0,0,1,0,-27.7576)">
        <rect x="39.343" y="34.221" width="1.362" height="1.362" style="fill:rgb(65,64,66);"/>
    </g>
    <g transform="matrix(1,0,0,1,0,-21.3946)">
        <rect x="39.343" y="31.039" width="1.362" height="1.363" style="fill:rgb(65,64,66);"/>
    </g>
    <g transform="matrix(1,0,0,1,0,-15.0286)">
        <rect x="39.343" y="27.856" width="1.362" height="1.363" style="fill:rgb(65,64,66);"/>
    </g>
    <g transform="matrix(1,0,0,1,0,-8.6636)">
        <rect x="39.343" y="24.674" width="1.362" height="1.362" style="fill:rgb(65,64,66);"/>
    </g>
    <g transform="matrix(1,0,0,1,0,-2.2996)">
        <rect x="39.343" y="21.492" width="1.362" height="1.362" style="fill:rgb(65,64,66);"/>
    </g>
    <g transform="matrix(1,0,0,1,0,4.0644)">
        <rect x="39.343" y="18.31" width="1.362" height="1.362" style="fill:rgb(65,64,66);"/>
    </g>
    <g transform="matrix(1,0,0,1,0,10.4304)">
        <rect x="39.343" y="15.127" width="1.362" height="1.362" style="fill:rgb(65,64,66);"/>
    </g>
    <g transform="matrix(1,0,0,1,0,16.7944)">
        <rect x="39.343" y="11.945" width="1.362" height="1.362" style="fill:rgb(65,64,66);"/>
    </g>
    <g transform="matrix(1,0,0,1,0,23.1574)">
        <rect x="39.343" y="8.763" width="1.362" height="1.363" style="fill:rgb(65,64,66);"/>
    </g>
    <g transform="matrix(1,0,0,1,0,29.5214)">
        <rect x="39.343" y="5.581" width="1.362" height="1.363" style="fill:rgb(65,64,66);"/>
    </g>
    <g transform="matrix(1,0,0,1,0,16.7934)">
        <rect x="64.97" y="12.123" width="1.007" height="1.007" style="fill:rgb(65,64,66);"/>
    </g>
    <g transform="matrix(1,0,0,1,0,16.7934)">
        <rect x="58.607" y="12.123" width="1.007" height="1.007" style="fill:rgb(65,64,66);"/>
    </g>
    <g transform="matrix(1,0,0,1,0,29.5234)">
        <rect x="58.607" y="5.758" width="1.007" height="1.007" style="fill:rgb(65,64,66);"/>
    </g>
    <g transform="matrix(-1,0,0,1,111.859,16.7934)">
        <rect x="55.426" y="12.123" width="1.007" height="1.007" style="fill:rgb(65,64,66);"/>
    </g>
    <g transform="matrix(1,0,0,1,0,16.7934)">
        <rect x="52.245" y="12.123" width="1.007" height="1.007" style="fill:rgb(65,64,66);"/>
    </g>
    <g transform="matrix(1,0,0,1,0,23.1574)">
        <rect x="55.426" y="8.941" width="1.007" height="1.007" style="fill:rgb(65,64,66);"/>
    </g>
    <g transform="matrix(-1,0,0,1,111.859,10.4294)">
        <rect x="55.426" y="15.305" width="1.007" height="1.007" style="fill:rgb(65,64,66);"/>
    </g>
    <g transform="matrix(-1,0,0,1,111.859,-8.6646)">
        <rect x="55.426" y="24.852" width="1.007" height="1.007" style="fill:rgb(65,64,66);"/>
    </g>
    <g transform="matrix(-1,0,0,1,130.945,-15.0286)">
        <rect x="64.969" y="28.034" width="1.007" height="1.007" style="fill:rgb(65,64,66);"/>
    </g>
    <g transform="matrix(-1,0,0,1,105.497,-15.0286)">
        <rect x="52.245" y="28.034" width="1.007" height="1.007" style="fill:rgb(65,64,66);"/>
    </g>
    <g transform="matrix(1,0,0,1,0,23.1574)">
        <rect x="61.789" y="8.941" width="1.007" height="1.007" style="fill:rgb(65,64,66);"/>
    </g>
    <g transform="matrix(1,0,0,1,93.4215,33.2766)">
        <path d="M0,-7.722L0,-7.72L-1.819,-7.72L-1.819,-10.907L-3.181,-10.907L-3.181,-1.355L-14.543,-1.355L-14.543,-4.538L-19.086,-4.538L-19.086,-3.175L-15.906,-3.175L-15.906,0.007L-12.724,0.007L-12.724,3.185L-5,3.185L-5,0.007L-1.819,0.007L-1.819,-3.175L1.362,-3.175L1.362,-7.722L0,-7.722Z" style="fill:rgb(65,64,66);fill-rule:nonzero;"/>
    </g>
    <g transform="matrix(1,0,0,1,77.516,16.0092)">
        <path d="M0,1.363L0,4.545L7.725,4.545L7.725,3.183L1.362,3.183L1.362,-3.182L-3.181,-3.182L-3.181,1.363L0,1.363Z" style="fill:rgb(65,64,66);fill-rule:nonzero;"/>
    </g>
    <g transform="matrix(1,0,0,1,144.501,8.5282)">
        <path d="M0,4.79L1.459,4.79C1.808,4.79 2.12,4.746 2.396,4.657C2.67,4.569 2.906,4.432 3.102,4.249C3.297,4.065 3.446,3.828 3.547,3.538C3.647,3.247 3.699,2.9 3.699,2.496L3.699,2.312C3.699,1.897 3.647,1.543 3.547,1.252C3.446,0.962 3.299,0.725 3.106,0.541C2.914,0.358 2.68,0.222 2.404,0.133C2.129,0.044 1.814,0 1.459,0L0,0L0,4.79ZM-0.872,5.543L-0.872,-0.753L1.477,-0.753C2.138,-0.753 2.701,-0.642 3.166,-0.422C3.631,-0.202 3.988,0.139 4.235,0.601C4.483,1.063 4.606,1.661 4.606,2.395C4.606,3.117 4.483,3.71 4.235,4.175C3.988,4.64 3.631,4.984 3.166,5.208C2.701,5.431 2.138,5.543 1.477,5.543L-0.872,5.543Z" style="fill:rgb(65,64,66);fill-rule:nonzero;"/>
    </g>
    <g transform="matrix(1,0,0,1,152.081,9.8129)">
        <path d="M0,3.689C0.195,3.689 0.381,3.659 0.555,3.597C0.73,3.536 0.884,3.449 1.019,3.336C1.153,3.223 1.26,3.086 1.34,2.927C1.419,2.768 1.459,2.594 1.459,2.404L1.459,2.001C0.964,2.001 0.541,2.028 0.192,2.083C-0.157,2.138 -0.423,2.236 -0.61,2.377C-0.798,2.517 -0.89,2.716 -0.89,2.973C-0.89,3.138 -0.854,3.273 -0.78,3.377C-0.707,3.481 -0.603,3.559 -0.468,3.611C-0.334,3.663 -0.178,3.689 0,3.689M-0.202,4.368C-0.38,4.368 -0.557,4.346 -0.735,4.304C-0.912,4.261 -1.077,4.191 -1.23,4.093C-1.382,3.995 -1.505,3.859 -1.597,3.684C-1.689,3.51 -1.734,3.291 -1.734,3.028C-1.734,2.698 -1.655,2.426 -1.495,2.211C-1.337,1.997 -1.116,1.83 -0.83,1.712C-0.546,1.592 -0.208,1.51 0.184,1.464C0.575,1.418 1.001,1.395 1.459,1.395L1.459,0.844C1.459,0.667 1.428,0.514 1.367,0.385C1.306,0.257 1.198,0.158 1.041,0.087C0.885,0.017 0.663,-0.018 0.376,-0.018C0.101,-0.018 -0.118,0.017 -0.28,0.087C-0.442,0.158 -0.555,0.248 -0.62,0.358C-0.683,0.468 -0.716,0.59 -0.716,0.725L-0.716,0.862L-1.495,0.862C-1.502,0.832 -1.505,0.801 -1.505,0.771L-1.505,0.661C-1.505,0.367 -1.424,0.121 -1.262,-0.078C-1.1,-0.277 -0.872,-0.427 -0.578,-0.528C-0.284,-0.629 0.052,-0.679 0.431,-0.679C0.835,-0.679 1.173,-0.621 1.445,-0.505C1.717,-0.389 1.923,-0.223 2.06,-0.009C2.197,0.205 2.267,0.462 2.267,0.762L2.267,3.377C2.267,3.493 2.294,3.574 2.349,3.62C2.404,3.666 2.471,3.689 2.551,3.689L2.909,3.689L2.909,4.221C2.823,4.258 2.728,4.29 2.625,4.317C2.52,4.345 2.401,4.359 2.267,4.359C2.107,4.359 1.976,4.327 1.872,4.262C1.768,4.198 1.688,4.11 1.634,3.996C1.579,3.883 1.542,3.756 1.524,3.616L1.459,3.616C1.349,3.769 1.209,3.902 1.041,4.015C0.873,4.128 0.685,4.215 0.477,4.276C0.269,4.337 0.043,4.368 -0.202,4.368" style="fill:rgb(65,64,66);fill-rule:nonzero;"/>
    </g>
    <g transform="matrix(1,0,0,1,156.128,9.1338)">
        <path d="M0,4.937L0,0.11L0.652,0.11L0.725,0.835L0.789,0.835C0.917,0.639 1.062,0.48 1.225,0.358C1.387,0.235 1.568,0.146 1.766,0.087C1.965,0.029 2.178,0 2.404,0C2.71,0 2.977,0.052 3.208,0.156C3.437,0.26 3.617,0.428 3.749,0.661C3.88,0.893 3.946,1.208 3.946,1.606L3.946,4.937L3.138,4.937L3.138,1.716C3.138,1.514 3.112,1.349 3.061,1.22C3.008,1.092 2.938,0.991 2.849,0.917C2.761,0.844 2.654,0.792 2.528,0.762C2.402,0.731 2.263,0.716 2.11,0.716C1.884,0.716 1.67,0.771 1.468,0.881C1.266,0.991 1.106,1.15 0.986,1.358C0.867,1.566 0.807,1.814 0.807,2.102L0.807,4.937L0,4.937Z" style="fill:rgb(65,64,66);fill-rule:nonzero;"/>
    </g>
    <g transform="matrix(1,0,0,1,0,-20.5386)">
        <path d="M161.753,29.783L162.56,29.783L162.56,34.61L161.753,34.61L161.753,29.783ZM161.753,27.975L162.56,27.975L162.56,28.874L161.753,28.874L161.753,27.975Z" style="fill:rgb(65,64,66);fill-rule:nonzero;"/>
    </g>
    <g transform="matrix(1,0,0,1,165.965,9.143)">
        <path d="M0,5.038C-0.331,5.038 -0.622,5.004 -0.872,4.937C-1.123,4.87 -1.331,4.772 -1.496,4.643C-1.662,4.515 -1.786,4.362 -1.873,4.184C-1.959,4.007 -2.001,3.805 -2.001,3.579L-2.001,3.492C-2.001,3.464 -1.998,3.441 -1.991,3.423L-1.193,3.423C-1.2,3.447 -1.203,3.469 -1.203,3.487L-1.203,3.542C-1.197,3.756 -1.14,3.924 -1.032,4.047C-0.926,4.169 -0.777,4.255 -0.588,4.304C-0.398,4.353 -0.187,4.377 0.045,4.377C0.247,4.377 0.434,4.351 0.605,4.299C0.776,4.247 0.913,4.167 1.014,4.061C1.115,3.954 1.165,3.818 1.165,3.652C1.165,3.45 1.099,3.296 0.968,3.189C0.836,3.082 0.663,2.998 0.45,2.936C0.235,2.875 0.012,2.811 -0.22,2.744C-0.417,2.689 -0.612,2.628 -0.808,2.56C-1.003,2.493 -1.179,2.41 -1.336,2.312C-1.492,2.215 -1.617,2.088 -1.712,1.931C-1.807,1.776 -1.854,1.578 -1.854,1.34C-1.854,1.126 -1.81,0.936 -1.721,0.771C-1.633,0.606 -1.505,0.465 -1.34,0.349C-1.175,0.232 -0.974,0.145 -0.74,0.087C-0.504,0.029 -0.242,0 0.045,0C0.351,0 0.619,0.034 0.849,0.101C1.078,0.168 1.269,0.263 1.422,0.385C1.575,0.508 1.688,0.647 1.761,0.803C1.835,0.959 1.872,1.126 1.872,1.303L1.872,1.408C1.872,1.442 1.869,1.468 1.863,1.487L1.073,1.487L1.073,1.386C1.073,1.263 1.041,1.146 0.977,1.032C0.913,0.919 0.802,0.828 0.647,0.757C0.49,0.687 0.275,0.652 0,0.652C-0.178,0.652 -0.331,0.665 -0.459,0.693C-0.588,0.72 -0.695,0.763 -0.78,0.821C-0.866,0.88 -0.93,0.947 -0.973,1.023C-1.016,1.1 -1.037,1.187 -1.037,1.285C-1.037,1.444 -0.985,1.566 -0.882,1.652C-0.777,1.738 -0.638,1.808 -0.464,1.863C-0.289,1.918 -0.102,1.979 0.101,2.047C0.314,2.107 0.534,2.17 0.757,2.235C0.98,2.299 1.185,2.38 1.372,2.478C1.558,2.576 1.708,2.709 1.821,2.877C1.934,3.045 1.991,3.267 1.991,3.542C1.991,3.799 1.942,4.022 1.844,4.212C1.746,4.402 1.607,4.558 1.427,4.68C1.246,4.803 1.035,4.893 0.794,4.951C0.552,5.009 0.287,5.038 0,5.038" style="fill:rgb(65,64,66);fill-rule:nonzero;"/>
    </g>
    <g transform="matrix(1,0,0,1,169.415,7.4358)">
        <path d="M0,6.635L0,0L0.807,0L0.807,2.414L0.872,2.414C0.994,2.249 1.132,2.114 1.285,2.01C1.437,1.906 1.608,1.828 1.794,1.776C1.981,1.724 2.184,1.698 2.404,1.698C2.71,1.698 2.977,1.75 3.208,1.854C3.437,1.958 3.617,2.126 3.749,2.359C3.88,2.591 3.946,2.906 3.946,3.304L3.946,6.635L3.138,6.635L3.138,3.414C3.138,3.212 3.112,3.047 3.061,2.918C3.008,2.79 2.938,2.689 2.849,2.615C2.761,2.542 2.654,2.49 2.528,2.46C2.402,2.429 2.263,2.414 2.11,2.414C1.884,2.414 1.67,2.468 1.468,2.574C1.266,2.682 1.106,2.837 0.986,3.042C0.867,3.248 0.807,3.5 0.807,3.8L0.807,6.635L0,6.635Z" style="fill:rgb(65,64,66);fill-rule:nonzero;"/>
    </g>
    <g transform="matrix(1,0,0,1,144.501,19.7174)">
        <path d="M0,4.79L1.459,4.79C1.808,4.79 2.12,4.746 2.396,4.657C2.67,4.569 2.906,4.432 3.102,4.249C3.297,4.065 3.446,3.828 3.547,3.538C3.647,3.247 3.699,2.9 3.699,2.496L3.699,2.312C3.699,1.897 3.647,1.543 3.547,1.252C3.446,0.962 3.299,0.725 3.106,0.541C2.914,0.358 2.68,0.222 2.404,0.133C2.129,0.044 1.814,0 1.459,0L0,0L0,4.79ZM-0.872,5.543L-0.872,-0.753L1.477,-0.753C2.138,-0.753 2.701,-0.642 3.166,-0.422C3.631,-0.202 3.988,0.139 4.235,0.601C4.483,1.063 4.606,1.661 4.606,2.395C4.606,3.117 4.483,3.71 4.235,4.175C3.988,4.64 3.631,4.984 3.166,5.208C2.701,5.431 2.138,5.543 1.477,5.543L-0.872,5.543Z" style="fill:rgb(65,64,66);fill-rule:nonzero;"/>
    </g>
    <g transform="matrix(1,0,0,1,152.081,21.0021)">
        <path d="M0,3.689C0.195,3.689 0.381,3.659 0.555,3.597C0.73,3.536 0.884,3.449 1.019,3.336C1.153,3.223 1.26,3.086 1.34,2.927C1.419,2.768 1.459,2.594 1.459,2.404L1.459,2.001C0.964,2.001 0.541,2.028 0.192,2.083C-0.157,2.138 -0.423,2.236 -0.61,2.377C-0.798,2.517 -0.89,2.716 -0.89,2.973C-0.89,3.138 -0.854,3.273 -0.78,3.377C-0.707,3.481 -0.603,3.559 -0.468,3.611C-0.334,3.663 -0.178,3.689 0,3.689M-0.202,4.368C-0.38,4.368 -0.557,4.346 -0.735,4.304C-0.912,4.261 -1.077,4.191 -1.23,4.093C-1.382,3.995 -1.505,3.859 -1.597,3.684C-1.689,3.51 -1.734,3.291 -1.734,3.028C-1.734,2.698 -1.655,2.426 -1.495,2.211C-1.337,1.997 -1.116,1.831 -0.83,1.712C-0.546,1.592 -0.208,1.51 0.184,1.464C0.575,1.418 1.001,1.395 1.459,1.395L1.459,0.844C1.459,0.667 1.428,0.514 1.367,0.385C1.306,0.257 1.198,0.158 1.041,0.087C0.885,0.017 0.663,-0.018 0.376,-0.018C0.101,-0.018 -0.118,0.017 -0.28,0.087C-0.442,0.158 -0.555,0.248 -0.62,0.358C-0.683,0.468 -0.716,0.59 -0.716,0.725L-0.716,0.862L-1.495,0.862C-1.502,0.832 -1.505,0.801 -1.505,0.771L-1.505,0.661C-1.505,0.367 -1.424,0.121 -1.262,-0.078C-1.1,-0.277 -0.872,-0.427 -0.578,-0.528C-0.284,-0.629 0.052,-0.679 0.431,-0.679C0.835,-0.679 1.173,-0.621 1.445,-0.505C1.717,-0.389 1.923,-0.223 2.06,-0.009C2.197,0.205 2.267,0.462 2.267,0.762L2.267,3.377C2.267,3.493 2.294,3.574 2.349,3.62C2.404,3.666 2.471,3.689 2.551,3.689L2.909,3.689L2.909,4.221C2.823,4.258 2.728,4.29 2.625,4.317C2.52,4.345 2.401,4.359 2.267,4.359C2.107,4.359 1.976,4.327 1.872,4.262C1.768,4.198 1.688,4.11 1.634,3.996C1.579,3.883 1.542,3.756 1.524,3.616L1.459,3.616C1.349,3.769 1.209,3.902 1.041,4.015C0.873,4.128 0.685,4.215 0.477,4.276C0.269,4.337 0.043,4.368 -0.202,4.368" style="fill:rgb(65,64,66);fill-rule:nonzero;"/>
    </g>
    <g transform="matrix(1,0,0,1,157.257,19.0842)">
        <path d="M0,6.286C-0.251,6.286 -0.447,6.239 -0.588,6.144C-0.729,6.049 -0.829,5.923 -0.89,5.767C-0.952,5.611 -0.982,5.445 -0.982,5.267L-0.982,2.028L-1.607,2.028L-1.607,1.349L-0.964,1.349L-0.817,0L-0.175,0L-0.175,1.349L0.734,1.349L0.734,2.028L-0.175,2.028L-0.175,5.148C-0.175,5.301 -0.147,5.415 -0.092,5.492C-0.037,5.569 0.067,5.607 0.219,5.607L0.734,5.607L0.734,6.139C0.673,6.17 0.599,6.194 0.513,6.213C0.427,6.231 0.34,6.248 0.252,6.263C0.163,6.278 0.079,6.286 0,6.286" style="fill:rgb(65,64,66);fill-rule:nonzero;"/>
    </g>
    <g transform="matrix(1,0,0,1,160.726,21.0021)">
        <path d="M0,3.689C0.195,3.689 0.381,3.659 0.555,3.597C0.73,3.536 0.884,3.449 1.019,3.336C1.153,3.223 1.26,3.086 1.34,2.927C1.419,2.768 1.459,2.594 1.459,2.404L1.459,2.001C0.964,2.001 0.541,2.028 0.192,2.083C-0.157,2.138 -0.423,2.236 -0.61,2.377C-0.798,2.517 -0.89,2.716 -0.89,2.973C-0.89,3.138 -0.854,3.273 -0.78,3.377C-0.707,3.481 -0.603,3.559 -0.468,3.611C-0.334,3.663 -0.178,3.689 0,3.689M-0.202,4.368C-0.38,4.368 -0.557,4.346 -0.735,4.304C-0.912,4.261 -1.077,4.191 -1.23,4.093C-1.382,3.995 -1.505,3.859 -1.597,3.684C-1.689,3.51 -1.734,3.291 -1.734,3.028C-1.734,2.698 -1.655,2.426 -1.495,2.211C-1.337,1.997 -1.116,1.831 -0.83,1.712C-0.546,1.592 -0.208,1.51 0.184,1.464C0.575,1.418 1.001,1.395 1.459,1.395L1.459,0.844C1.459,0.667 1.428,0.514 1.367,0.385C1.306,0.257 1.198,0.158 1.041,0.087C0.886,0.017 0.663,-0.018 0.376,-0.018C0.101,-0.018 -0.118,0.017 -0.28,0.087C-0.442,0.158 -0.555,0.248 -0.62,0.358C-0.683,0.468 -0.716,0.59 -0.716,0.725L-0.716,0.862L-1.495,0.862C-1.502,0.832 -1.505,0.801 -1.505,0.771L-1.505,0.661C-1.505,0.367 -1.424,0.121 -1.262,-0.078C-1.1,-0.277 -0.872,-0.427 -0.578,-0.528C-0.284,-0.629 0.052,-0.679 0.431,-0.679C0.835,-0.679 1.173,-0.621 1.445,-0.505C1.717,-0.389 1.923,-0.223 2.06,-0.009C2.197,0.205 2.267,0.462 2.267,0.762L2.267,3.377C2.267,3.493 2.294,3.574 2.349,3.62C2.404,3.666 2.471,3.689 2.551,3.689L2.909,3.689L2.909,4.221C2.823,4.258 2.728,4.29 2.625,4.317C2.52,4.345 2.401,4.359 2.267,4.359C2.107,4.359 1.976,4.327 1.872,4.262C1.768,4.198 1.688,4.11 1.634,3.996C1.579,3.883 1.542,3.756 1.524,3.616L1.459,3.616C1.349,3.769 1.209,3.902 1.041,4.015C0.873,4.128 0.685,4.215 0.477,4.276C0.269,4.337 0.043,4.368 -0.202,4.368" style="fill:rgb(65,64,66);fill-rule:nonzero;"/>
    </g>
    <g transform="matrix(1,0,0,1,169.617,18.8542)">
        <path d="M0,6.516C-0.342,6.516 -0.671,6.482 -0.986,6.415C-1.301,6.348 -1.581,6.239 -1.826,6.089C-2.071,5.939 -2.265,5.745 -2.408,5.506C-2.552,5.268 -2.624,4.974 -2.624,4.626C-2.624,4.595 -2.623,4.565 -2.62,4.534C-2.617,4.503 -2.615,4.473 -2.615,4.442L-1.734,4.442C-1.734,4.46 -1.735,4.489 -1.738,4.529C-1.742,4.569 -1.743,4.604 -1.743,4.635C-1.743,4.879 -1.669,5.088 -1.523,5.259C-1.376,5.43 -1.173,5.557 -0.913,5.64C-0.653,5.722 -0.358,5.763 -0.027,5.763C0.12,5.763 0.275,5.754 0.436,5.736C0.598,5.718 0.754,5.686 0.905,5.64C1.055,5.594 1.189,5.532 1.308,5.456C1.428,5.38 1.523,5.285 1.592,5.171C1.663,5.058 1.699,4.919 1.699,4.754C1.699,4.546 1.639,4.373 1.52,4.236C1.4,4.098 1.242,3.985 1.047,3.896C0.851,3.807 0.629,3.728 0.381,3.657C0.133,3.587 -0.122,3.518 -0.385,3.451C-0.648,3.384 -0.904,3.306 -1.151,3.217C-1.399,3.128 -1.621,3.018 -1.816,2.886C-2.013,2.755 -2.17,2.592 -2.289,2.395C-2.408,2.2 -2.468,1.961 -2.468,1.68C-2.468,1.417 -2.415,1.181 -2.308,0.973C-2.2,0.766 -2.042,0.59 -1.83,0.446C-1.619,0.302 -1.357,0.192 -1.046,0.115C-0.734,0.039 -0.376,0 0.028,0C0.359,0 0.666,0.036 0.95,0.106C1.234,0.176 1.486,0.284 1.702,0.427C1.92,0.571 2.09,0.753 2.212,0.973C2.335,1.193 2.396,1.46 2.396,1.771L2.396,1.882L1.533,1.882L1.533,1.744C1.533,1.536 1.468,1.359 1.34,1.212C1.212,1.065 1.036,0.952 0.813,0.872C0.59,0.793 0.336,0.753 0.055,0.753C-0.311,0.753 -0.618,0.788 -0.862,0.858C-1.107,0.929 -1.289,1.03 -1.408,1.161C-1.527,1.293 -1.587,1.441 -1.587,1.607C-1.587,1.796 -1.527,1.955 -1.408,2.084C-1.289,2.212 -1.131,2.318 -0.936,2.4C-0.74,2.483 -0.516,2.558 -0.266,2.625C-0.014,2.693 0.241,2.761 0.501,2.831C0.761,2.902 1.014,2.982 1.263,3.07C1.51,3.159 1.733,3.269 1.932,3.4C2.131,3.532 2.288,3.697 2.405,3.896C2.521,4.095 2.579,4.338 2.579,4.626C2.579,5.072 2.469,5.435 2.249,5.713C2.028,5.992 1.726,6.195 1.34,6.323C0.955,6.452 0.508,6.516 0,6.516" style="fill:rgb(65,64,66);fill-rule:nonzero;"/>
    </g>
    <g transform="matrix(1,0,0,1,175.325,20.0655)">
        <path d="M0,5.047C-0.466,5.047 -0.856,4.957 -1.171,4.776C-1.486,4.596 -1.725,4.318 -1.886,3.941C-2.048,3.565 -2.13,3.092 -2.13,2.523C-2.13,1.955 -2.048,1.483 -1.886,1.11C-1.725,0.737 -1.483,0.459 -1.161,0.275C-0.84,0.092 -0.444,0 0.027,0C0.358,0 0.643,0.043 0.885,0.128C1.126,0.214 1.327,0.339 1.486,0.504C1.645,0.67 1.763,0.868 1.84,1.101C1.916,1.333 1.954,1.6 1.954,1.899L1.138,1.899C1.138,1.618 1.099,1.387 1.023,1.207C0.946,1.026 0.826,0.892 0.66,0.803C0.495,0.714 0.277,0.67 0.009,0.67C-0.261,0.67 -0.493,0.729 -0.688,0.849C-0.885,0.968 -1.034,1.156 -1.139,1.413C-1.242,1.67 -1.294,2.01 -1.294,2.432L-1.294,2.624C-1.294,3.022 -1.244,3.352 -1.143,3.615C-1.042,3.878 -0.894,4.071 -0.698,4.193C-0.502,4.316 -0.264,4.377 0.017,4.377C0.293,4.377 0.515,4.328 0.683,4.23C0.852,4.132 0.973,3.992 1.05,3.808C1.126,3.624 1.165,3.404 1.165,3.147L1.954,3.147C1.954,3.417 1.916,3.668 1.84,3.9C1.763,4.132 1.645,4.335 1.486,4.506C1.327,4.677 1.125,4.81 0.881,4.905C0.636,5 0.342,5.047 0,5.047" style="fill:rgb(65,64,66);fill-rule:nonzero;"/>
    </g>
    <g transform="matrix(1,0,0,1,0,1.3234)">
        <path d="M178.711,18.852L179.518,18.852L179.518,23.679L178.711,23.679L178.711,18.852ZM178.711,17.044L179.518,17.044L179.518,17.943L178.711,17.943L178.711,17.044Z" style="fill:rgb(65,64,66);fill-rule:nonzero;"/>
    </g>
    <g transform="matrix(1,0,0,1,181.812,22.9923)">
        <path d="M0,-0.807L2.615,-0.807C2.615,-1.076 2.585,-1.303 2.523,-1.486C2.462,-1.67 2.375,-1.82 2.262,-1.936C2.149,-2.052 2.018,-2.136 1.868,-2.188C1.718,-2.24 1.548,-2.266 1.358,-2.266C1.077,-2.266 0.838,-2.214 0.643,-2.11C0.447,-2.006 0.297,-1.847 0.192,-1.633C0.089,-1.419 0.024,-1.143 0,-0.807M1.349,2.12C0.872,2.12 0.47,2.03 0.142,1.85C-0.185,1.669 -0.433,1.392 -0.601,1.019C-0.77,0.646 -0.854,0.172 -0.854,-0.403C-0.854,-0.984 -0.77,-1.46 -0.601,-1.83C-0.433,-2.201 -0.184,-2.476 0.147,-2.656C0.478,-2.837 0.89,-2.927 1.385,-2.927C1.839,-2.927 2.218,-2.84 2.523,-2.665C2.83,-2.491 3.061,-2.231 3.216,-1.885C3.373,-1.54 3.45,-1.107 3.45,-0.587L3.45,-0.201L-0.018,-0.201C-0.006,0.184 0.05,0.5 0.152,0.748C0.252,0.996 0.404,1.177 0.606,1.29C0.807,1.403 1.061,1.459 1.367,1.459C1.575,1.459 1.757,1.433 1.913,1.382C2.07,1.329 2.201,1.255 2.308,1.156C2.415,1.059 2.496,0.942 2.551,0.808C2.606,0.674 2.637,0.527 2.643,0.368L3.432,0.368C3.426,0.624 3.377,0.862 3.285,1.079C3.193,1.296 3.059,1.481 2.882,1.634C2.704,1.787 2.487,1.906 2.23,1.992C1.973,2.077 1.679,2.12 1.349,2.12" style="fill:rgb(65,64,66);fill-rule:nonzero;"/>
    </g>
    <g transform="matrix(1,0,0,1,186.722,20.0653)">
        <path d="M0,4.937L0,0.11L0.652,0.11L0.725,0.835L0.789,0.835C0.917,0.639 1.062,0.48 1.225,0.358C1.387,0.235 1.568,0.145 1.766,0.087C1.965,0.029 2.178,0 2.404,0C2.71,0 2.977,0.052 3.208,0.156C3.437,0.26 3.617,0.428 3.749,0.661C3.88,0.893 3.946,1.208 3.946,1.606L3.946,4.937L3.138,4.937L3.138,1.716C3.138,1.514 3.112,1.349 3.061,1.22C3.008,1.092 2.938,0.991 2.849,0.917C2.761,0.844 2.654,0.792 2.528,0.762C2.402,0.731 2.263,0.716 2.11,0.716C1.884,0.716 1.67,0.771 1.468,0.881C1.266,0.991 1.106,1.15 0.986,1.358C0.867,1.566 0.807,1.814 0.807,2.102L0.807,4.937L0,4.937Z" style="fill:rgb(65,64,66);fill-rule:nonzero;"/>
    </g>
    <g transform="matrix(1,0,0,1,194.183,20.0655)">
        <path d="M0,5.047C-0.466,5.047 -0.856,4.957 -1.171,4.776C-1.486,4.596 -1.725,4.318 -1.886,3.941C-2.048,3.565 -2.13,3.092 -2.13,2.523C-2.13,1.955 -2.048,1.483 -1.886,1.11C-1.725,0.737 -1.483,0.459 -1.161,0.275C-0.84,0.092 -0.444,0 0.027,0C0.358,0 0.643,0.043 0.886,0.128C1.126,0.214 1.327,0.339 1.486,0.504C1.645,0.67 1.763,0.868 1.84,1.101C1.916,1.333 1.954,1.6 1.954,1.899L1.138,1.899C1.138,1.618 1.099,1.387 1.023,1.207C0.946,1.026 0.826,0.892 0.66,0.803C0.495,0.714 0.277,0.67 0.009,0.67C-0.261,0.67 -0.493,0.729 -0.688,0.849C-0.885,0.968 -1.034,1.156 -1.139,1.413C-1.242,1.67 -1.294,2.01 -1.294,2.432L-1.294,2.624C-1.294,3.022 -1.244,3.352 -1.143,3.615C-1.042,3.878 -0.894,4.071 -0.698,4.193C-0.502,4.316 -0.264,4.377 0.017,4.377C0.293,4.377 0.515,4.328 0.683,4.23C0.852,4.132 0.973,3.992 1.05,3.808C1.126,3.624 1.165,3.404 1.165,3.147L1.954,3.147C1.954,3.417 1.916,3.668 1.84,3.9C1.763,4.132 1.645,4.335 1.486,4.506C1.327,4.677 1.125,4.81 0.881,4.905C0.636,5 0.342,5.047 0,5.047" style="fill:rgb(65,64,66);fill-rule:nonzero;"/>
    </g>
    <g transform="matrix(1,0,0,1,198.146,22.9923)">
        <path d="M0,-0.807L2.615,-0.807C2.615,-1.076 2.585,-1.303 2.523,-1.486C2.462,-1.67 2.375,-1.82 2.262,-1.936C2.149,-2.052 2.018,-2.136 1.868,-2.188C1.718,-2.24 1.548,-2.266 1.358,-2.266C1.077,-2.266 0.838,-2.214 0.643,-2.11C0.447,-2.006 0.297,-1.847 0.192,-1.633C0.089,-1.419 0.024,-1.143 0,-0.807M1.349,2.12C0.872,2.12 0.47,2.03 0.142,1.85C-0.185,1.669 -0.433,1.392 -0.601,1.019C-0.77,0.646 -0.854,0.172 -0.854,-0.403C-0.854,-0.984 -0.77,-1.46 -0.601,-1.83C-0.433,-2.201 -0.184,-2.476 0.147,-2.656C0.478,-2.837 0.89,-2.927 1.385,-2.927C1.839,-2.927 2.218,-2.84 2.523,-2.665C2.83,-2.491 3.061,-2.231 3.216,-1.885C3.373,-1.54 3.45,-1.107 3.45,-0.587L3.45,-0.201L-0.018,-0.201C-0.006,0.184 0.05,0.5 0.152,0.748C0.252,0.996 0.404,1.177 0.606,1.29C0.807,1.403 1.061,1.459 1.367,1.459C1.575,1.459 1.757,1.433 1.913,1.382C2.07,1.329 2.201,1.255 2.308,1.156C2.415,1.059 2.496,0.942 2.551,0.808C2.606,0.674 2.637,0.527 2.643,0.368L3.432,0.368C3.426,0.624 3.377,0.862 3.285,1.079C3.193,1.296 3.059,1.481 2.882,1.634C2.704,1.787 2.487,1.906 2.23,1.992C1.973,2.077 1.679,2.12 1.349,2.12" style="fill:rgb(65,64,66);fill-rule:nonzero;"/>
    </g>
    <g transform="matrix(1,0,0,1,145.299,32.4105)">
        <path d="M0,1.689L2.486,1.689L1.725,-0.284C1.706,-0.339 1.679,-0.416 1.642,-0.514C1.606,-0.611 1.565,-0.72 1.523,-0.839C1.48,-0.958 1.437,-1.081 1.394,-1.206C1.351,-1.331 1.312,-1.447 1.275,-1.55L1.22,-1.55C1.177,-1.428 1.128,-1.288 1.073,-1.128C1.018,-0.969 0.963,-0.815 0.908,-0.665C0.853,-0.515 0.807,-0.388 0.77,-0.284L0,1.689ZM-1.79,3.992L0.697,-2.303L1.844,-2.303L4.34,3.992L3.395,3.992L2.78,2.432L-0.285,2.432L-0.89,3.992L-1.79,3.992Z" style="fill:rgb(65,64,66);fill-rule:nonzero;"/>
    </g>
    <g transform="matrix(1,0,0,1,152.631,31.4659)">
        <path d="M0,5.047C-0.466,5.047 -0.856,4.957 -1.171,4.776C-1.486,4.596 -1.725,4.318 -1.886,3.941C-2.048,3.565 -2.13,3.092 -2.13,2.523C-2.13,1.954 -2.048,1.483 -1.886,1.11C-1.725,0.737 -1.483,0.459 -1.161,0.275C-0.84,0.092 -0.444,0 0.027,0C0.358,0 0.643,0.043 0.885,0.128C1.126,0.214 1.327,0.339 1.486,0.504C1.645,0.67 1.763,0.868 1.84,1.101C1.916,1.333 1.954,1.6 1.954,1.899L1.138,1.899C1.138,1.618 1.099,1.387 1.023,1.207C0.946,1.026 0.826,0.892 0.66,0.803C0.495,0.714 0.277,0.67 0.009,0.67C-0.261,0.67 -0.493,0.729 -0.688,0.849C-0.885,0.968 -1.034,1.156 -1.139,1.413C-1.242,1.67 -1.294,2.01 -1.294,2.432L-1.294,2.624C-1.294,3.022 -1.244,3.352 -1.143,3.615C-1.042,3.878 -0.894,4.071 -0.698,4.193C-0.502,4.316 -0.264,4.377 0.017,4.377C0.293,4.377 0.515,4.328 0.683,4.23C0.852,4.132 0.973,3.992 1.05,3.808C1.126,3.624 1.165,3.404 1.165,3.147L1.954,3.147C1.954,3.417 1.916,3.667 1.84,3.9C1.763,4.132 1.645,4.335 1.486,4.506C1.327,4.677 1.125,4.81 0.881,4.905C0.636,5 0.342,5.047 0,5.047" style="fill:rgb(65,64,66);fill-rule:nonzero;"/>
    </g>
    <g transform="matrix(1,0,0,1,157.431,32.1447)">
        <path d="M0,3.689C0.195,3.689 0.381,3.659 0.555,3.597C0.73,3.536 0.884,3.449 1.019,3.336C1.153,3.223 1.26,3.086 1.34,2.927C1.419,2.768 1.459,2.594 1.459,2.404L1.459,2.001C0.964,2.001 0.541,2.028 0.192,2.083C-0.157,2.138 -0.423,2.236 -0.61,2.377C-0.798,2.517 -0.89,2.716 -0.89,2.973C-0.89,3.138 -0.854,3.273 -0.78,3.377C-0.707,3.481 -0.603,3.559 -0.468,3.611C-0.334,3.663 -0.178,3.689 0,3.689M-0.202,4.368C-0.38,4.368 -0.557,4.346 -0.735,4.304C-0.912,4.261 -1.077,4.191 -1.23,4.093C-1.382,3.995 -1.505,3.859 -1.597,3.684C-1.689,3.51 -1.734,3.291 -1.734,3.028C-1.734,2.698 -1.655,2.426 -1.495,2.211C-1.337,1.997 -1.116,1.831 -0.83,1.712C-0.546,1.592 -0.208,1.51 0.184,1.464C0.575,1.418 1.001,1.395 1.459,1.395L1.459,0.844C1.459,0.667 1.428,0.514 1.367,0.385C1.306,0.257 1.198,0.158 1.041,0.087C0.885,0.017 0.663,-0.018 0.376,-0.018C0.101,-0.018 -0.118,0.017 -0.28,0.087C-0.442,0.158 -0.555,0.248 -0.62,0.358C-0.683,0.468 -0.716,0.59 -0.716,0.725L-0.716,0.862L-1.495,0.862C-1.502,0.832 -1.505,0.801 -1.505,0.771L-1.505,0.661C-1.505,0.367 -1.424,0.121 -1.262,-0.078C-1.1,-0.277 -0.872,-0.427 -0.578,-0.528C-0.284,-0.629 0.052,-0.679 0.431,-0.679C0.835,-0.679 1.173,-0.621 1.445,-0.505C1.717,-0.389 1.923,-0.223 2.06,-0.009C2.197,0.205 2.267,0.462 2.267,0.762L2.267,3.377C2.267,3.493 2.294,3.574 2.349,3.62C2.404,3.666 2.471,3.689 2.551,3.689L2.909,3.689L2.909,4.221C2.823,4.258 2.728,4.29 2.625,4.317C2.52,4.345 2.401,4.359 2.267,4.359C2.107,4.359 1.976,4.327 1.872,4.262C1.768,4.198 1.688,4.11 1.634,3.996C1.579,3.883 1.542,3.756 1.524,3.616L1.459,3.616C1.349,3.769 1.209,3.902 1.041,4.015C0.873,4.128 0.685,4.215 0.477,4.276C0.269,4.337 0.043,4.368 -0.202,4.368" style="fill:rgb(65,64,66);fill-rule:nonzero;"/>
    </g>
    <g transform="matrix(1,0,0,1,163.313,30.4752)">
        <path d="M0,5.331C0.305,5.331 0.553,5.264 0.742,5.129C0.932,4.995 1.072,4.799 1.16,4.542C1.249,4.285 1.293,3.967 1.293,3.588L1.293,3.441C1.293,3.11 1.26,2.832 1.193,2.605C1.125,2.379 1.033,2.199 0.917,2.064C0.8,1.93 0.666,1.835 0.513,1.78C0.361,1.725 0.198,1.697 0.027,1.697C-0.273,1.697 -0.517,1.757 -0.707,1.876C-0.897,1.995 -1.037,2.182 -1.129,2.436C-1.221,2.69 -1.266,3.019 -1.266,3.422L-1.266,3.615C-1.266,4.031 -1.218,4.366 -1.12,4.62C-1.022,4.874 -0.88,5.055 -0.693,5.166C-0.507,5.276 -0.276,5.331 0,5.331M-0.193,6.038C-0.591,6.038 -0.932,5.949 -1.216,5.771C-1.501,5.594 -1.721,5.317 -1.877,4.941C-2.033,4.565 -2.111,4.077 -2.111,3.477C-2.111,2.908 -2.032,2.441 -1.873,2.073C-1.713,1.706 -1.494,1.434 -1.212,1.257C-0.931,1.079 -0.603,0.99 -0.23,0.99C-0.015,0.99 0.183,1.015 0.366,1.064C0.55,1.113 0.713,1.189 0.857,1.293C1.002,1.397 1.128,1.535 1.238,1.706L1.293,1.706L1.293,-0.707L2.101,-0.707L2.101,5.927L1.449,5.927L1.376,5.239L1.312,5.239C1.147,5.508 0.932,5.709 0.669,5.84C0.406,5.972 0.119,6.038 -0.193,6.038" style="fill:rgb(65,64,66);fill-rule:nonzero;"/>
    </g>
    <g transform="matrix(1,0,0,1,167.717,34.3927)">
        <path d="M0,-0.807L2.615,-0.807C2.615,-1.076 2.585,-1.303 2.523,-1.486C2.462,-1.67 2.375,-1.82 2.262,-1.936C2.149,-2.052 2.018,-2.136 1.868,-2.188C1.718,-2.24 1.548,-2.266 1.358,-2.266C1.077,-2.266 0.838,-2.214 0.643,-2.11C0.447,-2.006 0.297,-1.847 0.192,-1.633C0.089,-1.419 0.024,-1.143 0,-0.807M1.349,2.12C0.872,2.12 0.47,2.03 0.142,1.85C-0.185,1.669 -0.433,1.392 -0.601,1.019C-0.77,0.646 -0.854,0.172 -0.854,-0.403C-0.854,-0.984 -0.77,-1.46 -0.601,-1.83C-0.433,-2.201 -0.184,-2.476 0.147,-2.656C0.478,-2.837 0.89,-2.927 1.385,-2.927C1.839,-2.927 2.218,-2.84 2.523,-2.665C2.83,-2.491 3.061,-2.231 3.216,-1.885C3.373,-1.54 3.45,-1.107 3.45,-0.587L3.45,-0.201L-0.018,-0.201C-0.006,0.184 0.05,0.5 0.152,0.748C0.252,0.996 0.404,1.177 0.606,1.29C0.807,1.403 1.061,1.459 1.367,1.459C1.575,1.459 1.757,1.433 1.913,1.382C2.07,1.329 2.201,1.255 2.308,1.156C2.415,1.059 2.496,0.942 2.551,0.808C2.606,0.674 2.637,0.527 2.643,0.368L3.432,0.368C3.426,0.624 3.377,0.862 3.285,1.079C3.193,1.296 3.059,1.481 2.882,1.634C2.704,1.787 2.487,1.906 2.23,1.992C1.973,2.077 1.679,2.12 1.349,2.12" style="fill:rgb(65,64,66);fill-rule:nonzero;"/>
    </g>
    <g transform="matrix(1,0,0,1,172.626,31.4656)">
        <path d="M0,4.937L0,0.11L0.652,0.11L0.725,0.835L0.789,0.835C0.912,0.639 1.049,0.48 1.203,0.358C1.355,0.235 1.524,0.146 1.707,0.087C1.89,0.029 2.089,0 2.304,0C2.615,0 2.885,0.063 3.111,0.188C3.337,0.314 3.505,0.529 3.615,0.835L3.671,0.835C3.787,0.639 3.921,0.482 4.075,0.363C4.227,0.243 4.399,0.153 4.588,0.092C4.777,0.03 4.98,0 5.194,0C5.488,0 5.744,0.05 5.965,0.151C6.185,0.252 6.358,0.418 6.483,0.647C6.608,0.876 6.671,1.184 6.671,1.569L6.671,4.937L5.864,4.937L5.864,1.698C5.864,1.502 5.841,1.34 5.795,1.211C5.749,1.083 5.683,0.984 5.597,0.913C5.512,0.843 5.413,0.792 5.299,0.762C5.186,0.731 5.066,0.716 4.937,0.716C4.722,0.716 4.525,0.771 4.345,0.881C4.165,0.991 4.02,1.15 3.909,1.358C3.799,1.566 3.744,1.814 3.744,2.102L3.744,4.937L2.937,4.937L2.937,1.698C2.937,1.502 2.912,1.34 2.863,1.211C2.814,1.083 2.749,0.984 2.67,0.913C2.591,0.843 2.494,0.792 2.381,0.762C2.268,0.731 2.15,0.716 2.028,0.716C1.808,0.716 1.605,0.771 1.418,0.881C1.231,0.991 1.083,1.15 0.973,1.358C0.862,1.566 0.807,1.814 0.807,2.102L0.807,4.937L0,4.937Z" style="fill:rgb(65,64,66);fill-rule:nonzero;"/>
    </g>
    <g transform="matrix(1,0,0,1,181.389,31.5756)">
        <path d="M0,6.497C-0.147,6.497 -0.274,6.486 -0.381,6.465C-0.488,6.443 -0.56,6.43 -0.596,6.424L-0.596,5.836L-0.192,5.836C-0.045,5.836 0.098,5.806 0.239,5.745C0.379,5.684 0.51,5.58 0.633,5.433C0.756,5.286 0.859,5.084 0.945,4.827L-0.927,0L-0.082,0L0.881,2.487C0.924,2.603 0.974,2.746 1.032,2.914C1.09,3.082 1.148,3.255 1.206,3.432C1.264,3.609 1.313,3.766 1.35,3.9L1.405,3.9C1.429,3.802 1.459,3.692 1.495,3.57C1.532,3.448 1.571,3.32 1.611,3.189C1.65,3.057 1.69,2.932 1.73,2.813C1.77,2.693 1.802,2.588 1.826,2.496L2.643,0L3.46,0L1.826,4.689C1.734,4.952 1.634,5.195 1.524,5.419C1.413,5.642 1.291,5.833 1.156,5.992C1.022,6.151 0.859,6.275 0.67,6.364C0.48,6.453 0.257,6.497 0,6.497" style="fill:rgb(65,64,66);fill-rule:nonzero;"/>
    </g>
</svg>
