<?xml version="1.0" encoding="UTF-8" standalone="no"?>
<svg
   width="200"
   height="200"
   xml:space="preserve"
   overflow="hidden"
   version="1.1"
   id="svg4"
   sodipodi:docname="file-right.svg"
   inkscape:version="1.3.2 (091e20e, 2023-11-25, custom)"
   xmlns:inkscape="http://www.inkscape.org/namespaces/inkscape"
   xmlns:sodipodi="http://sodipodi.sourceforge.net/DTD/sodipodi-0.dtd"
   xmlns="http://www.w3.org/2000/svg"
   xmlns:svg="http://www.w3.org/2000/svg"><defs
     id="defs4" /><sodipodi:namedview
     id="namedview4"
     pagecolor="#ffffff"
     bordercolor="#666666"
     borderopacity="1.0"
     inkscape:showpageshadow="2"
     inkscape:pageopacity="0.0"
     inkscape:pagecheckerboard="true"
     inkscape:deskcolor="#d1d1d1"
     showguides="true"
     inkscape:zoom="5.6568542"
     inkscape:cx="58.513086"
     inkscape:cy="104.38664"
     inkscape:window-width="3840"
     inkscape:window-height="2054"
     inkscape:window-x="3829"
     inkscape:window-y="-11"
     inkscape:window-maximized="1"
     inkscape:current-layer="g7"><sodipodi:guide
       position="0,175"
       orientation="0,1"
       id="guide4"
       inkscape:locked="false"
       inkscape:label=""
       inkscape:color="rgb(0,134,229)" /><sodipodi:guide
       position="0,25"
       orientation="0,1"
       id="guide5"
       inkscape:locked="false"
       inkscape:label=""
       inkscape:color="rgb(0,134,229)" /><sodipodi:guide
       position="25,200"
       orientation="-1,0"
       id="guide6"
       inkscape:locked="false"
       inkscape:label=""
       inkscape:color="rgb(0,134,229)" /><sodipodi:guide
       position="175,200"
       orientation="-1,0"
       id="guide7"
       inkscape:locked="false"
       inkscape:label=""
       inkscape:color="rgb(0,134,229)" /></sodipodi:namedview><g
     style="overflow:hidden"
     id="g7"
     transform="matrix(1.4897299,0,0,1.3163272,-12.440729,1.1071453)"><g
       id="g8"
       style="display:inline"
       transform="matrix(0.91196579,0,0,1,15.679053,0)"><path
         d="m 105.99202,119.388 c 0.002,1.946 0.14772,4.002 -0.46792,5.865 -2.06255,6.25 -5.919742,6.817 -10.96785,6.812 l -55.980602,-0.002 c -2.421294,0.001 -5.110498,0.288 -7.419856,-0.66 -6.372067,-2.615 -5.943593,-8.422 -5.94451,-14.356 V 41.284524 c -9.18e-4,-2.9215 -0.394527,-14.710024 0.590872,-17.482324 2.053375,-5.7785 6.845499,-5.5868 11.41467,-5.5602 l 36.812104,0.0059 c 0.650511,-3e-4 2.76444,-0.218 3.27549,7e-4 0.765199,1.0183 1.697383,1.8851 2.556167,2.8067 l 24.141375,26.2979 c 0.63766,0.6819 1.45791,1.3505 1.98639,2.1341 0.0464,2.984434 -0.006,12.674976 0.004,69.9007 z"
         fill="#f4a261"
         id="path1"
         style="display:inline;stroke-width:0.957864"
         sodipodi:nodetypes="cccccccccccccccc" /><path
         d="m 77.304088,18.2486 c 0.765199,1.0183 1.697383,1.8851 2.556167,2.8067 l 24.141375,26.2979 c 0.63766,0.6819 1.45791,1.3505 1.98639,2.1341 -0.0349,0.0015 -0.0688,0.0018 -0.10368,0.0021 l -18.743689,0.0029 c -4.146202,0.0044 -8.501594,-0.8034 -9.582414,-6.1922 -0.304611,-1.5197 -0.254149,-3.1329 -0.255066,-4.6818 z"
         fill="#5776a3"
         id="path2"
         style="display:inline;stroke-width:0.957864" /></g><path
       d="m 103.06498,95.69913 v 7.44877 c -0.003,1.7006 -0.84697,5.01313 1.64485,5.28958 0.98829,0.10963 3.47581,-2.67824 4.13237,-3.30367 l 12.47464,-11.637401 c 6.18389,-5.70305 6.00036,-3.912184 -0.54283,-10.008708 L 108.76293,72.259323 c -0.96071,-0.908244 -2.47632,-2.91777 -3.99193,-2.935333 -2.28761,-0.0264 -1.70773,3.423106 -1.70602,4.729433 v 7.043773 l -12.130842,0.0023 c -2.041198,-4.87e-4 -4.091864,-0.04688 -6.1322,-0.0023 l -6.398439,-0.0023 c -5.206808,-0.01043 -4.37879,0.370581 -4.37879,4.776822 l 0.0077,7.802605 c 0.02935,2.621016 2.67708,2.028625 4.651921,2.028625 l 6.117558,-0.0035 z"
       fill="#2a9d8f"
       id="path3"
       style="display:inline;stroke-width:0.833335" /></g></svg>
