<?xml version="1.0" encoding="UTF-8" standalone="no"?>
<svg
   width="200"
   height="200"
   xml:space="preserve"
   overflow="hidden"
   version="1.1"
   id="svg4"
   sodipodi:docname="metric.svg"
   inkscape:version="1.3.2 (091e20e, 2023-11-25, custom)"
   xmlns:inkscape="http://www.inkscape.org/namespaces/inkscape"
   xmlns:sodipodi="http://sodipodi.sourceforge.net/DTD/sodipodi-0.dtd"
   xmlns="http://www.w3.org/2000/svg"
   xmlns:svg="http://www.w3.org/2000/svg"><defs
     id="defs4" /><sodipodi:namedview
     id="namedview4"
     pagecolor="#ffffff"
     bordercolor="#666666"
     borderopacity="1.0"
     inkscape:showpageshadow="2"
     inkscape:pageopacity="0.0"
     inkscape:pagecheckerboard="true"
     inkscape:deskcolor="#d1d1d1"
     showguides="true"
     inkscape:zoom="5.6568542"
     inkscape:cx="126.92567"
     inkscape:cy="77.870134"
     inkscape:window-width="3840"
     inkscape:window-height="2054"
     inkscape:window-x="3829"
     inkscape:window-y="-11"
     inkscape:window-maximized="1"
     inkscape:current-layer="g18"><sodipodi:guide
       position="0,175"
       orientation="0,1"
       id="guide4"
       inkscape:locked="false"
       inkscape:label=""
       inkscape:color="rgb(0,134,229)" /><sodipodi:guide
       position="0,25"
       orientation="0,1"
       id="guide5"
       inkscape:locked="false"
       inkscape:label=""
       inkscape:color="rgb(0,134,229)" /><sodipodi:guide
       position="25,200"
       orientation="-1,0"
       id="guide6"
       inkscape:locked="false"
       inkscape:label=""
       inkscape:color="rgb(0,134,229)" /><sodipodi:guide
       position="175,200"
       orientation="-1,0"
       id="guide7"
       inkscape:locked="false"
       inkscape:label=""
       inkscape:color="rgb(0,134,229)" /></sodipodi:namedview><g
     style="overflow:hidden"
     id="g7"
     transform="matrix(1.4897299,0,0,1.3163272,-12.440729,1.1071453)"><g
       id="g17"
       style="overflow:hidden"
       transform="matrix(1.3798863,0,0,1.3798863,-29.815759,-26.73383)"><g
         id="g16"
         style="overflow:hidden;fill:#2a9d8f;fill-opacity:1"
         transform="matrix(0.67126262,0,0,0.75968954,-115.4016,14.145745)"><g
           style="overflow:hidden"
           id="g18"
           transform="matrix(0.89306932,0,0,0.88846485,218.23531,11.88944)"><g
             style="overflow:hidden"
             id="g19"
             transform="matrix(1.0178399,0,0,1.0213518,-1.4659848,-2.1711141)"><g
               transform="translate(-26,-18)"
               id="g8"><path
                 d="m 99.1223,33.7112 c 26.8847,-0.705 50.7547,15.3211 59.2797,41.1751 2.478,7.5158 3.359,15.8305 2.741,23.7368 -2.172,27.7669 -24.859,51.8729 -52.83,54.4669 -1.525,0.141 -3.07,0.14 -4.583,0.383 -32.1109,0.541 -59.3598,-23.09 -61.8086,-55.3849 -2.2838,-30.1198 18.0164,-57.0833 47.5481,-63.1727 3.1843,-0.6566 6.4161,-0.9579 9.6528,-1.2042 z"
                 fill="#f4a261"
                 id="path1" /><path
                 d="m 138.002,60.2269 4.31,0.5453 c 0.752,0.0968 1.538,0.1552 2.278,0.3171 l -12.863,12.5778 c -0.856,-1.5351 -1.889,-2.9259 -3.152,-4.1484 l 6.79,-6.6685 c 0.887,-0.8635 1.724,-1.7875 2.637,-2.6233 z"
                 fill="#e76f51"
                 id="path2" /><path
                 d="m 126.37,67.134 c 3.137,-3.0699 6.183,-6.2774 9.34,-9.3667 1.043,-1.0202 2.006,-2.1376 3.134,-3.0649 -0.292,1.8185 -0.39,3.7435 -0.842,5.5245 -0.913,0.8358 -1.75,1.7598 -2.637,2.6233 l -6.79,6.6685 c 1.263,1.2225 2.296,2.6133 3.152,4.1484 3.009,4.0911 4.886,10.1382 5.547,15.1369 2.868,21.676 -14.185,40.683 -35.834,40.679 C 83.7271,129.479 68.1783,116.244 65.9079,98.5311 61.9873,67.9433 95.0698,46.9867 120.436,62.6969 c 2.142,1.3268 3.953,2.8955 5.934,4.4371 z"
                 fill="#5776a3"
                 id="path3" /><path
                 d="M 80.0276,109.832 C 72.3225,100.289 72.999,85.8429 80.57,76.4385 c 8.0679,-10.0218 23.239,-12.8686 34.336,-6.2798 1.714,1.0181 3.256,2.2562 4.802,3.5084 -2.457,2.1523 -4.723,4.6199 -7.039,6.9295 -6.359,-6.2359 -17.4612,-5.2788 -23.4675,0.9237 -5.5543,5.735 -6.4169,14.8729 -1.8359,21.4357 -2.4839,2.226 -4.9574,4.54 -7.338,6.876 z"
                 fill="#e9c46a"
                 id="path4" /><path
                 d="m 114.956,82.9442 c 1.021,-1.5086 5.462,-5.5599 6.972,-7.1088 1.066,1.159 1.929,2.4738 2.716,3.8337 10.817,18.6868 -2.967,41.7099 -24.467,40.7459 -7.2937,-0.327 -15.9426,-4.468 -20.1494,-10.583 2.3806,-2.336 4.8541,-4.65 7.338,-6.876 3.0686,3.973 7.199,6.842 12.356,7.179 9.4394,0.617 18.3644,-5.621 18.8864,-15.3975 0.219,-4.1109 -0.847,-8.6793 -3.652,-11.7933 z"
                 fill="#f4a261"
                 id="path5" /><path
                 d="m 126.37,67.134 c 3.137,-3.0699 6.183,-6.2774 9.34,-9.3667 1.043,-1.0202 2.006,-2.1376 3.134,-3.0649 -0.292,1.8185 -0.39,3.7435 -0.842,5.5245 -0.913,0.8358 -1.75,1.7598 -2.637,2.6233 l -6.79,6.6685 c -2.357,1.8029 -4.163,4.4952 -6.647,6.3167 -1.51,1.5489 -5.951,5.6002 -6.972,7.1088 2.805,3.114 3.871,7.6824 3.652,11.7933 -0.522,9.7765 -9.447,16.0145 -18.8864,15.3975 -5.157,-0.337 -9.2874,-3.206 -12.356,-7.179 -4.581,-6.5628 -3.7184,-15.7007 1.8359,-21.4357 6.0063,-6.2025 17.1085,-7.1596 23.4675,-0.9237 2.316,-2.3096 4.582,-4.7772 7.039,-6.9295 2.143,-1.7103 4.493,-4.5754 6.662,-6.5331 z"
                 fill="#5776a3"
                 id="path6" /><path
                 d="m 98.4122,96.9529 c -1.5861,-1.0407 -0.3056,-4.1448 0.0722,-5.8388 0.4524,-2.0297 2.0426,-2.1975 2.9286,-0.4315 v 1.2354 c -0.342,0.6922 -0.428,1.2452 -0.481,2.0049 0.923,0.0758 1.873,0.0487 2.798,0 1.903,0.3663 1.499,2.242 0.833,2.7997 -0.435,0.3651 -5.2693,0.2498 -6.1508,0.2303 z"
                 fill="#e76f51"
                 id="path7" /><path
                 d="m 126.37,67.134 c 3.137,-3.0699 6.183,-6.2774 9.34,-9.3667 1.043,-1.0202 2.006,-2.1376 3.134,-3.0649 -0.292,1.8185 -0.39,3.7435 -0.842,5.5245 -0.913,0.8358 -1.75,1.7598 -2.637,2.6233 l -6.79,6.6685 c -2.357,1.8029 -4.163,4.4952 -6.647,6.3167 -1.51,1.5489 -5.951,5.6002 -6.972,7.1088 -3.15,2.9161 -8.514,7.7027 -11.226,10.9787 -0.925,0.0487 -1.875,0.0758 -2.798,0 0.053,-0.7597 0.139,-1.3127 0.481,-2.0049 0.819,-1.2268 2.074,-2.2853 3.116,-3.327 2.681,-2.6802 5.54,-5.2419 8.14,-7.9944 2.316,-2.3096 4.582,-4.7772 7.039,-6.9295 2.143,-1.7103 4.493,-4.5754 6.662,-6.5331 z"
                 fill="#2a9d8f"
                 id="path8" /></g></g></g></g></g></g></svg>
