<?xml version="1.0" encoding="UTF-8" standalone="no"?>
<svg
   width="200"
   height="200"
   xml:space="preserve"
   overflow="hidden"
   version="1.1"
   id="svg4"
   sodipodi:docname="scatter-plot.svg"
   inkscape:version="1.3.2 (091e20e, 2023-11-25, custom)"
   xmlns:inkscape="http://www.inkscape.org/namespaces/inkscape"
   xmlns:sodipodi="http://sodipodi.sourceforge.net/DTD/sodipodi-0.dtd"
   xmlns="http://www.w3.org/2000/svg"
   xmlns:svg="http://www.w3.org/2000/svg"><defs
     id="defs4" /><sodipodi:namedview
     id="namedview4"
     pagecolor="#ffffff"
     bordercolor="#666666"
     borderopacity="1.0"
     inkscape:showpageshadow="2"
     inkscape:pageopacity="0.0"
     inkscape:pagecheckerboard="true"
     inkscape:deskcolor="#d1d1d1"
     showguides="true"
     inkscape:zoom="2.8284271"
     inkscape:cx="327.03689"
     inkscape:cy="52.149125"
     inkscape:window-width="3840"
     inkscape:window-height="2054"
     inkscape:window-x="3829"
     inkscape:window-y="-11"
     inkscape:window-maximized="1"
     inkscape:current-layer="g4"><sodipodi:guide
       position="0,175"
       orientation="0,1"
       id="guide4"
       inkscape:locked="false"
       inkscape:label=""
       inkscape:color="rgb(0,134,229)" /><sodipodi:guide
       position="0,25"
       orientation="0,1"
       id="guide5"
       inkscape:locked="false"
       inkscape:label=""
       inkscape:color="rgb(0,134,229)" /><sodipodi:guide
       position="25,200"
       orientation="-1,0"
       id="guide6"
       inkscape:locked="false"
       inkscape:label=""
       inkscape:color="rgb(0,134,229)" /><sodipodi:guide
       position="175,200"
       orientation="-1,0"
       id="guide7"
       inkscape:locked="false"
       inkscape:label=""
       inkscape:color="rgb(0,134,229)" /></sodipodi:namedview><g
     id="g16"
     style="overflow:hidden;fill:#2a9d8f;fill-opacity:1"
     transform="matrix(1.3798863,0,0,1.3798863,-294.08437,-8.3892474)"
     inkscape:label="g16"><g
       transform="matrix(0.96354026,0,0,0.96195824,185.80374,-169.13)"
       id="g4"
       style="overflow:hidden;fill:#2a9d8f;fill-opacity:1"><path
         d="m 107.21184,219.52638 c 4.38744,-0.31017 8.75808,2.98955 9.10225,7.50285 0.36002,4.71509 -2.78599,9.16859 -7.67894,9.55724 -11.3855,0.99683 -12.709005,-16.04831 -1.42331,-17.06009 z"
         fill="#f4a261"
         id="path1"
         style="stroke-width:0.933469" /><path
         d="m 139.40687,210.34097 c 10.95085,-1.06597 13.60253,15.00663 1.93629,17.0769 -11.12528,1.1052 -13.39641,-15.15425 -1.93629,-17.0769 z"
         fill="#e76f51"
         id="path2"
         style="stroke-width:0.933469" /><path
         d="m 89.733001,244.09306 c 10.610419,-0.94639 13.181879,15.68022 1.51191,17.35157 -12.552308,0.23916 -11.673703,-17.03207 -1.51191,-17.35157 z"
         fill="#f4a261"
         id="path3"
         style="stroke-width:0.933469" /><path
         d="m 128.53435,238.82023 c 11.36218,-0.41013 12.4777,16.22301 1.00639,17.32167 l -0.11566,0.0103 c -11.20455,0.92863 -12.8545,-16.65463 -0.89073,-17.33195 z"
         fill="#5776a3"
         id="path4"
         style="stroke-width:0.933469" /><path
         d="m 73.79405,269.94898 c 2.127494,-0.29148 4.458317,0.47926 6.138114,1.77879 6.323722,4.89166 3.118957,14.88051 -4.509616,15.78205 -11.702617,1.12856 -13.01866,-16.51823 -1.628498,-17.56084 z"
         fill="#2a9d8f"
         id="path5"
         style="stroke-width:0.933469" /><rect
         style="fill:#5776a3;fill-opacity:1;stroke-width:0.753919"
         id="rect19"
         width="4.5127168"
         height="113.00346"
         x="47.155132"
         y="200.97244" /><rect
         style="overflow:hidden;fill:#5776a3;fill-opacity:1;stroke-width:0.753919"
         id="rect19-8"
         width="4.5201383"
         height="112.81792"
         x="-313.97589"
         y="47.155132"
         transform="rotate(-90)" /></g></g></svg>
