<?xml version="1.0" encoding="UTF-8" standalone="no"?>
<svg
   width="200"
   height="200"
   xml:space="preserve"
   overflow="hidden"
   version="1.1"
   id="svg4"
   sodipodi:docname="workflow.svg"
   inkscape:version="1.3.2 (091e20e, 2023-11-25, custom)"
   xmlns:inkscape="http://www.inkscape.org/namespaces/inkscape"
   xmlns:sodipodi="http://sodipodi.sourceforge.net/DTD/sodipodi-0.dtd"
   xmlns="http://www.w3.org/2000/svg"
   xmlns:svg="http://www.w3.org/2000/svg"><defs
     id="defs4" /><sodipodi:namedview
     id="namedview4"
     pagecolor="#ffffff"
     bordercolor="#666666"
     borderopacity="1.0"
     inkscape:showpageshadow="2"
     inkscape:pageopacity="0.0"
     inkscape:pagecheckerboard="true"
     inkscape:deskcolor="#d1d1d1"
     showguides="true"
     inkscape:zoom="5.6568542"
     inkscape:cx="126.92567"
     inkscape:cy="77.870134"
     inkscape:window-width="3840"
     inkscape:window-height="2054"
     inkscape:window-x="3829"
     inkscape:window-y="-11"
     inkscape:window-maximized="1"
     inkscape:current-layer="g18"><sodipodi:guide
       position="0,175"
       orientation="0,1"
       id="guide4"
       inkscape:locked="false"
       inkscape:label=""
       inkscape:color="rgb(0,134,229)" /><sodipodi:guide
       position="0,25"
       orientation="0,1"
       id="guide5"
       inkscape:locked="false"
       inkscape:label=""
       inkscape:color="rgb(0,134,229)" /><sodipodi:guide
       position="25,200"
       orientation="-1,0"
       id="guide6"
       inkscape:locked="false"
       inkscape:label=""
       inkscape:color="rgb(0,134,229)" /><sodipodi:guide
       position="175,200"
       orientation="-1,0"
       id="guide7"
       inkscape:locked="false"
       inkscape:label=""
       inkscape:color="rgb(0,134,229)" /></sodipodi:namedview><g
     style="overflow:hidden"
     id="g7"
     transform="matrix(1.4897299,0,0,1.3163272,-12.440729,1.1071453)"><g
       id="g17"
       style="overflow:hidden"
       transform="matrix(1.3798863,0,0,1.3798863,-29.815759,-26.73383)"><g
         id="g16"
         style="overflow:hidden;fill:#2a9d8f;fill-opacity:1"
         transform="matrix(0.67126262,0,0,0.75968954,-115.4016,14.145745)"><g
           style="overflow:hidden"
           id="g18"
           transform="matrix(0.89306932,0,0,0.88846485,218.23531,11.88944)"><g
             transform="translate(-175,-18)"
             id="g6"><path
               d="m 193.634,86.8616 0.102,-0.0756 c 1.385,-1.0305 3.565,-4.7912 4.929,-4.5657 1.424,0.235 3.32,3.7256 4.6,4.6413 0.786,1.0489 1.715,1.9832 2.601,2.9465 3.971,4.3166 0.191,3.3459 -2.601,3.5372 -0.185,22.6197 16.187,41.4957 37.978,46.0857 1.015,0.214 2.017,0.378 3.007,0.694 l -0.108,0.07 c -10.617,6.79 -4.777,4.524 -0.622,9.701 -1.356,-0.301 -2.737,-0.476 -4.098,-0.75 -26.141,-5.249 -46.27,-28.894 -46.124,-55.8007 -0.718,-0.0431 -4.431,0.3271 -3.622,-1.5566 0.598,-1.3911 3.016,-3.2485 3.958,-4.9271 z"
               fill="#2a9d8f"
               id="path1" /><path
               d="m 257.322,36.6157 c 24.89,2.8495 45.343,21.9745 49.799,46.7798 0.492,2.7393 0.9824,6.772504 0.7774,9.532704 0.553,0.2415 3.2226,0.490896 3.3606,0.964996 0.327,1.128 -2.996,4.2516 -3.424,5.6468 -1.683,1.222 -2.891,3.878 -5.217,5.377 -1.307,-0.858 -3.552,-3.931 -4.925,-5.377 -3.229,-3.727 -7.298,-6.3435 0,-6.6839 0.123,-20.9746 -13.928,-39.5062 -34.07,-45.1491 -2.073,-0.5806 -4.186,-0.8635 -6.301,-1.2363 1.153,-1.432 4.178,-2.8216 5.8,-4.6743 -1.026,-1.7908 -4.214,-3.523 -5.8,-5.1807 z"
               fill="#2a9d8f"
               id="path2"
               sodipodi:nodetypes="cccccccccccc" /><path
               d="m 302.618,104.917 c 2.326,-1.499 3.534,-4.155 5.217,-5.377 -3.087,16.988 -9.959,30.416 -24.677,40.593 -9,6.224 -21.302,10.352 -32.368,9.919 -0.01,0.7 0.4,4.342 -0.924,4.144 -1.158,-0.174 -4.796,-3.864 -6.346,-4.3 -4.155,-5.177 -9.995,-2.911 0.622,-9.701 l 0.108,-0.07 c 0.746,-0.752 5.306,-4.927 6.299,-4.07 0.429,0.369 0.245,3.349 0.241,4.07 21.926,0.678 41.438,-16.017 46.15,-37.153 0.254,-1.141 0.342,-2.331 0.753,-3.432 1.373,1.446 3.618,4.519 4.925,5.377 z"
               fill="#f4a261"
               id="path3" /><path
               d="m 250.47,35.9363 c -0.005,-0.7956 -0.288,-3.5099 0.294,-4.0737 0.878,-0.2413 5.053,4.0133 6.558,4.7531 1.586,1.6577 4.774,3.3899 5.8,5.1807 -1.622,1.8527 -4.647,3.2423 -5.8,4.6743 -1.219,0.7773 -2.34,1.6965 -3.475,2.5881 -4.311,3.3846 -3.4,0.9691 -3.377,-2.871 -20.67,-0.1007 -39.469,13.6869 -45.429,33.6596 -0.572,1.915 -1.082,5.4573 -1.776,7.0142 -1.28,-0.9157 -3.176,-4.4063 -4.6,-4.6413 -1.364,-0.2255 -3.544,3.5352 -4.929,4.5657 l -0.102,0.0756 c 0.027,-2.0225 0.666,-4.6658 1.157,-6.6505 6.336,-25.6437 28.904,-44.3746 55.679,-44.2748 z"
               fill="#f4a261"
               id="path4" /><path
               d="m 243.973,63.2418 8.523,-8e-4 c 1.477,-6e-4 2.962,-0.0502 4.438,8e-4 0.319,1.4646 0.549,3.3861 0.388,4.8722 2.211,0.3392 4.539,1.285 6.418,2.4989 1.082,-0.9024 2.051,-1.9873 3.06,-2.9736 0.962,0.9317 1.87,1.9141 2.824,2.8523 l 4.053,4.0299 c 0.884,0.8927 1.921,1.7456 2.56,2.8343 -0.773,1.1339 -1.901,1.9738 -2.742,3.0605 1.164,2.0021 2.238,4.1645 2.742,6.4453 1.61,0.0021 3.22,-0.0263 4.83,0 0.173,4.4707 -0.051,8.9844 0,13.4614 -1.587,0.111 -3.235,-0.016 -4.83,0 -0.611,2.056 -1.43,3.972 -2.454,5.857 1.042,0.999 1.98,2.203 2.943,3.286 -3.199,3.082 -6.355,6.214 -9.468,9.384 -1.142,-0.828 -2.288,-1.663 -3.518,-2.358 -2.232,0.805 -3.95,1.861 -6.418,2.633 v 4.125 c 0.006,0.18 0.028,0.097 -0.065,0.251 -4.426,-0.066 -8.858,-0.018 -13.284,-0.017 v -4.359 c -2.106,-0.685 -4.337,-1.553 -6.268,-2.633 -1.122,0.708 -2.337,1.471 -3.324,2.358 -1.34,-1.027 -2.513,-2.314 -3.707,-3.505 l -5.835,-5.879 c 0.957,-1 1.869,-2.041 2.828,-3.04 -0.968,-1.793 -1.89,-3.671 -2.472,-5.628 -1.138,-0.421 -3.755,-0.655 -5.102,-0.915 l -10e-4,-8.7972 c -0.001,-1.4973 -0.064,-3.0079 10e-4,-4.5032 1.69,-0.085 3.42,-0.4242 5.102,-0.632 0.75,-1.8876 1.637,-3.686 2.472,-5.5343 l -2.828,-3.0605 6.352,-6.3499 c 1.046,-1.0439 2.068,-2.1595 3.19,-3.1207 1.096,0.9219 2.268,1.7597 3.324,2.7277 1.641,-1.2133 3.86,-1.9427 5.815,-2.4989 0.219,-1.6228 0.355,-3.2376 0.453,-4.8722 z"
               fill="#5776a3"
               id="path5" /><path
               d="m 249.503,78.3858 c 7.629,-1.6812 15.808,6.5017 16.247,14.0954 0.474,8.1828 -5.969,15.4288 -14.161,15.8728 l -0.159,0.007 c -8.357,0.324 -15.797,-6.077 -16.083,-14.5549 -0.267,-7.9125 6.16,-15.1655 14.156,-15.4203 z"
               fill="#e9c46a"
               id="path6" /></g></g></g></g></g></svg>
