<?xml version="1.0" encoding="UTF-8" standalone="no"?>
<!-- Created with Inkscape (http://www.inkscape.org/) -->

<svg
   version="1.1"
   id="svg2"
   width="3000"
   height="500"
   viewBox="0 0 3000 500"
   sodipodi:docname="proteobench-logo-horizontal.svg"
   inkscape:version="1.2 (dc2aedaf03, 2022-05-15)"
   xmlns:inkscape="http://www.inkscape.org/namespaces/inkscape"
   xmlns:sodipodi="http://sodipodi.sourceforge.net/DTD/sodipodi-0.dtd"
   xmlns="http://www.w3.org/2000/svg"
   xmlns:svg="http://www.w3.org/2000/svg">
  <defs
     id="defs6">
    <clipPath
       clipPathUnits="userSpaceOnUse"
       id="clipPath18">
      <path
         d="M 0,1.2207e-4 H 960 V 540.00012 H 0 Z"
         clip-rule="evenodd"
         id="path16" />
    </clipPath>
    <clipPath
       clipPathUnits="userSpaceOnUse"
       id="clipPath36">
      <path
         d="M 1.4305e-5,0 H 960.00001 V 540 H 1.4305e-5 Z"
         clip-rule="evenodd"
         id="path34" />
    </clipPath>
  </defs>
  <sodipodi:namedview
     id="namedview4"
     pagecolor="#ffffff"
     bordercolor="#000000"
     borderopacity="0.25"
     inkscape:showpageshadow="2"
     inkscape:pageopacity="0.0"
     inkscape:pagecheckerboard="0"
     inkscape:deskcolor="#d1d1d1"
     showgrid="false"
     inkscape:zoom="0.23177389"
     inkscape:cx="1016.0765"
     inkscape:cy="-75.504622"
     inkscape:window-width="1440"
     inkscape:window-height="890"
     inkscape:window-x="-6"
     inkscape:window-y="-6"
     inkscape:window-maximized="1"
     inkscape:current-layer="g1328">
    <inkscape:page
       x="0"
       y="0"
       id="page8"
       width="3000"
       height="500" />
  </sodipodi:namedview>
  <g
     id="g10"
     inkscape:groupmode="layer"
     inkscape:label="Page 1"
     transform="matrix(1.3333333,0,0,-1.3333333,-386.07999,501.14665)">
    <rect
       style="display:none;fill:#314159;fill-opacity:1;stroke-width:0.732469"
       id="rect1491"
       width="2250.9705"
       height="368.22723"
       x="290.1152"
       y="-371.28369"
       transform="scale(1,-1)"
       inkscape:label="Background" />
    <g
       id="g363"
       transform="translate(-0.9744451,4.8034241)">
      <g
         id="g1328"
         transform="translate(-15.27408)"
         inkscape:label="Logo"
         style="fill:#ffffff">
        <g
           id="g30"
           transform="matrix(0.97596367,0,0,0.97596367,176.24465,-89.473179)"
           style="display:inline;fill:#314159;fill-opacity:1;stroke:#314159;stroke-opacity:1"
           inkscape:label="Text">
          <g
             id="g32"
             clip-path="url(#clipPath36)"
             transform="matrix(5.6698916,0,0,5.6698916,-1175.9024,-1604.226)"
             style="fill:#314159;fill-opacity:1;stroke:#314159;stroke-opacity:1">
            <g
               aria-label="ProteoBench"
               transform="matrix(1,0,0,-1,329.23,317.45)"
               id="text40"
               style="font-size:48px;font-family:MuseoModerno;-inkscape-font-specification:MuseoModerno-Regular">
              <path
                 d="m 3.648,0 v -33.6 h 14.16 q 3.168,0 5.76,1.44 2.592,1.392 4.128,3.936 1.536,2.544 1.536,5.952 0,3.312 -1.536,5.856 -1.488,2.544 -4.08,3.984 -2.592,1.44 -5.904,1.44 H 8.256 V 0 Z m 4.608,-15.072 h 8.928 q 2.064,0 3.744,-0.816 1.728,-0.864 2.688,-2.496 1.008,-1.632 1.008,-3.888 0,-2.304 -1.008,-3.888 -0.96,-1.632 -2.688,-2.496 -1.68,-0.864 -3.696,-0.864 H 8.256 Z"
                 id="path17364" />
              <path
                 d="m 34.464,0 v -17.52 q 0,-3.264 1.824,-5.088 1.872,-1.872 5.136,-1.872 h 5.04 v 3.792 H 42.24 q -1.584,0 -2.496,0.912 -0.864,0.912 -0.864,2.544 V 0 Z"
                 id="path17366" />
              <path
                 d="m 62.064001,0.576 q -3.744,0 -6.624,-1.68 -2.88,-1.728 -4.56,-4.608 -1.68,-2.928 -1.68,-6.528 0,-3.6 1.68,-6.48 1.68,-2.928 4.56,-4.608 2.88,-1.728 6.624,-1.728 3.744,0 6.624,1.728 2.928,1.68 4.56,4.608 1.68,2.88 1.68,6.48 0,3.6 -1.68,6.528 -1.632,2.88 -4.56,4.608 -2.88,1.68 -6.624,1.68 z m 0,-3.792 q 2.544,0 4.416,-1.2 1.872,-1.2 2.928,-3.216 1.056,-2.064 1.056,-4.608 0,-2.544 -1.056,-4.56 -1.056,-2.064 -2.928,-3.264 -1.872,-1.2 -4.416,-1.2 -2.496,0 -4.416,1.2 -1.872,1.2 -2.928,3.264 -1.056,2.016 -1.056,4.56 0,2.544 1.056,4.608 1.056,2.016 2.928,3.216 1.92,1.2 4.416,1.2 z"
                 id="path17368" />
              <path
                 d="m 88.943997,0 q -3.264,0 -5.136,-1.872 -1.824,-1.872 -1.824,-5.088 v -23.664 h 4.416 v 23.376 q 0,1.584 0.864,2.544 0.912,0.912 2.496,0.912 h 4.944 V 0 Z m -11.184,-20.688 v -3.792 h 17.04 v 3.792 z"
                 id="path17370" />
              <path
                 d="m 112.56,0 q -4.032,0 -7.152,-1.488 -3.12,-1.536 -4.896,-4.272 -1.727999,-2.784 -1.727999,-6.48 0,-3.648 1.487999,-6.528 1.488,-2.928 4.128,-4.608 2.64,-1.68 6.144,-1.68 3.792,0 6.288,1.632 2.544,1.632 3.792,4.416 1.248,2.736 1.248,6.144 0,0.528 -0.048,1.104 0,0.576 -0.096,1.008 h -18.24 q 0.24,2.256 1.488,3.84 1.248,1.536 3.168,2.352 1.968,0.768 4.32,0.768 h 6.384 V 0 Z m -9.12,-13.872 h 13.968 q 0,-0.912 -0.192,-1.92 -0.192,-1.056 -0.672,-2.016 -0.48,-1.008 -1.296,-1.776 -0.768,-0.816 -1.968,-1.296 -1.152,-0.48 -2.736,-0.48 -1.68,0 -2.976,0.672 -1.248,0.624 -2.16,1.728 -0.912,1.056 -1.392,2.4 -0.48,1.344 -0.576,2.688 z"
                 id="path17372" />
              <path
                 d="m 139.008,0.576 q -3.744,0 -6.624,-1.68 -2.88,-1.728 -4.56,-4.608 -1.68,-2.928 -1.68,-6.528 0,-3.6 1.68,-6.48 1.68,-2.928 4.56,-4.608 2.88,-1.728 6.624,-1.728 3.744,0 6.624,1.728 2.928,1.68 4.56,4.608 1.68,2.88 1.68,6.48 0,3.6 -1.68,6.528 -1.632,2.88 -4.56,4.608 -2.88,1.68 -6.624,1.68 z m 0,-3.792 q 2.544,0 4.416,-1.2 1.872,-1.2 2.928,-3.216 1.056,-2.064 1.056,-4.608 0,-2.544 -1.056,-4.56 -1.056,-2.064 -2.928,-3.264 -1.872,-1.2 -4.416,-1.2 -2.496,0 -4.416,1.2 -1.872,1.2 -2.928,3.264 -1.056,2.016 -1.056,4.56 0,2.544 1.056,4.608 1.056,2.016 2.928,3.216 1.92,1.2 4.416,1.2 z"
                 id="path17374" />
              <path
                 d="m 157.68,0 v -33.6 h 18.24 q 2.544,0 4.464,1.152 1.92,1.104 3.024,3.024 1.104,1.92 1.104,4.368 0,1.68 -0.72,3.264 -0.672,1.536 -1.92,2.688 -1.248,1.152 -2.976,1.728 1.968,0.48 3.408,1.728 1.44,1.248 2.256,2.976 0.864,1.728 0.864,3.744 0,2.496 -1.152,4.512 Q 183.12,-2.4 181.056,-1.2 179.04,0 176.208,0 Z m 4.608,-4.08 h 12.864 q 1.776,0 3.024,-0.768 1.248,-0.816 1.92,-2.064 0.72,-1.296 0.72,-2.736 0,-1.488 -0.72,-2.688 -0.72,-1.248 -2.016,-2.016 -1.296,-0.816 -3.072,-0.816 h -12.72 z m 0,-14.976 h 12.048 q 1.68,0 2.928,-0.72 1.296,-0.768 1.968,-1.968 0.72,-1.248 0.72,-2.592 0,-1.392 -0.672,-2.544 -0.672,-1.2 -1.872,-1.92 -1.2,-0.72 -2.784,-0.72 h -12.336 z"
                 id="path17376" />
              <path
                 d="m 203.376,0 q -4.032,0 -7.152,-1.488 -3.12,-1.536 -4.896,-4.272 -1.728,-2.784 -1.728,-6.48 0,-3.648 1.488,-6.528 1.488,-2.928 4.128,-4.608 2.64,-1.68 6.144,-1.68 3.792,0 6.288,1.632 2.544,1.632 3.792,4.416 1.248,2.736 1.248,6.144 0,0.528 -0.048,1.104 0,0.576 -0.096,1.008 h -18.24 q 0.24,2.256 1.488,3.84 1.248,1.536 3.168,2.352 1.968,0.768 4.32,0.768 h 6.384 V 0 Z m -9.12,-13.872 h 13.968 q 0,-0.912 -0.192,-1.92 -0.192,-1.056 -0.672,-2.016 -0.48,-1.008 -1.296,-1.776 -0.768,-0.816 -1.968,-1.296 -1.152,-0.48 -2.736,-0.48 -1.68,0 -2.976,0.672 -1.248,0.624 -2.16,1.728 -0.912,1.056 -1.392,2.4 -0.48,1.344 -0.576,2.688 z"
                 id="path17378" />
              <path
                 d="m 218.304,0 v -14.16 q 0,-3.264 1.44,-5.712 1.488,-2.448 4.08,-3.792 2.592,-1.392 5.904,-1.392 3.36,0 5.904,1.392 2.592,1.344 4.032,3.792 1.488,2.448 1.488,5.712 V 0 h -4.416 v -14.112 q 0,-2.208 -1.008,-3.792 -0.96,-1.632 -2.592,-2.496 -1.584,-0.864 -3.408,-0.864 -1.824,0 -3.456,0.864 -1.584,0.864 -2.592,2.496 -0.96,1.584 -0.96,3.792 V 0 Z"
                 id="path17380" />
              <path
                 d="m 260.01601,0 q -3.792,0 -6.768,-1.632 -2.976,-1.632 -4.704,-4.368 -1.728,-2.784 -1.728,-6.24 0,-3.456 1.728,-6.192 1.728,-2.784 4.704,-4.416 2.976,-1.632 6.768,-1.632 h 2.88 v 3.792 h -3.024 q -2.448,0 -4.416,1.152 -1.92,1.104 -3.072,3.024 -1.104,1.92 -1.104,4.272 0,2.352 1.104,4.272 1.152,1.92 3.072,3.072 1.968,1.104 4.416,1.104 h 3.024 V 0 Z"
                 id="path17382" />
              <path
                 d="m 268.03202,0 v -35.04 h 4.416 v 13.728 q 1.488,-1.92 3.6,-2.832 2.16,-0.912 4.464,-0.912 3.264,0 5.664,1.392 2.4,1.344 3.744,3.792 1.344,2.448 1.344,5.712 V 0 h -4.416 v -14.112 q 0,-2.208 -1.008,-3.792 -1.008,-1.632 -2.688,-2.496 -1.632,-0.864 -3.504,-0.864 -1.872,0 -3.504,0.864 -1.632,0.816 -2.688,2.4 -1.008,1.584 -1.008,3.792 V 0 Z"
                 id="path17384" />
            </g>
          </g>
        </g>
        <g
           id="g1317"
           transform="matrix(1.0035058,0,0,1.0035058,47.23838,-1.5591794)"
           style="display:inline;fill:#314159;fill-opacity:1;stroke:#314159;stroke-opacity:1"
           inkscape:label="Icon">
          <path
             d="m 371.61089,211.91504 h 332.64 v 75.6 h -332.64 z"
             style="display:inline;fill:#314159;fill-opacity:1;fill-rule:evenodd;stroke:#314159;stroke-opacity:1"
             id="path26" />
          <path
             d="m 350.97089,176.63504 h 374"
             style="display:inline;fill:#314159;fill-opacity:1;stroke:#314159;stroke-width:22.75;stroke-linecap:butt;stroke-linejoin:miter;stroke-miterlimit:8;stroke-dasharray:none;stroke-opacity:1"
             id="path42" />
          <path
             d="m 421.05089,176.63504 v -73.84"
             style="display:inline;fill:#314159;fill-opacity:1;stroke:#314159;stroke-width:22.75;stroke-linecap:butt;stroke-linejoin:miter;stroke-miterlimit:8;stroke-dasharray:none;stroke-opacity:1"
             id="path44" />
          <path
             d="m 654.81089,172.07504 v -69.27"
             style="display:inline;fill:#314159;fill-opacity:1;stroke:#314159;stroke-width:22.75;stroke-linecap:butt;stroke-linejoin:miter;stroke-miterlimit:8;stroke-dasharray:none;stroke-opacity:1"
             id="path46" />
        </g>
      </g>
    </g>
  </g>
</svg>
