<?xml version="1.0" encoding="UTF-8" standalone="no"?>
<!-- Created with Inkscape (http://www.inkscape.org/) -->

<svg
   version="1.1"
   id="svg2"
   width="550"
   height="300"
   viewBox="0 0 550 300"
   sodipodi:docname="proteobench-logo.svg"
   inkscape:version="1.3.2 (091e20e, 2023-11-25, custom)"
   xmlns:inkscape="http://www.inkscape.org/namespaces/inkscape"
   xmlns:sodipodi="http://sodipodi.sourceforge.net/DTD/sodipodi-0.dtd"
   xmlns="http://www.w3.org/2000/svg"
   xmlns:svg="http://www.w3.org/2000/svg">
  <defs
     id="defs6">
    <clipPath
       clipPathUnits="userSpaceOnUse"
       id="clipPath18">
      <path
         d="M 0,1.2207e-4 H 960 V 540.00012 H 0 Z"
         clip-rule="evenodd"
         id="path16" />
    </clipPath>
    <clipPath
       clipPathUnits="userSpaceOnUse"
       id="clipPath36">
      <path
         d="M 1.4305e-5,0 H 960.00001 V 540 H 1.4305e-5 Z"
         clip-rule="evenodd"
         id="path34" />
    </clipPath>
  </defs>
  <sodipodi:namedview
     id="namedview4"
     pagecolor="#ffffff"
     bordercolor="#000000"
     borderopacity="0.25"
     inkscape:showpageshadow="2"
     inkscape:pageopacity="0.0"
     inkscape:pagecheckerboard="true"
     inkscape:deskcolor="#d1d1d1"
     showgrid="false"
     inkscape:zoom="0.92709556"
     inkscape:cx="270.738"
     inkscape:cy="77.661897"
     inkscape:window-width="1440"
     inkscape:window-height="890"
     inkscape:window-x="-6"
     inkscape:window-y="-6"
     inkscape:window-maximized="1"
     inkscape:current-layer="g363">
    <inkscape:page
       x="0"
       y="0"
       id="page8"
       width="550"
       height="300"
       margin="0"
       bleed="0" />
  </sodipodi:namedview>
  <g
     id="g10"
     inkscape:groupmode="layer"
     inkscape:label="Page 1"
     transform="matrix(1.3333333,0,0,-1.3333333,-386.07999,501.14665)">
    <g
       id="g363"
       transform="translate(-0.9744451,4.8034241)">
      <path
         id="path22"
         style="fill:#314159;fill-opacity:1;fill-rule:evenodd;stroke:none;stroke-width:1.02766"
         d="M 330.42507 354.32659 L 330.42507 270.55657 L 663.06473 270.55657 L 663.06473 354.32659 L 330.42507 354.32659 z M 617.48611 331.45599 L 621.90262 331.45599 L 621.90262 317.72893 C 622.89462 319.00893 624.09374 319.95248 625.50174 320.56048 C 626.94174 321.16848 628.43058 321.47308 629.96658 321.47308 C 632.14258 321.47308 634.03113 321.00801 635.63113 320.08001 C 637.23113 319.18401 638.47781 317.92099 639.37381 316.28899 C 640.26981 314.65699 640.71854 312.7521 640.71854 310.5761 L 640.71854 296.41692 L 636.30203 296.41692 L 636.30203 310.52923 C 636.30203 312.00123 635.96622 313.26424 635.29422 314.32024 C 634.62222 315.40824 633.72623 316.24034 632.60623 316.81634 C 631.51823 317.39234 630.35032 317.68059 629.10232 317.68059 C 627.85433 317.68059 626.68642 317.39234 625.59842 316.81634 C 624.51042 316.27234 623.61443 315.47292 622.91043 314.41692 C 622.23843 313.36092 621.90262 312.09644 621.90262 310.62444 L 621.90262 296.41692 L 617.48611 296.41692 L 617.48611 331.45599 z M 353.10232 330.01604 L 367.26296 330.01604 C 369.37496 330.01604 371.29473 329.5361 373.02273 328.5761 C 374.75073 327.6481 376.12666 326.33607 377.15066 324.64007 C 378.17466 322.94407 378.68581 320.96041 378.68581 318.68841 C 378.68581 316.48041 378.17466 314.52796 377.15066 312.83196 C 376.15866 311.13596 374.79907 309.80905 373.07107 308.84905 C 371.34307 307.88905 369.37428 307.40911 367.16628 307.40911 L 357.71072 307.40911 L 357.71072 296.41692 L 353.10232 296.41692 L 353.10232 330.01604 z M 507.13504 330.01604 L 525.37381 330.01604 C 527.06976 330.01604 528.55865 329.63268 529.83865 328.86468 C 531.11865 328.12868 532.12609 327.12124 532.86209 325.84124 C 533.59809 324.56124 533.96658 323.10503 533.96658 321.47308 C 533.96658 320.35308 533.72588 319.26394 533.24588 318.20794 C 532.79788 317.18394 532.15893 316.28795 531.32693 315.51995 C 530.49493 314.75195 529.50237 314.1769 528.35037 313.7929 C 529.66237 313.4729 530.79906 312.89638 531.75906 312.06438 C 532.71906 311.23238 533.47092 310.24124 534.01492 309.08929 C 534.59092 307.93729 534.87918 306.6891 534.87918 305.34515 C 534.87918 303.68115 534.4943 302.17596 533.72635 300.83196 C 532.95835 299.48796 531.88701 298.41663 530.51101 297.61663 C 529.16701 296.81663 527.55038 296.41692 525.66238 296.41692 L 507.13504 296.41692 L 507.13504 330.01604 z M 431.43777 327.04095 L 435.85427 327.04095 L 435.85427 320.89593 L 444.25515 320.89593 L 444.25515 317.10491 L 435.85427 317.10491 L 435.85427 303.66497 C 435.85427 302.60897 436.14253 301.76054 436.71853 301.12054 C 437.32653 300.51254 438.1587 300.20794 439.21462 300.20794 L 444.15847 300.20794 L 444.15847 296.41692 L 438.39871 296.41692 C 436.22271 296.41692 434.51096 297.04099 433.26296 298.28899 C 432.04704 299.53699 431.43777 301.2324 431.43777 303.3764 L 431.43777 317.10491 L 427.21462 317.10491 L 427.21462 320.89593 L 431.43777 320.89593 L 431.43777 327.04095 z M 357.71072 325.93645 L 357.71072 311.4887 L 366.63894 311.4887 C 368.01494 311.4887 369.26308 311.76062 370.38308 312.30462 C 371.53508 312.88062 372.43107 313.71271 373.07107 314.80071 C 373.74307 315.88871 374.07888 317.18441 374.07888 318.68841 C 374.07888 320.22441 373.74307 321.5201 373.07107 322.5761 C 372.43107 323.6641 371.53508 324.4962 370.38308 325.0722 C 369.26308 325.6482 368.02981 325.93645 366.68581 325.93645 L 357.71072 325.93645 z M 511.74197 325.93645 L 511.74197 315.47308 L 523.79031 315.47308 C 524.91031 315.47308 525.88653 315.71231 526.71853 316.19231 C 527.58253 316.70431 528.23782 317.36106 528.68582 318.16106 C 529.16582 318.99306 529.40652 319.85637 529.40652 320.75237 C 529.40652 321.68037 529.18216 322.52881 528.73416 323.29681 C 528.28616 324.09681 527.66209 324.73722 526.86209 325.21722 C 526.06209 325.69722 525.13488 325.93645 524.07888 325.93645 L 511.74197 325.93645 z M 411.51882 321.47308 C 414.01482 321.47308 416.22285 320.89656 418.14285 319.74456 C 420.09476 318.62456 421.61491 317.08816 422.70291 315.13616 C 423.82282 313.21616 424.38308 311.05707 424.38308 308.65716 C 424.38308 306.25716 423.82282 304.08035 422.70291 302.12835 C 421.61491 300.20835 420.09476 298.67195 418.14285 297.51995 C 416.22285 296.39995 414.01482 295.84124 411.51882 295.84124 C 409.02291 295.84124 406.8148 296.39995 404.8948 297.51995 C 402.9748 298.67195 401.45474 300.20835 400.33474 302.12835 C 399.21474 304.08035 398.65456 306.25716 398.65456 308.65716 C 398.65456 311.05707 399.21474 313.21616 400.33474 315.13616 C 401.45474 317.08816 402.9748 318.62456 404.8948 319.74456 C 406.8148 320.89656 409.02291 321.47308 411.51882 321.47308 z M 459.99783 321.47308 C 462.52583 321.47308 464.6224 320.92924 466.2864 319.84124 C 467.9824 318.75324 469.24688 317.28067 470.07888 315.42474 C 470.91088 313.60074 471.32693 311.55318 471.32693 309.28118 C 471.32693 308.92918 471.31059 308.56069 471.27859 308.17669 C 471.27859 307.79269 471.24591 307.45688 471.18191 307.16888 L 452.94314 307.16888 C 453.10314 305.66488 453.59796 304.38399 454.42996 303.32806 C 455.26196 302.30406 456.31848 301.52098 457.59841 300.97698 C 458.91041 300.46498 460.35024 300.20794 461.91824 300.20794 L 468.30203 300.20794 L 468.30203 296.41692 L 462.01492 296.41692 C 459.32692 296.41692 456.94202 296.9132 454.86209 297.9052 C 452.78209 298.9292 451.15058 300.35269 449.96658 302.17669 C 448.81458 304.03269 448.23806 306.19316 448.23806 308.65716 C 448.23806 311.08909 448.73435 313.2645 449.72634 315.1845 C 450.71834 317.1365 452.09427 318.6729 453.85427 319.7929 C 455.61427 320.9129 457.66183 321.47308 459.99783 321.47308 z M 488.46267 321.47308 C 490.95867 321.47308 493.1667 320.89656 495.0867 319.74456 C 497.03864 318.62456 498.55881 317.08816 499.64675 315.13616 C 500.76675 313.21616 501.32693 311.0571 501.32693 308.65716 C 501.32693 306.25716 500.76675 304.08035 499.64675 302.12835 C 498.55881 300.20835 497.03864 298.67195 495.0867 297.51995 C 493.1667 296.39995 490.95867 295.84124 488.46267 295.84124 C 485.96667 295.84124 483.75865 296.39995 481.83865 297.51995 C 479.91865 298.67195 478.39859 300.20835 477.27859 302.12835 C 476.15859 304.08035 475.59841 306.25716 475.59841 308.65716 C 475.59841 311.0571 476.15859 313.21616 477.27859 315.13616 C 478.39859 317.08816 479.91865 318.62456 481.83865 319.74456 C 483.75865 320.89656 485.96667 321.47308 488.46267 321.47308 z M 550.81375 321.47308 C 553.34175 321.47308 555.43832 320.92924 557.10232 319.84124 C 558.79832 318.75324 560.0628 317.2807 560.8948 315.42474 C 561.7268 313.60074 562.14285 311.55318 562.14285 309.28118 C 562.14285 308.92918 562.12651 308.56069 562.09451 308.17669 C 562.09451 307.79269 562.06183 307.45688 561.99783 307.16888 L 543.75906 307.16888 C 543.91906 305.66488 544.41388 304.38402 545.24588 303.32806 C 546.07788 302.30406 547.13437 301.52098 548.41433 300.97698 C 549.72633 300.46498 551.16616 300.20794 552.73416 300.20794 L 559.11795 300.20794 L 559.11795 296.41692 L 552.83084 296.41692 C 550.14284 296.41692 547.75797 296.9132 545.67801 297.9052 C 543.59801 298.9292 541.9665 300.35269 540.7825 302.17669 C 539.6305 304.03269 539.05398 306.19316 539.05398 308.65716 C 539.05398 311.08912 539.55026 313.2645 540.54226 315.1845 C 541.53426 317.1365 542.91023 318.6729 544.67019 319.7929 C 546.43019 320.9129 548.47775 321.47308 550.81375 321.47308 z M 579.18191 321.47308 C 581.42191 321.47308 583.3907 321.00801 585.0867 320.08001 C 586.8147 319.18401 588.15795 317.92099 589.11795 316.28899 C 590.10995 314.65699 590.60623 312.7521 590.60623 310.5761 L 590.60623 296.41692 L 586.18973 296.41692 L 586.18973 310.52923 C 586.18973 312.00123 585.85391 313.26424 585.18191 314.32024 C 584.54191 315.40824 583.6786 316.24034 582.5906 316.81634 C 581.53463 317.39234 580.39791 317.68059 579.18191 317.68059 C 577.96591 317.68059 576.81435 317.39234 575.72635 316.81634 C 574.67035 316.24034 573.80704 315.40824 573.13504 314.32024 C 572.49504 313.26424 572.1741 312.00123 572.1741 310.52923 L 572.1741 296.41692 L 567.75906 296.41692 L 567.75906 310.5761 C 567.75906 312.7521 568.239 314.65699 569.199 316.28899 C 570.191 317.92099 571.55059 319.18401 573.27859 320.08001 C 575.00659 321.00801 576.97394 321.47308 579.18191 321.47308 z M 390.87917 320.89593 L 395.91824 320.89593 L 395.91824 317.10491 L 391.69509 317.10491 C 390.63909 317.10491 389.807 316.80031 389.199 316.19231 C 388.623 315.58431 388.33474 314.73588 388.33474 313.64788 L 388.33474 296.41692 L 383.91824 296.41692 L 383.91824 313.93645 C 383.91824 316.11245 384.52597 317.80786 385.74197 319.02386 C 386.98997 320.27186 388.70327 320.89593 390.87917 320.89593 z M 609.47049 320.89593 L 612.35037 320.89593 L 612.35037 317.10491 L 609.32693 317.10491 C 607.69493 317.10491 606.22243 316.72008 604.91043 315.95208 C 603.63043 315.21608 602.60665 314.20864 601.83865 312.92864 C 601.10265 311.64864 600.73416 310.22516 600.73416 308.65716 C 600.73416 307.08916 601.10265 305.66421 601.83865 304.38421 C 602.60665 303.10421 603.63043 302.08043 604.91043 301.31243 C 606.22243 300.57643 607.69493 300.20794 609.32693 300.20794 L 612.35037 300.20794 L 612.35037 296.41692 L 609.47049 296.41692 C 606.94249 296.41692 604.68691 296.96076 602.70291 298.04876 C 600.71891 299.13676 599.14983 300.59292 597.99783 302.41692 C 596.84583 304.27292 596.27078 306.35316 596.27078 308.65716 C 596.27078 310.96114 596.84583 313.02505 597.99783 314.84905 C 599.14983 316.70505 600.71891 318.17609 602.70291 319.26409 C 604.68691 320.35209 606.94249 320.89593 609.47049 320.89593 z M 459.99783 317.77727 C 458.87783 317.77727 457.88673 317.55291 457.02273 317.10491 C 456.19073 316.68891 455.47009 316.11233 454.86209 315.3764 C 454.25409 314.6724 453.79048 313.87298 453.47048 312.97698 C 453.15048 312.08098 452.9588 311.18499 452.8948 310.28899 L 466.86209 310.28899 C 466.86209 310.89699 466.79819 311.53594 466.67019 312.20794 C 466.54219 312.91194 466.31783 313.58503 465.99783 314.22503 C 465.67783 314.89703 465.24691 315.48842 464.70291 316.00042 C 464.19091 316.54442 463.53416 316.97681 462.73416 317.29681 C 461.96616 317.61681 461.05383 317.77727 459.99783 317.77727 z M 550.81375 317.77727 C 549.69375 317.77727 548.70265 317.55291 547.83865 317.10491 C 547.00665 316.68891 546.28601 316.11236 545.67801 315.3764 C 545.07001 314.6724 544.6064 313.87298 544.2864 312.97698 C 543.9664 312.08098 543.77472 311.18499 543.71072 310.28899 L 557.67801 310.28899 C 557.67801 310.89699 557.61411 311.53594 557.48611 312.20794 C 557.35811 312.91194 557.13375 313.58503 556.81375 314.22503 C 556.49375 314.89703 556.06283 315.48842 555.51883 316.00042 C 555.00683 316.54442 554.35008 316.97681 553.55008 317.29681 C 552.78208 317.61681 551.86975 317.77727 550.81375 317.77727 z M 411.51882 317.68059 C 409.85482 317.68059 408.38232 317.28089 407.10232 316.48089 C 405.85432 315.68089 404.8781 314.59313 404.1741 313.21722 C 403.4701 311.87322 403.11794 310.35316 403.11794 308.65716 C 403.11794 306.96116 403.4701 305.42476 404.1741 304.04876 C 404.8781 302.70476 405.85432 301.63196 407.10232 300.83196 C 408.38232 300.03196 409.85482 299.63225 411.51882 299.63225 C 413.21482 299.63225 414.68586 300.03196 415.93386 300.83196 C 417.18186 301.63196 418.15817 302.70476 418.86208 304.04876 C 419.56608 305.42476 419.91824 306.96116 419.91824 308.65716 C 419.91824 310.35316 419.56608 311.87322 418.86208 313.21722 C 418.15817 314.59313 417.18186 315.68089 415.93386 316.48089 C 414.68586 317.28089 413.21482 317.68059 411.51882 317.68059 z M 488.46267 317.68059 C 486.79867 317.68059 485.32617 317.28089 484.04617 316.48089 C 482.79817 315.68089 481.82189 314.59316 481.11795 313.21722 C 480.41395 311.87322 480.06179 310.35316 480.06179 308.65716 C 480.06179 306.96116 480.41395 305.42476 481.11795 304.04876 C 481.82189 302.70476 482.79817 301.63196 484.04617 300.83196 C 485.32617 300.03196 486.79867 299.63225 488.46267 299.63225 C 490.15867 299.63225 491.63118 300.03196 492.87918 300.83196 C 494.12718 301.63196 495.10199 302.70476 495.80593 304.04876 C 496.50993 305.42476 496.86209 306.96116 496.86209 308.65716 C 496.86209 310.35316 496.50993 311.87322 495.80593 313.21722 C 495.10199 314.59316 494.12718 315.68089 492.87918 316.48089 C 491.63118 317.28089 490.15867 317.68059 488.46267 317.68059 z M 511.74197 311.58392 L 511.74197 300.49651 L 524.60623 300.49651 C 525.79023 300.49651 526.79913 300.75209 527.63113 301.26409 C 528.46313 301.80809 529.10208 302.49606 529.55008 303.32806 C 530.03008 304.19201 530.27078 305.10438 530.27078 306.06438 C 530.27078 307.05638 530.03008 307.95237 529.55008 308.75237 C 529.07008 309.58437 528.39845 310.256 527.53445 310.768 C 526.67045 311.312 525.64667 311.58392 524.46267 311.58392 L 511.74197 311.58392 z " />
      <g
         id="g30"
         transform="translate(20.22445,-21.033431)">
        <g
           id="g32"
           clip-path="url(#clipPath36)">
          <g
             aria-label="ProteoBench"
             transform="matrix(1,0,0,-1,329.23,317.45)"
             id="text40"
             style="font-size:48px;font-family:MuseoModerno;-inkscape-font-specification:MuseoModerno-Regular;fill:#ffffff" />
        </g>
      </g>
      <path
         id="path46"
         style="color:#000000;fill:#314159;stroke-miterlimit:8;-inkscape-stroke:none"
         d="m 602.25,162.29687 v 69.26954 H 625 v -69.26954 z m -233.75977,-0.01 v 73.83984 h 22.75 v -73.83984 z m -58.70507,62.46484 v 22.75 h 374 v -22.75 z" />
    </g>
  </g>
</svg>
